<svg width="284" height="542" viewBox="0 0 284 542" fill="none" xmlns="http://www.w3.org/2000/svg">
<path d="M285.958 90.672C262.37 90.4525 238.971 94.8809 217.095 103.704C195.219 112.528 175.296 125.574 158.462 142.097C141.628 158.621 128.213 178.298 118.984 200.006C109.755 221.713 104.892 245.026 104.672 268.613C104.452 292.201 108.881 315.6 117.704 337.476C126.528 359.352 139.574 379.275 156.097 396.109C172.621 412.943 192.298 426.358 214.006 435.587C235.713 444.816 259.026 449.679 282.613 449.899L283.109 396.671C266.512 396.516 250.108 393.094 234.833 386.6C219.558 380.106 205.712 370.667 194.086 358.821C182.459 346.976 173.279 332.957 167.071 317.564C160.862 302.171 157.746 285.706 157.9 269.109C158.055 252.512 161.477 236.108 167.971 220.833C174.465 205.558 183.904 191.712 195.75 180.086C207.595 168.459 221.614 159.279 237.007 153.071C252.4 146.862 268.865 143.746 285.462 143.9L285.958 90.672Z" fill="#3D246C" fillOpacity="0.3"/>
<circle cx="271" cy="271" r="269.5" stroke="#E9E9E9" strokeWidth="3"/>
<circle cx="284" cy="273" r="229.5" stroke="#E9E9E9" strokeWidth="3"/>
<circle cx="178" cy="69" r="10" fill="#FC2947"/>
<circle cx="38" cy="406" r="10" fill="#FC2947"/>
</svg>
