<svg width="150" height="150" viewBox="0 0 150 150" fill="none" xmlns="http://www.w3.org/2000/svg">
<circle cx="75" cy="75" r="74.5" fill="white" stroke="#E2E2E2"/>
<path d="M67.8002 51.9H70.5947L76.4482 68H73.9182L72.8027 64.941H65.5922L64.4882 68H61.9467L67.8002 51.9ZM66.4777 62.549H71.9172L69.1917 55.074L66.4777 62.549ZM79.2662 68V50.75H81.6582V68H79.2662ZM85.2098 68V50.75H87.6018V68H85.2098ZM24.3155 98.299C23.2268 98.299 22.2033 98.0843 21.245 97.655C20.2867 97.218 19.4433 96.62 18.715 95.861C17.9943 95.0943 17.427 94.205 17.013 93.193C16.6067 92.181 16.4035 91.1 16.4035 89.95C16.4035 88.8 16.6067 87.719 17.013 86.707C17.427 85.695 17.9943 84.8095 18.715 84.0505C19.4433 83.2838 20.2867 82.6858 21.245 82.2565C22.2033 81.8195 23.2268 81.601 24.3155 81.601C25.6188 81.601 26.8187 81.9038 27.915 82.5095C29.0113 83.1152 29.9198 83.9202 30.6405 84.9245L28.513 86.063C28.0147 85.4343 27.3975 84.9322 26.6615 84.5565C25.9255 84.1808 25.1435 83.993 24.3155 83.993C23.5488 83.993 22.832 84.1502 22.165 84.4645C21.498 84.7788 20.9115 85.2082 20.4055 85.7525C19.8995 86.2968 19.5047 86.9293 19.221 87.65C18.9373 88.3707 18.7955 89.1373 18.7955 89.95C18.7955 90.7703 18.9373 91.5408 19.221 92.2615C19.5047 92.9745 19.8995 93.607 20.4055 94.159C20.9192 94.7033 21.5095 95.1327 22.1765 95.447C22.8435 95.7537 23.5565 95.907 24.3155 95.907C25.1588 95.907 25.9447 95.7192 26.673 95.3435C27.409 94.9602 28.0223 94.4542 28.513 93.8255L30.6405 94.987C29.9198 95.9913 29.0113 96.7963 27.915 97.402C26.8187 98 25.6188 98.299 24.3155 98.299ZM42.0187 86.5H44.4107V98H42.0072L41.9152 96.3325C41.5779 96.9228 41.1217 97.3982 40.5467 97.7585C39.9717 98.1188 39.2932 98.299 38.5112 98.299C37.6679 98.299 36.8744 98.1418 36.1307 97.8275C35.387 97.5055 34.7315 97.0608 34.1642 96.4935C33.6045 95.9262 33.1675 95.2745 32.8532 94.5385C32.5389 93.7948 32.3817 92.9975 32.3817 92.1465C32.3817 91.3262 32.535 90.5557 32.8417 89.835C33.1484 89.1067 33.5739 88.4703 34.1182 87.926C34.6625 87.3817 35.2912 86.9562 36.0042 86.6495C36.7249 86.3352 37.4954 86.178 38.3157 86.178C39.1514 86.178 39.8874 86.3697 40.5237 86.753C41.1677 87.1287 41.7005 87.6117 42.1222 88.202L42.0187 86.5ZM38.4537 95.9875C39.1284 95.9875 39.7187 95.8227 40.2247 95.493C40.7307 95.1557 41.1217 94.7033 41.3977 94.136C41.6814 93.5687 41.8232 92.94 41.8232 92.25C41.8232 91.5523 41.6814 90.9198 41.3977 90.3525C41.114 89.7852 40.7192 89.3367 40.2132 89.007C39.7149 88.6697 39.1284 88.501 38.4537 88.501C37.7867 88.501 37.1772 88.6697 36.6252 89.007C36.0732 89.3443 35.6362 89.7967 35.3142 90.364C34.9922 90.9313 34.8312 91.56 34.8312 92.25C34.8312 92.9477 34.996 93.5802 35.3257 94.1475C35.663 94.7072 36.1039 95.1557 36.6482 95.493C37.2002 95.8227 37.802 95.9875 38.4537 95.9875ZM53.5775 88.892H51.1625L51.151 98H48.759L48.7705 88.892H46.942V86.5H48.7705L48.759 82.889H51.151L51.1625 86.5H53.5775V88.892ZM61.2268 98.299C60.1688 98.299 59.2028 98.0268 58.3288 97.4825C57.4625 96.9382 56.7687 96.2098 56.2473 95.2975C55.7337 94.3775 55.4768 93.3617 55.4768 92.25C55.4768 91.4067 55.6263 90.6208 55.9253 89.8925C56.2243 89.1565 56.6345 88.5125 57.1558 87.9605C57.6848 87.4008 58.2982 86.9638 58.9958 86.6495C59.6935 86.3352 60.4372 86.178 61.2268 86.178C62.1085 86.178 62.9173 86.362 63.6533 86.73C64.3893 87.0903 65.018 87.5925 65.5393 88.2365C66.0607 88.8728 66.444 89.6088 66.6893 90.4445C66.9347 91.2725 67.0075 92.1542 66.9078 93.0895H58.0413C58.141 93.6185 58.3327 94.0977 58.6163 94.527C58.9077 94.9487 59.2757 95.2822 59.7203 95.5275C60.1727 95.7728 60.6748 95.8993 61.2268 95.907C61.8095 95.907 62.3385 95.7613 62.8138 95.47C63.2968 95.1787 63.6917 94.7762 63.9983 94.2625L66.4248 94.826C65.9648 95.8457 65.271 96.6813 64.3433 97.333C63.4157 97.977 62.3768 98.299 61.2268 98.299ZM57.9608 91.261H64.4928C64.4162 90.709 64.2207 90.2107 63.9063 89.766C63.5997 89.3137 63.2125 88.9572 62.7448 88.6965C62.2848 88.4282 61.7788 88.294 61.2268 88.294C60.6825 88.294 60.1765 88.4243 59.7088 88.685C59.2488 88.9457 58.8655 89.3022 58.5588 89.7545C58.2598 90.1992 58.0605 90.7013 57.9608 91.261ZM78.3414 86.5H80.7334V98.299C80.7334 99.0887 80.5647 99.817 80.2274 100.484C79.8977 101.151 79.4492 101.726 78.8819 102.209C78.3145 102.7 77.6629 103.079 76.9269 103.348C76.1985 103.616 75.4357 103.75 74.6384 103.75C73.8334 103.75 73.059 103.578 72.3154 103.233C71.5717 102.895 70.9162 102.435 70.3489 101.853C69.7892 101.27 69.3714 100.611 69.0954 99.8745L71.2919 98.8855C71.4452 99.3608 71.6905 99.7825 72.0279 100.151C72.3729 100.519 72.7715 100.81 73.2239 101.025C73.6839 101.239 74.1554 101.347 74.6384 101.347C75.1137 101.347 75.5699 101.27 76.0069 101.117C76.4515 100.971 76.8464 100.764 77.1914 100.496C77.544 100.227 77.8239 99.9052 78.0309 99.5295C78.2379 99.1538 78.3414 98.7437 78.3414 98.299V96.3555C77.9657 96.9382 77.4827 97.4097 76.8924 97.77C76.302 98.1227 75.6159 98.299 74.8339 98.299C74.0212 98.299 73.2545 98.1418 72.5339 97.8275C71.8132 97.5132 71.1807 97.08 70.6364 96.528C70.092 95.9683 69.6665 95.3243 69.3599 94.596C69.0532 93.8677 68.8999 93.0857 68.8999 92.25C68.8999 91.4143 69.0532 90.6323 69.3599 89.904C69.6665 89.168 70.092 88.524 70.6364 87.972C71.1807 87.4123 71.8132 86.9753 72.5339 86.661C73.2545 86.3467 74.0212 86.1895 74.8339 86.1895C75.6159 86.1895 76.302 86.3697 76.8924 86.73C77.4827 87.0827 77.9657 87.5542 78.3414 88.1445V86.5ZM74.8569 95.9875C75.5239 95.9875 76.1065 95.8188 76.6049 95.4815C77.1032 95.1365 77.4904 94.6803 77.7664 94.113C78.0424 93.5457 78.1804 92.9247 78.1804 92.25C78.1804 91.56 78.0385 90.9352 77.7549 90.3755C77.4789 89.8082 77.0917 89.3558 76.5934 89.0185C76.095 88.6735 75.5162 88.501 74.8569 88.501C74.2129 88.501 73.6225 88.6697 73.0859 89.007C72.5569 89.3443 72.1352 89.7967 71.8209 90.364C71.5065 90.9313 71.3494 91.56 71.3494 92.25C71.3494 92.94 71.5065 93.5687 71.8209 94.136C72.1429 94.7033 72.5684 95.1557 73.0974 95.493C73.634 95.8227 74.2205 95.9875 74.8569 95.9875ZM89.151 98.299C88.093 98.299 87.127 98.0268 86.253 97.4825C85.3867 96.9382 84.6929 96.2098 84.1715 95.2975C83.6579 94.3775 83.401 93.3617 83.401 92.25C83.401 91.4067 83.5505 90.6208 83.8495 89.8925C84.1485 89.1565 84.5587 88.5125 85.08 87.9605C85.609 87.4008 86.2224 86.9638 86.92 86.6495C87.6177 86.3352 88.3614 86.178 89.151 86.178C90.209 86.178 91.1712 86.4502 92.0375 86.9945C92.9115 87.5388 93.6054 88.271 94.119 89.191C94.6404 90.111 94.901 91.1307 94.901 92.25C94.901 93.0857 94.7515 93.8677 94.4525 94.596C94.1535 95.3243 93.7395 95.9683 93.2105 96.528C92.6892 97.08 92.0797 97.5132 91.382 97.8275C90.692 98.1418 89.9484 98.299 89.151 98.299ZM89.151 95.907C89.7874 95.907 90.3585 95.7383 90.8645 95.401C91.3705 95.0637 91.7692 94.619 92.0605 94.067C92.3595 93.5073 92.509 92.9017 92.509 92.25C92.509 91.583 92.3557 90.9697 92.049 90.41C91.75 89.8503 91.3475 89.4057 90.8415 89.076C90.3355 88.7387 89.772 88.57 89.151 88.57C88.5224 88.57 87.9512 88.7387 87.4375 89.076C86.9315 89.4133 86.529 89.8618 86.23 90.4215C85.9387 90.9812 85.793 91.5907 85.793 92.25C85.793 92.9323 85.9464 93.5495 86.253 94.1015C86.5597 94.6535 86.966 95.0943 87.472 95.424C87.9857 95.746 88.5454 95.907 89.151 95.907ZM97.559 98V86.5H99.951V87.719C100.35 87.2437 100.84 86.868 101.423 86.592C102.006 86.316 102.634 86.178 103.309 86.178C103.738 86.178 104.164 86.2355 104.586 86.3505L103.631 88.7655C103.332 88.6505 103.033 88.593 102.734 88.593C102.228 88.593 101.764 88.7195 101.343 88.9725C100.921 89.2178 100.584 89.5513 100.331 89.973C100.078 90.3947 99.951 90.8623 99.951 91.376V98H97.559ZM106.714 86.5H109.106V98H106.714V86.5ZM107.933 84.8325C107.565 84.8325 107.259 84.7137 107.013 84.476C106.768 84.2383 106.645 83.9393 106.645 83.579C106.645 83.2263 106.768 82.9312 107.013 82.6935C107.259 82.4482 107.562 82.3255 107.922 82.3255C108.275 82.3255 108.574 82.4482 108.819 82.6935C109.064 82.9312 109.187 83.2263 109.187 83.579C109.187 83.9393 109.064 84.2383 108.819 84.476C108.581 84.7137 108.286 84.8325 107.933 84.8325ZM117.516 98.299C116.458 98.299 115.492 98.0268 114.618 97.4825C113.752 96.9382 113.058 96.2098 112.536 95.2975C112.023 94.3775 111.766 93.3617 111.766 92.25C111.766 91.4067 111.915 90.6208 112.214 89.8925C112.513 89.1565 112.924 88.5125 113.445 87.9605C113.974 87.4008 114.587 86.9638 115.285 86.6495C115.983 86.3352 116.726 86.178 117.516 86.178C118.398 86.178 119.206 86.362 119.942 86.73C120.678 87.0903 121.307 87.5925 121.828 88.2365C122.35 88.8728 122.733 89.6088 122.978 90.4445C123.224 91.2725 123.297 92.1542 123.197 93.0895H114.33C114.43 93.6185 114.622 94.0977 114.905 94.527C115.197 94.9487 115.565 95.2822 116.009 95.5275C116.462 95.7728 116.964 95.8993 117.516 95.907C118.099 95.907 118.628 95.7613 119.103 95.47C119.586 95.1787 119.981 94.7762 120.287 94.2625L122.714 94.826C122.254 95.8457 121.56 96.6813 120.632 97.333C119.705 97.977 118.666 98.299 117.516 98.299ZM114.25 91.261H120.782C120.705 90.709 120.51 90.2107 120.195 89.766C119.889 89.3137 119.502 88.9572 119.034 88.6965C118.574 88.4282 118.068 88.294 117.516 88.294C116.972 88.294 116.466 88.4243 115.998 88.685C115.538 88.9457 115.155 89.3022 114.848 89.7545C114.549 90.1992 114.35 90.7013 114.25 91.261ZM129.396 98.2185C128.791 98.1802 128.2 98.0575 127.625 97.8505C127.05 97.6435 126.544 97.3637 126.107 97.011C125.678 96.6507 125.356 96.229 125.141 95.746L127.177 94.872C127.276 95.079 127.449 95.2822 127.694 95.4815C127.947 95.6808 128.242 95.8457 128.58 95.976C128.917 96.0987 129.27 96.16 129.638 96.16C129.998 96.16 130.332 96.1102 130.638 96.0105C130.953 95.9032 131.209 95.7422 131.409 95.5275C131.608 95.3128 131.708 95.056 131.708 94.757C131.708 94.4197 131.593 94.159 131.363 93.975C131.14 93.7833 130.861 93.6377 130.523 93.538C130.186 93.4383 129.849 93.3425 129.511 93.2505C128.76 93.0818 128.07 92.8518 127.441 92.5605C126.82 92.2615 126.326 91.882 125.958 91.422C125.59 90.9543 125.406 90.3832 125.406 89.7085C125.406 88.9725 125.605 88.3362 126.004 87.7995C126.402 87.2552 126.924 86.8373 127.568 86.546C128.219 86.2547 128.913 86.109 129.649 86.109C130.569 86.109 131.413 86.3045 132.179 86.6955C132.946 87.0865 133.532 87.6232 133.939 88.3055L132.041 89.4325C131.926 89.2025 131.754 88.9955 131.524 88.8115C131.294 88.6275 131.033 88.4818 130.742 88.3745C130.45 88.2595 130.148 88.1943 129.833 88.179C129.442 88.1637 129.078 88.2097 128.741 88.317C128.411 88.4167 128.147 88.5777 127.947 88.8C127.748 89.0223 127.648 89.306 127.648 89.651C127.648 89.9883 127.767 90.2413 128.005 90.41C128.242 90.571 128.541 90.7013 128.902 90.801C129.27 90.9007 129.645 91.0118 130.029 91.1345C130.711 91.3492 131.351 91.6137 131.949 91.928C132.547 92.2347 133.03 92.6142 133.398 93.0665C133.766 93.5188 133.943 94.0708 133.927 94.7225C133.927 95.4432 133.709 96.0757 133.272 96.62C132.842 97.1643 132.283 97.5783 131.593 97.862C130.903 98.1457 130.171 98.2645 129.396 98.2185Z" fill="#777777"/>
</svg>
