<svg width="150" height="150" viewBox="0 0 150 150" fill="none" xmlns="http://www.w3.org/2000/svg">
<circle cx="75" cy="75" r="74.5" fill="white" stroke="#E2E2E2"/>
<path d="M67.8002 51.9H70.5947L76.4482 68H73.9182L72.8027 64.941H65.5922L64.4882 68H61.9467L67.8002 51.9ZM66.4777 62.549H71.9172L69.1917 55.074L66.4777 62.549ZM79.2662 68V50.75H81.6582V68H79.2662ZM85.2098 68V50.75H87.6018V68H85.2098ZM29.4106 98V81.9H34.9536C35.8199 81.9 36.6019 82.1147 37.2996 82.544C38.0049 82.9733 38.5646 83.5522 38.9786 84.2805C39.4002 85.0088 39.6111 85.8138 39.6111 86.6955C39.6111 87.5925 39.3964 88.4052 38.9671 89.1335C38.5454 89.8542 37.9819 90.4292 37.2766 90.8585C36.5712 91.2878 35.7969 91.5025 34.9536 91.5025H31.8026V98H29.4106ZM31.8026 89.1105H34.7121C35.1721 89.1105 35.5899 88.9955 35.9656 88.7655C36.3489 88.5355 36.6517 88.2288 36.8741 87.8455C37.1041 87.4622 37.2191 87.029 37.2191 86.546C37.2191 86.063 37.1041 85.6298 36.8741 85.2465C36.6517 84.8555 36.3489 84.5488 35.9656 84.3265C35.5899 84.0965 35.1721 83.9815 34.7121 83.9815H31.8026V89.1105ZM42.2946 98V86.5H44.6866V87.719C45.0852 87.2437 45.5759 86.868 46.1586 86.592C46.7412 86.316 47.3699 86.178 48.0446 86.178C48.4739 86.178 48.8994 86.2355 49.3211 86.3505L48.3666 88.7655C48.0676 88.6505 47.7686 88.593 47.4696 88.593C46.9636 88.593 46.4997 88.7195 46.0781 88.9725C45.6564 89.2178 45.3191 89.5513 45.0661 89.973C44.8131 90.3947 44.6866 90.8623 44.6866 91.376V98H42.2946ZM55.971 98.299C54.913 98.299 53.947 98.0268 53.073 97.4825C52.2066 96.9382 51.5128 96.2098 50.9915 95.2975C50.4778 94.3775 50.221 93.3617 50.221 92.25C50.221 91.4067 50.3705 90.6208 50.6695 89.8925C50.9685 89.1565 51.3786 88.5125 51.9 87.9605C52.429 87.4008 53.0423 86.9638 53.74 86.6495C54.4376 86.3352 55.1813 86.178 55.971 86.178C57.029 86.178 57.9911 86.4502 58.8575 86.9945C59.7315 87.5388 60.4253 88.271 60.939 89.191C61.4603 90.111 61.721 91.1307 61.721 92.25C61.721 93.0857 61.5715 93.8677 61.2725 94.596C60.9735 95.3243 60.5595 95.9683 60.0305 96.528C59.5091 97.08 58.8996 97.5132 58.202 97.8275C57.512 98.1418 56.7683 98.299 55.971 98.299ZM55.971 95.907C56.6073 95.907 57.1785 95.7383 57.6845 95.401C58.1905 95.0637 58.5891 94.619 58.8805 94.067C59.1795 93.5073 59.329 92.9017 59.329 92.25C59.329 91.583 59.1756 90.9697 58.869 90.41C58.57 89.8503 58.1675 89.4057 57.6615 89.076C57.1555 88.7387 56.592 88.57 55.971 88.57C55.3423 88.57 54.7711 88.7387 54.2575 89.076C53.7515 89.4133 53.349 89.8618 53.05 90.4215C52.7586 90.9812 52.613 91.5907 52.613 92.25C52.613 92.9323 52.7663 93.5495 53.073 94.1015C53.3796 94.6535 53.786 95.0943 54.292 95.424C54.8056 95.746 55.3653 95.907 55.971 95.907ZM73.315 80.75H75.707V98H73.315V96.3095C72.9393 96.9075 72.4486 97.3905 71.843 97.7585C71.2373 98.1188 70.5281 98.299 69.7155 98.299C68.8798 98.299 68.0978 98.1418 67.3695 97.8275C66.6411 97.5132 65.9971 97.08 65.4375 96.528C64.8855 95.9683 64.4523 95.3243 64.138 94.596C63.8236 93.8677 63.6665 93.0857 63.6665 92.25C63.6665 91.4143 63.8236 90.6323 64.138 89.904C64.4523 89.168 64.8855 88.524 65.4375 87.972C65.9971 87.4123 66.6411 86.9753 67.3695 86.661C68.0978 86.3467 68.8798 86.1895 69.7155 86.1895C70.5281 86.1895 71.2373 86.3735 71.843 86.7415C72.4486 87.1018 72.9393 87.5772 73.315 88.1675V80.75ZM69.7385 95.9875C70.4131 95.9875 71.0035 95.8227 71.5095 95.493C72.0155 95.1557 72.4065 94.7033 72.6825 94.136C72.9661 93.5687 73.108 92.94 73.108 92.25C73.108 91.5523 72.9661 90.9198 72.6825 90.3525C72.3988 89.7852 72.004 89.3367 71.498 89.007C70.9996 88.6697 70.4131 88.501 69.7385 88.501C69.0715 88.501 68.462 88.6697 67.91 89.007C67.3656 89.3443 66.9286 89.7967 66.599 90.364C66.277 90.9313 66.116 91.56 66.116 92.25C66.116 92.9477 66.2808 93.5802 66.6105 94.1475C66.9478 94.7072 67.3886 95.1557 67.933 95.493C68.485 95.8227 69.0868 95.9875 69.7385 95.9875ZM78.8019 93.6875V86.5H81.1939V93.101C81.1939 93.6147 81.3204 94.0823 81.5734 94.504C81.8264 94.9257 82.1638 95.263 82.5854 95.516C83.0071 95.7613 83.4709 95.884 83.9769 95.884C84.4906 95.884 84.9544 95.7613 85.3684 95.516C85.7901 95.263 86.1236 94.9257 86.3689 94.504C86.6219 94.0823 86.7484 93.6147 86.7484 93.101V86.5H89.1404L89.1519 98H86.7599L86.7484 96.758C86.3574 97.2333 85.8706 97.609 85.2879 97.885C84.7053 98.161 84.0804 98.299 83.4134 98.299C82.5624 98.299 81.7881 98.092 81.0904 97.678C80.3928 97.264 79.8369 96.7082 79.4229 96.0105C79.0089 95.3128 78.8019 94.5385 78.8019 93.6875ZM99.6105 94.734L101.749 95.8955C101.228 96.6238 100.565 97.2065 99.76 97.6435C98.9627 98.0805 98.0963 98.299 97.161 98.299C96.103 98.299 95.137 98.0268 94.263 97.4825C93.3967 96.9382 92.7028 96.2098 92.1815 95.2975C91.6678 94.3775 91.411 93.3617 91.411 92.25C91.411 91.4067 91.5605 90.6208 91.8595 89.8925C92.1585 89.1565 92.5687 88.5125 93.09 87.9605C93.619 87.4008 94.2323 86.9638 94.93 86.6495C95.6277 86.3352 96.3713 86.178 97.161 86.178C98.0963 86.178 98.9627 86.3965 99.76 86.8335C100.565 87.2705 101.228 87.857 101.749 88.593L99.6105 89.7545C99.2885 89.3712 98.9128 89.0798 98.4835 88.8805C98.0542 88.6735 97.6133 88.57 97.161 88.57C96.5323 88.57 95.9612 88.7425 95.4475 89.0875C94.9415 89.4248 94.539 89.8733 94.24 90.433C93.9487 90.985 93.803 91.5907 93.803 92.25C93.803 92.9017 93.9525 93.5073 94.2515 94.067C94.5505 94.619 94.953 95.0637 95.459 95.401C95.9727 95.7383 96.54 95.907 97.161 95.907C97.6363 95.907 98.0887 95.7997 98.518 95.585C98.9473 95.3703 99.3115 95.0867 99.6105 94.734ZM110.698 88.892H108.283L108.271 98H105.879L105.891 88.892H104.062V86.5H105.891L105.879 82.889H108.271L108.283 86.5H110.698V88.892ZM116.849 98.2185C116.244 98.1802 115.653 98.0575 115.078 97.8505C114.503 97.6435 113.997 97.3637 113.56 97.011C113.131 96.6507 112.809 96.229 112.594 95.746L114.63 94.872C114.729 95.079 114.902 95.2822 115.147 95.4815C115.4 95.6808 115.695 95.8457 116.033 95.976C116.37 96.0987 116.723 96.16 117.091 96.16C117.451 96.16 117.785 96.1102 118.091 96.0105C118.406 95.9032 118.662 95.7422 118.862 95.5275C119.061 95.3128 119.161 95.056 119.161 94.757C119.161 94.4197 119.046 94.159 118.816 93.975C118.593 93.7833 118.314 93.6377 117.976 93.538C117.639 93.4383 117.302 93.3425 116.964 93.2505C116.213 93.0818 115.523 92.8518 114.894 92.5605C114.273 92.2615 113.779 91.882 113.411 91.422C113.043 90.9543 112.859 90.3832 112.859 89.7085C112.859 88.9725 113.058 88.3362 113.457 87.7995C113.855 87.2552 114.377 86.8373 115.021 86.546C115.672 86.2547 116.366 86.109 117.102 86.109C118.022 86.109 118.866 86.3045 119.632 86.6955C120.399 87.0865 120.985 87.6232 121.392 88.3055L119.494 89.4325C119.379 89.2025 119.207 88.9955 118.977 88.8115C118.747 88.6275 118.486 88.4818 118.195 88.3745C117.903 88.2595 117.601 88.1943 117.286 88.179C116.895 88.1637 116.531 88.2097 116.194 88.317C115.864 88.4167 115.6 88.5777 115.4 88.8C115.201 89.0223 115.101 89.306 115.101 89.651C115.101 89.9883 115.22 90.2413 115.458 90.41C115.695 90.571 115.994 90.7013 116.355 90.801C116.723 90.9007 117.098 91.0118 117.482 91.1345C118.164 91.3492 118.804 91.6137 119.402 91.928C120 92.2347 120.483 92.6142 120.851 93.0665C121.219 93.5188 121.396 94.0708 121.38 94.7225C121.38 95.4432 121.162 96.0757 120.725 96.62C120.295 97.1643 119.736 97.5783 119.046 97.862C118.356 98.1457 117.624 98.2645 116.849 98.2185Z" fill="#777777"/>
</svg>
