<svg width="15" height="15" viewBox="0 0 15 15" fill="none" xmlns="http://www.w3.org/2000/svg">
<path d="M5 3.51633C4.74375 3.51633 4.53125 3.30835 4.53125 3.05755V1.22245C4.53125 0.971651 4.74375 0.763672 5 0.763672C5.25625 0.763672 5.46875 0.971651 5.46875 1.22245V3.05755C5.46875 3.30835 5.25625 3.51633 5 3.51633Z" fill="#149CBE"/>
<path d="M10 3.51633C9.74375 3.51633 9.53125 3.30835 9.53125 3.05755V1.22245C9.53125 0.971651 9.74375 0.763672 10 0.763672C10.2563 0.763672 10.4688 0.971651 10.4688 1.22245V3.05755C10.4688 3.30835 10.2563 3.51633 10 3.51633Z" fill="#149CBE"/>
<path d="M12.8125 6.01912H2.1875C1.93125 6.01912 1.71875 5.81114 1.71875 5.56034C1.71875 5.30954 1.93125 5.10156 2.1875 5.10156H12.8125C13.0688 5.10156 13.2812 5.30954 13.2812 5.56034C13.2812 5.81114 13.0688 6.01912 12.8125 6.01912Z" fill="#149CBE"/>
<path d="M10 13.9157H5C2.71875 13.9157 1.40625 12.6311 1.40625 10.3984V5.19893C1.40625 2.96621 2.71875 1.68164 5 1.68164H10C12.2812 1.68164 13.5938 2.96621 13.5938 5.19893V10.3984C13.5938 12.6311 12.2812 13.9157 10 13.9157ZM5 2.59919C3.2125 2.59919 2.34375 3.44946 2.34375 5.19893V10.3984C2.34375 12.1479 3.2125 12.9981 5 12.9981H10C11.7875 12.9981 12.6562 12.1479 12.6562 10.3984V5.19893C12.6562 3.44946 11.7875 2.59919 10 2.59919H5Z" fill="#149CBE"/>
<path d="M5.3125 8.8699C5.23125 8.8699 5.15 8.85155 5.075 8.82097C5 8.79038 4.93126 8.74755 4.86876 8.6925C4.81251 8.63133 4.76874 8.56405 4.73749 8.49064C4.70624 8.41724 4.6875 8.33771 4.6875 8.25819C4.6875 8.09915 4.75626 7.94011 4.86876 7.82389C4.93126 7.76884 5 7.726 5.075 7.69542C5.1875 7.64648 5.31251 7.63425 5.43751 7.65872C5.47501 7.66484 5.5125 7.67707 5.55 7.69542C5.5875 7.70765 5.625 7.72602 5.6625 7.75049C5.69375 7.77496 5.72499 7.79942 5.75624 7.82389C5.78124 7.85448 5.81249 7.88506 5.83124 7.91564C5.85624 7.95234 5.87501 7.98904 5.88751 8.02574C5.90626 8.06245 5.91876 8.09914 5.92501 8.13585C5.93126 8.17866 5.9375 8.21537 5.9375 8.25819C5.9375 8.41724 5.86874 8.57627 5.75624 8.6925C5.63749 8.8026 5.475 8.8699 5.3125 8.8699Z" fill="#149CBE"/>
<path d="M7.5 8.86921C7.3375 8.86921 7.17501 8.80192 7.05626 8.69181C7.03126 8.66123 7.00626 8.63065 6.98126 8.60006C6.95626 8.56336 6.93749 8.52666 6.92499 8.48996C6.90624 8.45326 6.89374 8.41656 6.88749 8.37986C6.88124 8.33704 6.875 8.30033 6.875 8.25751C6.875 8.17799 6.89374 8.09847 6.92499 8.02506C6.95624 7.95166 7.00001 7.88438 7.05626 7.82321C7.23126 7.65193 7.5125 7.59687 7.7375 7.69474C7.81875 7.72532 7.88124 7.76816 7.94374 7.82321C8.05624 7.93943 8.125 8.09847 8.125 8.25751C8.125 8.30033 8.11876 8.33704 8.11251 8.37986C8.10626 8.41656 8.09376 8.45326 8.07501 8.48996C8.06251 8.52666 8.04374 8.56336 8.01874 8.60006C7.99374 8.63065 7.96874 8.66123 7.94374 8.69181C7.88124 8.74687 7.81875 8.7897 7.7375 8.82029C7.6625 8.85087 7.58125 8.86921 7.5 8.86921Z" fill="#149CBE"/>
<path d="M5.3125 11.0098C5.23125 11.0098 5.15 10.9915 5.075 10.9609C5 10.9303 4.93126 10.8875 4.86876 10.8324C4.81251 10.7713 4.76874 10.7101 4.73749 10.6306C4.70624 10.5572 4.6875 10.4777 4.6875 10.3981C4.6875 10.2391 4.75626 10.0801 4.86876 9.96383C4.93126 9.90878 5 9.86595 5.075 9.83536C5.30625 9.73749 5.58124 9.79256 5.75624 9.96383C5.78124 9.99442 5.81249 10.025 5.83124 10.0556C5.85624 10.0923 5.87501 10.129 5.88751 10.1657C5.90626 10.2024 5.91876 10.2391 5.92501 10.2819C5.93126 10.3186 5.9375 10.3614 5.9375 10.3981C5.9375 10.5572 5.86874 10.7162 5.75624 10.8324C5.63749 10.9425 5.475 11.0098 5.3125 11.0098Z" fill="#149CBE"/>
</svg>
