<svg width="12" height="12" viewBox="0 0 12 12" fill="none" xmlns="http://www.w3.org/2000/svg">
<path d="M11 5.75V7.3C11 8.4201 11 8.98016 10.782 9.40798C10.5903 9.78431 10.2843 10.0903 9.90798 10.282C9.48016 10.5 8.9201 10.5 7.8 10.5H4.2C3.0799 10.5 2.51984 10.5 2.09202 10.282C1.71569 10.0903 1.40973 9.78431 1.21799 9.40798C1 8.98016 1 8.4201 1 7.3V4.7C1 3.5799 1 3.01984 1.21799 2.59202C1.40973 2.21569 1.71569 1.90973 2.09202 1.71799C2.51984 1.5 3.0799 1.5 4.2 1.5H6.25M9.5 4V1M8 2.5H11M8 6C8 7.10457 7.10457 8 6 8C4.89543 8 4 7.10457 4 6C4 4.89543 4.89543 4 6 4C7.10457 4 8 4.89543 8 6Z" stroke="#222222" strokeWidth="0.5" strokeLinecap="round" strokeLinejoin="round"/>
</svg>
