<svg width="16" height="16" viewBox="0 0 16 16" fill="none" xmlns="http://www.w3.org/2000/svg">
<path d="M1.33333 1.33337H2.49333C3.21333 1.33337 3.78 1.95337 3.72 2.66671L3.16666 9.3067C3.07333 10.3934 3.93332 11.3267 5.02666 11.3267H12.1267C13.0867 11.3267 13.9267 10.54 14 9.58671L14.36 4.58671C14.44 3.48004 13.6 2.58004 12.4867 2.58004H3.88" stroke="#149CBE" stroke-miterlimit="10" strokeLinecap="round" strokeLinejoin="round"/>
<path d="M10.8333 14.6667C11.2936 14.6667 11.6667 14.2936 11.6667 13.8333C11.6667 13.3731 11.2936 13 10.8333 13C10.3731 13 10 13.3731 10 13.8333C10 14.2936 10.3731 14.6667 10.8333 14.6667Z" stroke="#149CBE" stroke-miterlimit="10" strokeLinecap="round" strokeLinejoin="round"/>
<path d="M5.50001 14.6667C5.96024 14.6667 6.33334 14.2936 6.33334 13.8333C6.33334 13.3731 5.96024 13 5.50001 13C5.03977 13 4.66667 13.3731 4.66667 13.8333C4.66667 14.2936 5.03977 14.6667 5.50001 14.6667Z" stroke="#149CBE" stroke-miterlimit="10" strokeLinecap="round" strokeLinejoin="round"/>
<path d="M6 5.33337H14" stroke="#149CBE" stroke-miterlimit="10" strokeLinecap="round" strokeLinejoin="round"/>
</svg>
