<svg width="15" height="15" viewBox="0 0 15 15" fill="none" xmlns="http://www.w3.org/2000/svg">
<g opacity="0.5">
<path d="M13.1253 4.20508C13.1128 4.20508 13.094 4.20508 13.0753 4.20508C9.76903 3.87383 6.46903 3.74883 3.20028 4.08008L1.92528 4.20508C1.66278 4.23008 1.43153 4.04258 1.40653 3.78008C1.38153 3.51758 1.56903 3.29258 1.82528 3.26758L3.10028 3.14258C6.42528 2.80508 9.79403 2.93633 13.169 3.26758C13.4253 3.29258 13.6128 3.52383 13.5878 3.78008C13.569 4.02383 13.3628 4.20508 13.1253 4.20508Z" fill="#444444"/>
<path d="M5.31296 3.575C5.28796 3.575 5.26296 3.575 5.23171 3.56875C4.98171 3.525 4.80671 3.28125 4.85046 3.03125L4.98796 2.2125C5.08796 1.6125 5.22546 0.78125 6.68171 0.78125H8.31921C9.78171 0.78125 9.91921 1.64375 10.013 2.21875L10.1505 3.03125C10.1942 3.2875 10.0192 3.53125 9.76921 3.56875C9.51296 3.6125 9.26921 3.4375 9.23171 3.1875L9.09421 2.375C9.00671 1.83125 8.98796 1.725 8.32546 1.725H6.68796C6.02546 1.725 6.01296 1.8125 5.91921 2.36875L5.77546 3.18125C5.73796 3.4125 5.53796 3.575 5.31296 3.575Z" fill="#444444"/>
<path d="M9.50747 14.2178H5.49497C3.31372 14.2178 3.22622 13.0115 3.15747 12.0365L2.75122 5.74276C2.73247 5.48651 2.93247 5.26151 3.18872 5.24276C3.45122 5.23026 3.66997 5.42401 3.68872 5.68026L4.09497 11.974C4.16372 12.924 4.18872 13.2803 5.49497 13.2803H9.50747C10.82 13.2803 10.845 12.924 10.9075 11.974L11.3137 5.68026C11.3325 5.42401 11.5575 5.23026 11.8137 5.24276C12.07 5.26151 12.27 5.48026 12.2512 5.74276L11.845 12.0365C11.7762 13.0115 11.6887 14.2178 9.50747 14.2178Z" fill="#444444"/>
<path d="M8.53828 10.7812H6.45703C6.20078 10.7812 5.98828 10.5688 5.98828 10.3125C5.98828 10.0563 6.20078 9.84375 6.45703 9.84375H8.53828C8.79453 9.84375 9.00703 10.0563 9.00703 10.3125C9.00703 10.5688 8.79453 10.7812 8.53828 10.7812Z" fill="#444444"/>
<path d="M9.0625 8.28125H5.9375C5.68125 8.28125 5.46875 8.06875 5.46875 7.8125C5.46875 7.55625 5.68125 7.34375 5.9375 7.34375H9.0625C9.31875 7.34375 9.53125 7.55625 9.53125 7.8125C9.53125 8.06875 9.31875 8.28125 9.0625 8.28125Z" fill="#444444"/>
</g>
</svg>
