<svg width="40" height="40" viewBox="0 0 40 40" fill="none" xmlns="http://www.w3.org/2000/svg">
<g clipPath="url(#clip0_780_1371)">
<path d="M21.25 25C20.56 25 20 23.88 20 22.5C20 21.12 20.56 20 21.25 20C21.94 20 22.5 21.12 22.5 22.5C22.5 23.88 21.94 25 21.25 25Z" fill="#D50000"/>
<path d="M12.93 0.305055C12.7948 0.422564 12.6864 0.567757 12.6122 0.7308C12.5381 0.893843 12.4998 1.07093 12.5 1.25006V2.50006H11.25C10.2554 2.50006 9.30161 2.89514 8.59835 3.59841C7.89509 4.30167 7.5 5.25549 7.5 6.25006V37.5001H3.75C3.41848 37.5001 3.10054 37.6317 2.86612 37.8662C2.63169 38.1006 2.5 38.4185 2.5 38.7501C2.5 39.0816 2.63169 39.3995 2.86612 39.6339C3.10054 39.8684 3.41848 40.0001 3.75 40.0001H36.25C36.5815 40.0001 36.8995 39.8684 37.1339 39.6339C37.3683 39.3995 37.5 39.0816 37.5 38.7501C37.5 38.4185 37.3683 38.1006 37.1339 37.8662C36.8995 37.6317 36.5815 37.5001 36.25 37.5001H32.5V3.75006C32.5 3.44889 32.3912 3.15786 32.1937 2.93049C31.9962 2.70313 31.7232 2.55472 31.425 2.51256L13.925 0.0125554C13.7479 -0.0127398 13.5674 0.000283597 13.3957 0.0507452C13.2241 0.101207 13.0653 0.187931 12.93 0.305055ZM11.25 5.00006H12.5V37.5001H10V6.25006C10 5.91853 10.1317 5.60059 10.3661 5.36617C10.6005 5.13175 10.9185 5.00006 11.25 5.00006ZM30 4.83506V37.5001H15V2.69256L30 4.83506Z" fill="black"/>
</g>
<defs>
<clipPath id="clip0_780_1371">
<rect width="40" height="40" fill="white"/>
</clipPath>
</defs>
</svg>
