<svg width="18" height="18" viewBox="0 0 18 18" fill="none" xmlns="http://www.w3.org/2000/svg">
<path d="M16.5 9.75V8.25M5.1 13.5H10.65C11.9101 13.5 12.5402 13.5 13.0215 13.2548C13.4448 13.039 13.789 12.6948 14.0048 12.2715C14.25 11.7902 14.25 11.1601 14.25 9.9V8.1C14.25 6.83988 14.25 6.20982 14.0048 5.72852C13.789 5.30516 13.4448 4.96095 13.0215 4.74524C12.5402 4.5 11.9101 4.5 10.65 4.5H5.1C3.83988 4.5 3.20982 4.5 2.72852 4.74524C2.30516 4.96095 1.96095 5.30516 1.74524 5.72852C1.5 6.20982 1.5 6.83988 1.5 8.1V9.9C1.5 11.1601 1.5 11.7902 1.74524 12.2715C1.96095 12.6948 2.30516 13.039 2.72852 13.2548C3.20982 13.5 3.83988 13.5 5.1 13.5Z" stroke="#444444" strokeLinecap="round" strokeLinejoin="round"/>
</svg>
