<svg width="50" height="50" viewBox="0 0 50 50" fill="none" xmlns="http://www.w3.org/2000/svg">
<path d="M31.2494 47.3952H18.7493C7.43685 47.3952 2.60352 42.5619 2.60352 31.2494V18.7493C2.60352 7.43685 7.43685 2.60352 18.7493 2.60352H31.2494C42.5619 2.60352 47.3952 7.43685 47.3952 18.7493V31.2494C47.3952 42.5619 42.5619 47.3952 31.2494 47.3952ZM18.7493 5.72852C9.14518 5.72852 5.72852 9.14518 5.72852 18.7493V31.2494C5.72852 40.8535 9.14518 44.2702 18.7493 44.2702H31.2494C40.8535 44.2702 44.2702 40.8535 44.2702 31.2494V18.7493C44.2702 9.14518 40.8535 5.72852 31.2494 5.72852H18.7493Z" fill="#444444"/>
<path d="M18.7507 22.3958C15.584 22.3958 13.0215 19.8333 13.0215 16.6667C13.0215 13.5 15.584 10.9375 18.7507 10.9375C21.9173 10.9375 24.4798 13.5 24.4798 16.6667C24.4798 19.8333 21.9173 22.3958 18.7507 22.3958ZM18.7507 14.0625C17.3132 14.0625 16.1465 15.2292 16.1465 16.6667C16.1465 18.1042 17.3132 19.2708 18.7507 19.2708C20.1882 19.2708 21.3548 18.1042 21.3548 16.6667C21.3548 15.2292 20.1882 14.0625 18.7507 14.0625Z" fill="#444444"/>
<path d="M5.56194 41.042C5.06194 41.042 4.56194 40.792 4.27028 40.3545C3.79111 39.6462 3.97861 38.667 4.70778 38.1878L14.9786 31.292C17.2286 29.7712 20.3328 29.9587 22.3744 31.6878L23.0619 32.292C24.1036 33.1878 25.8744 33.1878 26.8953 32.292L35.5619 24.8545C37.7703 22.9587 41.2494 22.9587 43.4786 24.8545L46.8744 27.7712C47.5203 28.3337 47.6036 29.3128 47.0411 29.9795C46.4786 30.6253 45.4994 30.7087 44.8328 30.1462L41.4369 27.2295C40.3953 26.3337 38.6244 26.3337 37.5828 27.2295L28.9161 34.667C26.7078 36.5628 23.2286 36.5628 20.9994 34.667L20.3119 34.0628C19.3536 33.2503 17.7703 33.167 16.7078 33.8962L6.43694 40.792C6.16611 40.9587 5.85361 41.042 5.56194 41.042Z" fill="#444444"/>
</svg>
