<svg width="24" height="24" viewBox="0 0 24 24" fill="none" xmlns="http://www.w3.org/2000/svg">
<path d="M12 14C13.1046 14 14 13.1046 14 12C14 10.8954 13.1046 10 12 10C10.8954 10 10 10.8954 10 12C10 13.1046 10.8954 14 12 14Z" stroke="#149CBE" strokeWidth="1.5"/>
<path d="M5.39899 5.87999L5.64899 5.44599C5.55083 5.38924 5.43631 5.36754 5.3242 5.38443C5.21209 5.40133 5.10905 5.45583 5.03199 5.53899L5.39899 5.87999ZM3.39999 9.34399L2.92199 9.19599C2.88872 9.3042 2.89315 9.4205 2.93457 9.52586C2.97599 9.63122 3.05193 9.7194 3.14999 9.77599L3.39999 9.34399ZM3.39799 14.655L3.14799 14.222C3.04972 14.2786 2.97363 14.367 2.9322 14.4725C2.89077 14.5781 2.88646 14.6946 2.91999 14.803L3.39799 14.655ZM5.39798 18.119L5.03099 18.459C5.10805 18.5421 5.21109 18.5966 5.3232 18.6135C5.43531 18.6304 5.54983 18.6087 5.64798 18.552L5.39798 18.119ZM9.99799 20.774H9.49799C9.49793 20.8875 9.53651 20.9977 9.60739 21.0864C9.67828 21.1751 9.77723 21.237 9.88798 21.262L9.99799 20.774ZM13.999 20.776L14.11 21.264C14.2206 21.2388 14.3193 21.1768 14.39 21.0881C14.4607 20.9995 14.4991 20.8894 14.499 20.776H13.999ZM18.6 18.12L18.35 18.553C18.4481 18.6097 18.5627 18.6314 18.6748 18.6145C18.7869 18.5976 18.8899 18.5431 18.967 18.46L18.6 18.12ZM20.598 14.654L21.076 14.802C21.1093 14.6938 21.1048 14.5775 21.0634 14.4721C21.022 14.3668 20.946 14.2786 20.848 14.222L20.598 14.654ZM20.6 9.34299L20.85 9.77599C20.9482 9.71936 21.0243 9.63101 21.0658 9.52543C21.1072 9.41986 21.1115 9.30334 21.078 9.19499L20.6 9.34299ZM18.6 5.87799L18.967 5.53799C18.8899 5.45483 18.7869 5.40033 18.6748 5.38343C18.5627 5.36654 18.4481 5.38824 18.35 5.44499L18.6 5.87799ZM14 3.22499H14.5C14.4999 3.11176 14.4613 3.00193 14.3907 2.91346C14.32 2.82499 14.2214 2.76313 14.111 2.73799L14 3.22499ZM9.99999 3.22299L9.88899 2.73499C9.77823 2.75997 9.67928 2.8219 9.6084 2.91059C9.53751 2.99928 9.49893 3.10945 9.49898 3.22299H9.99999ZM3.87799 9.49199C4.25318 8.27311 4.89814 7.15442 5.76499 6.21899L5.03199 5.53899C4.06284 6.58437 3.34166 7.83366 2.92199 9.19599L3.87799 9.49199ZM4.63799 16.25C4.32018 15.6995 4.06493 15.1152 3.87699 14.508L2.92099 14.804C3.13165 15.4824 3.41742 16.1351 3.77299 16.75L4.63799 16.25ZM5.76599 17.78C5.33451 17.3136 4.95549 16.8004 4.63799 16.25L3.77299 16.75C4.12763 17.3651 4.54991 17.9387 5.03199 18.46L5.76599 17.78ZM13.889 20.29C12.6455 20.5731 11.3542 20.5724 10.111 20.288L9.88899 21.262C11.2782 21.58 12.7213 21.581 14.111 21.265L13.889 20.29ZM20.122 14.508C19.7468 15.7269 19.1018 16.8456 18.235 17.781L18.968 18.461C19.9371 17.4156 20.6583 16.1653 21.078 14.803L20.122 14.508ZM19.362 7.74999C19.686 8.31299 19.939 8.89699 20.124 9.49199L21.079 9.19599C20.8684 8.5176 20.5826 7.86487 20.227 7.24999L19.362 7.74999ZM18.234 6.21999C18.6658 6.68615 19.0448 7.19938 19.362 7.74999L20.227 7.24999C19.8724 6.63484 19.4501 6.06128 18.968 5.53999L18.234 6.21999ZM10.111 3.70999C11.3545 3.42689 12.6458 3.42758 13.889 3.71199L14.111 2.73799C12.7217 2.41998 11.2787 2.41895 9.88899 2.73499L10.111 3.70999ZM10.5 5.07199V3.22199H9.49999V5.07199H10.5ZM7.24999 6.36999L5.64899 5.44599L5.14899 6.31099L6.74899 7.23599L7.24999 6.36999ZM4.74999 13.298L3.14799 14.222L3.64899 15.088L5.24899 14.164L4.74999 13.298ZM5.24999 9.83399L3.64999 8.91099L3.14999 9.77699L4.74999 10.7L5.24999 9.83399ZM10.5 20.774V18.927H9.49999V20.774H10.5ZM6.74999 16.762L5.14899 17.686L5.64899 18.552L7.24899 17.628L6.74999 16.762ZM18.851 17.687L17.25 16.762L16.75 17.629L18.35 18.553L18.851 17.687ZM14.5 20.777V18.927H13.5V20.777H14.5ZM20.351 8.90999L18.75 9.83399L19.25 10.7L20.85 9.77599L20.351 8.90999ZM20.849 14.221L19.25 13.3L18.75 14.166L20.35 15.089L20.849 14.221ZM14.5 5.07199V3.22499H13.5V5.07199H14.5ZM18.351 5.44599L16.75 6.37099L17.25 7.23699L18.851 6.31199L18.351 5.44599ZM13.5 5.07199C13.5 6.99599 15.583 8.19899 17.25 7.23699L16.75 6.37099C16.5219 6.50268 16.2631 6.57199 15.9997 6.57195C15.7364 6.57191 15.4776 6.50252 15.2496 6.37075C15.0215 6.23898 14.8322 6.04949 14.7006 5.82133C14.569 5.59316 14.4998 5.33538 14.5 5.07199H13.5ZM18.75 9.83499C17.083 10.797 17.083 13.203 18.75 14.165L19.25 13.299C19.022 13.1673 18.8326 12.978 18.701 12.75C18.5694 12.5219 18.5001 12.2633 18.5001 12C18.5001 11.7367 18.5694 11.478 18.701 11.25C18.8326 11.022 19.022 10.8326 19.25 10.701L18.75 9.83499ZM17.25 16.763C15.583 15.801 13.5 17.002 13.5 18.927H14.5C14.5 18.6637 14.5693 18.406 14.701 18.178C14.8326 17.95 15.022 17.7606 15.25 17.629C15.478 17.4973 15.7367 17.428 16 17.428C16.2633 17.428 16.522 17.4973 16.75 17.629L17.25 16.763ZM10.5 18.927C10.5 17.003 8.41699 15.801 6.74999 16.763L7.24999 17.629C7.47808 17.4973 7.73684 17.428 8.00023 17.428C8.26361 17.4281 8.52234 17.4975 8.7504 17.6292C8.97846 17.761 9.1678 17.9505 9.29938 18.1787C9.43097 18.4068 9.50015 18.6656 9.49999 18.929L10.5 18.927ZM5.24999 14.165C6.91699 13.203 6.91699 10.797 5.24999 9.83499L4.74999 10.701C5.74999 11.278 5.74999 12.72 4.74999 13.298L5.24999 14.165ZM9.49999 5.07199C9.4998 5.33521 9.43036 5.59374 9.29863 5.82163C9.16691 6.04951 8.97753 6.23872 8.74954 6.37025C8.52154 6.50178 8.26294 6.571 7.99973 6.57095C7.73651 6.57091 7.47794 6.5016 7.24999 6.36999L6.74999 7.23699C8.41699 8.19899 10.5 6.99699 10.5 5.07199H9.49999Z" fill="#149CBE"/>
<path d="M5.64899 5.44599L5.39899 5.87999L5.03199 5.53899M5.64899 5.44599C5.55083 5.38924 5.43631 5.36754 5.3242 5.38443C5.21209 5.40133 5.10905 5.45583 5.03199 5.53899M5.64899 5.44599L7.24999 6.36999M5.64899 5.44599L5.14899 6.31099L6.74899 7.23599L7.24999 6.36999M5.03199 5.53899L5.76499 6.21899C4.89814 7.15442 4.25318 8.27311 3.87799 9.49199L2.92199 9.19599M5.03199 5.53899C4.06284 6.58437 3.34166 7.83366 2.92199 9.19599M2.92199 9.19599L3.39999 9.34399L3.14999 9.77599C3.05193 9.7194 2.97599 9.63122 2.93457 9.52586C2.89315 9.4205 2.88872 9.3042 2.92199 9.19599ZM3.14799 14.222L3.39799 14.655L2.91999 14.803C2.88646 14.6946 2.89077 14.5781 2.9322 14.4725C2.97363 14.367 3.04972 14.2786 3.14799 14.222ZM3.14799 14.222L4.74999 13.298M3.14799 14.222L3.64899 15.088L5.24899 14.164L4.74999 13.298M18.35 18.553L18.6 18.12L18.967 18.46C18.8899 18.5431 18.7869 18.5976 18.6748 18.6145C18.5627 18.6314 18.4481 18.6097 18.35 18.553ZM18.35 18.553L16.75 17.629M18.35 18.553L18.851 17.687L17.25 16.762L16.75 17.629M20.85 9.77599L20.6 9.34299L21.078 9.19499C21.1115 9.30334 21.1072 9.41986 21.0658 9.52543C21.0243 9.63101 20.9482 9.71936 20.85 9.77599ZM20.85 9.77599L19.25 10.7L18.75 9.83399L20.351 8.90999L20.85 9.77599ZM14.5 3.22499H14L14.111 2.73799M14.5 3.22499C14.4999 3.11176 14.4613 3.00193 14.3907 2.91346C14.32 2.82499 14.2214 2.76313 14.111 2.73799M14.5 3.22499V5.07199M14.5 3.22499H13.5V5.07199M14.111 2.73799L13.889 3.71199C12.6458 3.42758 11.3545 3.42689 10.111 3.70999L9.88899 2.73499M14.111 2.73799C12.7217 2.41998 11.2787 2.41895 9.88899 2.73499M9.88899 2.73499L9.99999 3.22299H9.49898C9.49893 3.10945 9.53751 2.99928 9.6084 2.91059C9.67928 2.8219 9.77823 2.75997 9.88899 2.73499ZM14 5.07199H13.5M13.5 5.07199H14.5M13.5 5.07199C13.5 6.99599 15.583 8.19899 17.25 7.23699M19 13.732L18.75 14.165M18.75 14.165C17.083 13.203 17.083 10.797 18.75 9.83499L19.25 10.701C19.022 10.8326 18.8326 11.022 18.701 11.25C18.5694 11.478 18.5001 11.7367 18.5001 12C18.5001 12.2633 18.5694 12.5219 18.701 12.75C18.8326 12.978 19.022 13.1673 19.25 13.299L18.75 14.165ZM17 17.196L16.75 17.629M16.75 17.629C16.522 17.4973 16.2633 17.428 16 17.428C15.7367 17.428 15.478 17.4973 15.25 17.629C15.022 17.7606 14.8326 17.95 14.701 18.178C14.5693 18.406 14.5 18.6637 14.5 18.927M16.75 17.629L17.25 16.763C15.583 15.801 13.5 17.002 13.5 18.927M4.99999 13.732L5.24999 14.165M5.24999 14.165C6.91699 13.203 6.91699 10.797 5.24999 9.83499L4.74999 10.701C5.74999 11.278 5.74999 12.72 4.74999 13.298M5.24999 14.165L4.74999 13.298M6.99999 6.80399L6.74999 7.23699M6.74999 7.23699L7.24999 6.36999M6.74999 7.23699C8.41699 8.19899 10.5 6.99699 10.5 5.07199M4.63799 16.25C4.32018 15.6995 4.06493 15.1152 3.87699 14.508L2.92099 14.804C3.13165 15.4824 3.41742 16.1351 3.77299 16.75M4.63799 16.25L3.77299 16.75M4.63799 16.25C4.95549 16.8004 5.33451 17.3136 5.76599 17.78L5.03199 18.46C4.54991 17.9387 4.12763 17.3651 3.77299 16.75M19.362 7.74999C19.686 8.31299 19.939 8.89699 20.124 9.49199L21.079 9.19599C20.8684 8.5176 20.5826 7.86487 20.227 7.24999M19.362 7.74999L20.227 7.24999M19.362 7.74999C19.0448 7.19938 18.6658 6.68615 18.234 6.21999L18.968 5.53999C19.4501 6.06128 19.8724 6.63484 20.227 7.24999M10.5 5.07199V3.22199H9.49999V5.07199M10.5 5.07199H9.49999M9.49999 5.07199C9.4998 5.33521 9.43036 5.59374 9.29863 5.82163C9.16691 6.04951 8.97753 6.23872 8.74954 6.37025C8.52154 6.50178 8.26294 6.571 7.99973 6.57095C7.73651 6.57091 7.47794 6.5016 7.24999 6.36999M10.5 18.927V20.774H9.49999V18.927H10.5ZM10.5 18.927C10.5 17.003 8.41699 15.801 6.74999 16.763L7.24999 17.629C7.47808 17.4973 7.73684 17.428 8.00023 17.428C8.26361 17.4281 8.52234 17.4975 8.7504 17.6292C8.97846 17.761 9.1678 17.9505 9.29938 18.1787C9.43097 18.4068 9.50015 18.6656 9.49999 18.929L10.5 18.927ZM14.5 18.927V20.777H13.5V18.927M14.5 18.927H13.5M14.5 5.07199C14.4998 5.33538 14.569 5.59316 14.7006 5.82133C14.8322 6.04949 15.0215 6.23898 15.2496 6.37075C15.4776 6.50252 15.7364 6.57191 15.9997 6.57195C16.2631 6.57199 16.5219 6.50268 16.75 6.37099M16.75 6.37099L18.351 5.44599L18.851 6.31199L17.25 7.23699M16.75 6.37099L17.25 7.23699M5.39798 18.119L5.03099 18.459C5.10805 18.5421 5.21109 18.5966 5.3232 18.6135C5.43531 18.6304 5.54983 18.6087 5.64798 18.552L5.39798 18.119ZM9.99799 20.774H9.49799C9.49793 20.8875 9.53651 20.9977 9.60739 21.0864C9.67828 21.1751 9.77723 21.237 9.88798 21.262L9.99799 20.774ZM13.999 20.776L14.11 21.264C14.2206 21.2388 14.3193 21.1768 14.39 21.0881C14.4607 20.9995 14.4991 20.8894 14.499 20.776H13.999ZM20.598 14.654L21.076 14.802C21.1093 14.6938 21.1048 14.5775 21.0634 14.4721C21.022 14.3668 20.946 14.2786 20.848 14.222L20.598 14.654ZM18.6 5.87799L18.967 5.53799C18.8899 5.45483 18.7869 5.40033 18.6748 5.38343C18.5627 5.36654 18.4481 5.38824 18.35 5.44499L18.6 5.87799ZM13.889 20.29C12.6455 20.5731 11.3542 20.5724 10.111 20.288L9.88899 21.262C11.2782 21.58 12.7213 21.581 14.111 21.265L13.889 20.29ZM20.122 14.508C19.7468 15.7269 19.1018 16.8456 18.235 17.781L18.968 18.461C19.9371 17.4156 20.6583 16.1653 21.078 14.803L20.122 14.508ZM5.24999 9.83399L3.64999 8.91099L3.14999 9.77699L4.74999 10.7L5.24999 9.83399ZM6.74999 16.762L5.14899 17.686L5.64899 18.552L7.24899 17.628L6.74999 16.762ZM20.849 14.221L19.25 13.3L18.75 14.166L20.35 15.089L20.849 14.221Z" stroke="#149CBE" strokeWidth="0.5"/>
</svg>
