<svg width="24" height="24" viewBox="0 0 24 24" fill="none" xmlns="http://www.w3.org/2000/svg">
<path d="M19.7239 4.24939C19.5101 4.11106 19.2655 4.02737 19.0118 4.00569C18.758 3.984 18.5029 4.02498 18.2687 4.12501L10.5945 7.1474C10.4128 7.22134 10.2185 7.25936 10.0224 7.25934H5.10945C4.69711 7.25934 4.30166 7.42314 4.0101 7.71471C3.71853 8.00628 3.55473 8.40173 3.55473 8.81407V8.93845H2V12.6698H3.55473V12.8315C3.56447 13.2373 3.73256 13.6233 4.02308 13.9068C4.3136 14.1903 4.7035 14.349 5.10945 14.3489L6.97512 18.3041C7.10146 18.5705 7.30035 18.7958 7.54896 18.9542C7.79757 19.1126 8.08582 19.1977 8.3806 19.1996H9.16418C9.57436 19.1964 9.96662 19.0311 10.2555 18.7399C10.5444 18.4487 10.7065 18.0551 10.7065 17.6449V14.4981L18.2687 17.5205C18.4547 17.5946 18.653 17.6325 18.8532 17.6325C19.1638 17.6275 19.4663 17.5324 19.7239 17.3588C19.9285 17.2207 20.0972 17.0359 20.2162 16.8196C20.3351 16.6033 20.4009 16.3618 20.408 16.1151V5.53049C20.4068 5.2774 20.3439 5.02841 20.2247 4.80516C20.1055 4.5819 19.9336 4.39112 19.7239 4.24939ZM9.15174 8.81407V12.8315H5.10945V8.81407H9.15174ZM9.15174 17.6449H8.36816L6.83831 14.3489H9.15174V17.6449ZM11.1667 13.018C11.019 12.9426 10.865 12.8802 10.7065 12.8315V8.727C10.8635 8.69461 11.0174 8.64883 11.1667 8.59019L18.8532 5.53049V16.0778L11.1667 13.018ZM20.4453 9.24939V12.3588C20.8576 12.3588 21.2531 12.195 21.5446 11.9035C21.8362 11.6119 22 11.2165 22 10.8041C22 10.3918 21.8362 9.99633 21.5446 9.70476C21.2531 9.41319 20.8576 9.24939 20.4453 9.24939Z" fill="#149CBE"/>
</svg>
