<svg width="50" height="22" viewBox="0 0 50 22" fill="none" xmlns="http://www.w3.org/2000/svg">
<g clipPath="url(#clip0_35_941)">
<path d="M8.42585 5.22655C7.79772 4.79962 6.97807 4.58563 5.96688 4.58563H2.05211C1.74213 4.58563 1.57086 4.73891 1.53833 5.04517L-0.0519235 14.9147C-0.0684513 15.0117 -0.0439214 15.1003 0.0214418 15.1809C0.0864311 15.2617 0.168173 15.3018 0.266068 15.3018H2.12556C2.4517 15.3018 2.63096 15.1489 2.66387 14.8423L3.10421 12.1814C3.12029 12.0525 3.17765 11.9476 3.27554 11.8669C3.37336 11.7863 3.49571 11.7336 3.64252 11.7095C3.78933 11.6855 3.92776 11.6734 4.05848 11.6734C4.18883 11.6734 4.34372 11.6816 4.52343 11.6977C4.70269 11.7137 4.81697 11.7216 4.86595 11.7216C6.26864 11.7216 7.36965 11.3308 8.16904 10.5484C8.96805 9.76641 9.36801 8.682 9.36801 7.29473C9.36801 6.34327 9.05369 5.65392 8.42585 5.22632V5.22655ZM6.40745 8.19007C6.32563 8.75461 6.11383 9.12535 5.77131 9.3028C5.42872 9.48048 4.93939 9.56891 4.30333 9.56891L3.49586 9.59302L3.9119 7.00459C3.94436 6.82735 4.05033 6.73863 4.22989 6.73863H4.69491C5.34705 6.73863 5.82037 6.83157 6.11398 7.01672C6.40745 7.20231 6.50534 7.59352 6.40745 8.19007Z" fill="#003087"/>
<path d="M49.7386 4.58557H47.9283C47.7483 4.58557 47.6424 4.6743 47.6101 4.85183L46.0197 14.9151L45.9952 14.9635C45.9952 15.0445 46.0278 15.1207 46.0932 15.1933C46.1581 15.2658 46.24 15.3021 46.3378 15.3021H47.9529C48.2623 15.3021 48.4336 15.1492 48.4667 14.8426L50.057 4.94862V4.92459C50.0569 4.6987 49.9506 4.58587 49.7386 4.58587V4.58557Z" fill="#009CDE"/>
<path d="M27.865 8.48074C27.865 8.40029 27.8323 8.32354 27.7675 8.25115C27.702 8.17862 27.6286 8.14209 27.5472 8.14209H25.6633C25.4835 8.14209 25.3367 8.22313 25.2227 8.38395L22.6293 12.1578L21.5527 8.52924C21.4707 8.27141 21.2916 8.14209 21.0145 8.14209H19.1791C19.0974 8.14209 19.024 8.17847 18.9592 8.25115C18.8938 8.32354 18.8613 8.40044 18.8613 8.48074C18.8613 8.5132 19.0204 8.98878 19.3384 9.90801C19.6564 10.8275 19.9989 11.8194 20.3659 12.8838C20.733 13.948 20.9245 14.5128 20.9409 14.5767C19.6033 16.3833 18.9347 17.3508 18.9347 17.4796C18.9347 17.6895 19.0406 17.7942 19.2528 17.7942H21.1367C21.3161 17.7942 21.4628 17.7137 21.5772 17.5524L27.8164 8.64999C27.8488 8.61804 27.865 8.56185 27.865 8.48066V8.48074Z" fill="#003087"/>
<path d="M45.4084 8.14204H43.5489C43.3203 8.14204 43.1821 8.40822 43.1331 8.94052C42.7085 8.29561 41.9342 7.97272 40.8085 7.97272C39.6341 7.97272 38.6349 8.40823 37.8114 9.27909C36.9875 10.15 36.5758 11.1743 36.5758 12.3515C36.5758 13.3031 36.8572 14.061 37.4198 14.6253C37.9825 15.1901 38.7368 15.472 39.6833 15.472C40.1562 15.472 40.6374 15.375 41.1267 15.1817C41.616 14.9882 41.999 14.7303 42.2768 14.4076C42.2768 14.4238 42.2602 14.4961 42.2279 14.6251C42.195 14.7543 42.1789 14.8514 42.1789 14.9153C42.1789 15.1737 42.2846 15.3023 42.497 15.3023H44.1854C44.4949 15.3023 44.6746 15.1494 44.7233 14.8428L45.7267 8.52904C45.7427 8.43218 45.7184 8.34367 45.6532 8.26293C45.5876 8.18249 45.5063 8.14204 45.4084 8.14204ZM42.2155 12.9078C41.7996 13.311 41.2979 13.5125 40.7107 13.5125C40.2375 13.5125 39.8545 13.3837 39.5608 13.1255C39.267 12.868 39.1202 12.5132 39.1202 12.0611C39.1202 11.4648 39.3241 10.9604 39.7321 10.5492C40.1393 10.138 40.6455 9.93243 41.249 9.93243C41.7053 9.93243 42.0846 10.0654 42.3867 10.3314C42.6882 10.5976 42.8395 10.9645 42.8395 11.4323C42.8394 12.0128 42.6314 12.5048 42.2155 12.9078Z" fill="#009CDE"/>
<path d="M17.6133 8.14204H15.7538C15.5251 8.14204 15.3867 8.40822 15.3377 8.94052C14.8973 8.29561 14.1224 7.97272 13.0133 7.97272C11.8388 7.97272 10.8396 8.40823 10.016 9.27909C9.19216 10.15 8.78046 11.1743 8.78046 12.3515C8.78046 13.3031 9.06188 14.061 9.62465 14.6253C10.1874 15.1901 10.9416 15.472 11.8878 15.472C12.3443 15.472 12.8176 15.375 13.3069 15.1817C13.7962 14.9882 14.1877 14.7303 14.4813 14.4076C14.4159 14.6009 14.3834 14.7703 14.3834 14.9153C14.3834 15.1737 14.4894 15.3023 14.7015 15.3023H16.3897C16.6994 15.3023 16.8791 15.1494 16.9281 14.8428L17.9312 8.52904C17.9472 8.43218 17.9229 8.34367 17.8578 8.26293C17.7925 8.18249 17.7111 8.14204 17.6133 8.14204ZM14.4203 12.9198C14.0043 13.3153 13.4943 13.5125 12.8912 13.5125C12.4178 13.5125 12.0386 13.3837 11.7534 13.1255C11.4678 12.868 11.3251 12.5132 11.3251 12.0611C11.3251 11.4648 11.5289 10.9604 11.9369 10.5492C12.3444 10.138 12.8501 9.93236 13.4539 9.93236C13.9103 9.93236 14.2896 10.0654 14.5917 10.3314C14.8932 10.5976 15.0443 10.9645 15.0443 11.4323C15.0442 12.029 14.8363 12.5251 14.4203 12.9198Z" fill="#003087"/>
<path d="M36.221 5.22655C35.5929 4.79962 34.7735 4.58563 33.7621 4.58563H29.8717C29.5454 4.58563 29.3658 4.73891 29.3334 5.04517L27.743 14.9147C27.7265 15.0117 27.751 15.1003 27.8165 15.1809C27.8812 15.2617 27.9631 15.3018 28.061 15.3018H30.0672C30.263 15.3018 30.3934 15.1971 30.4588 14.9874L30.8992 12.1814C30.9155 12.0525 30.9725 11.9476 31.0706 11.8669C31.1685 11.7863 31.2907 11.7336 31.4376 11.7095C31.5843 11.6855 31.7227 11.6734 31.8535 11.6734C31.9839 11.6734 32.1387 11.6816 32.3183 11.6977C32.4976 11.7137 32.6122 11.7216 32.6608 11.7216C34.0638 11.7216 35.1646 11.3308 35.964 10.5484C36.7633 9.76641 37.1629 8.682 37.1629 7.29473C37.163 6.34327 36.8488 5.65385 36.221 5.22632V5.22655ZM33.7131 9.20594C33.3542 9.4478 32.8159 9.56869 32.0984 9.56869L31.3153 9.59294L31.7312 7.00444C31.7635 6.82728 31.8696 6.7384 32.0492 6.7384H32.4895C32.8484 6.7384 33.1338 6.7546 33.3462 6.78676C33.5578 6.81915 33.7621 6.91978 33.9578 7.08903C34.1536 7.25843 34.2514 7.5045 34.2514 7.82688C34.2514 8.50447 34.0717 8.96386 33.7131 9.20594Z" fill="#009CDE"/>
</g>
<defs>
<clipPath id="clip0_35_941">
<rect width="50" height="21.4216" fill="white" transform="translate(0 0.119934)"/>
</clipPath>
</defs>
</svg>
