<svg width="40" height="40" viewBox="0 0 40 40" fill="none" xmlns="http://www.w3.org/2000/svg">
<path fill-rule="evenodd" clip-rule="evenodd" d="M30 17H22.374L26.92 6.394C26.9852 6.24183 27.0116 6.07584 26.9969 5.91093C26.9821 5.74602 26.9267 5.58736 26.8355 5.44917C26.7443 5.31099 26.6202 5.19761 26.4744 5.11921C26.3286 5.04082 26.1655 4.99985 26 5H16C15.8041 4.99983 15.6126 5.05716 15.449 5.16489C15.2855 5.27262 15.1571 5.426 15.08 5.606L9.07998 19.606C9.01474 19.7582 8.98831 19.9242 9.00306 20.0891C9.01781 20.254 9.07327 20.4126 9.16447 20.5508C9.25566 20.689 9.37974 20.8024 9.52557 20.8808C9.6714 20.9592 9.83441 21.0001 9.99998 21H14.948L9.07197 35.628C8.67197 36.622 9.90598 37.464 10.686 36.728L20.734 27.242L30.65 18.76C30.8053 18.6271 30.9163 18.4499 30.9678 18.252C31.0193 18.0542 31.0089 17.8453 30.9381 17.6536C30.8673 17.4618 30.7394 17.2963 30.5717 17.1795C30.4039 17.0626 30.2044 17 30 17ZM20.858 19H27.292L19.396 25.756L12.626 32.146L17.356 20.372C17.4168 20.2203 17.4395 20.056 17.422 19.8934C17.4046 19.7309 17.3476 19.5751 17.2561 19.4397C17.1645 19.3043 17.0411 19.1935 16.8967 19.1168C16.7524 19.0401 16.5914 19 16.428 19H11.516L16.66 7H24.484L19.938 17.606C19.8727 17.7582 19.8463 17.9242 19.8611 18.0891C19.8758 18.254 19.9313 18.4126 20.0225 18.5508C20.1137 18.689 20.2377 18.8024 20.3836 18.8808C20.5294 18.9592 20.6924 19.0001 20.858 19Z" fill="black"/>
<path d="M2.29999 3.75608C2.10717 3.56301 1.99896 3.30124 1.99915 3.02838C1.99933 2.75551 2.10791 2.4939 2.30099 2.30108C2.49406 2.10827 2.75583 2.00006 3.02869 2.00024C3.30156 2.00043 3.56317 2.10901 3.75599 2.30208L37.698 36.2441C37.8908 36.4369 37.9991 36.6984 37.9991 36.9711C37.9991 37.2438 37.8908 37.5053 37.698 37.6981C37.5052 37.8909 37.2437 37.9992 36.971 37.9992C36.6983 37.9992 36.4368 37.8909 36.244 37.6981L2.29999 3.75608Z" fill="#D50000"/>
</svg>
