<svg width="24" height="24" viewBox="0 0 24 24" fill="none" xmlns="http://www.w3.org/2000/svg">
<path d="M15.2349 2L22.1674 5.46627V13.1965L20.9069 12.5662V6.87445L15.8651 9.39537V11.936L14.6046 12.5662V9.39537L9.56278 6.87445V9.1098L8.30231 8.47957V5.46627L15.2349 2ZM15.2349 8.30231L16.9778 7.4259L12.4185 4.81635L10.3407 5.86017L15.2349 8.30231ZM18.3368 6.75628L20.129 5.86017L15.2349 3.40817L13.7676 4.14673L18.3368 6.75628ZM13.3442 13.1965L12.0837 13.8267V13.8168L8.30231 15.7075V20.1881L12.0837 18.2875V19.7056L7.67208 21.9114L2 19.0655V12.4087L7.67208 9.57262L13.3442 12.4087V13.1965ZM7.04185 20.1881V15.7075L3.26046 13.8168V18.2875L7.04185 20.1881ZM7.67208 14.6145L11.3058 12.8026L7.67208 10.9808L4.0384 12.8026L7.67208 14.6145ZM13.3442 14.6046L17.7558 12.3988L22.1674 14.6046V19.7942L17.7558 22L13.3442 19.7942V14.6046ZM17.1256 20.2767V17.2733L14.6046 16.0128V19.0162L17.1256 20.2767ZM20.9069 19.0162V16.0128L18.386 17.2733V20.2767L20.9069 19.0162ZM17.7558 16.1802L20.129 14.9887L17.7558 13.807L15.3826 14.9887L17.7558 16.1802Z" fill="#149CBE"/>
</svg>
