<svg width="18" height="18" viewBox="0 0 18 18" fill="none" xmlns="http://www.w3.org/2000/svg">
<path d="M11.25 17.0625H6.75C2.6775 17.0625 0.9375 15.3225 0.9375 11.25V6.75C0.9375 2.6775 2.6775 0.9375 6.75 0.9375H11.25C15.3225 0.9375 17.0625 2.6775 17.0625 6.75V11.25C17.0625 15.3225 15.3225 17.0625 11.25 17.0625ZM6.75 2.0625C3.2925 2.0625 2.0625 3.2925 2.0625 6.75V11.25C2.0625 14.7075 3.2925 15.9375 6.75 15.9375H11.25C14.7075 15.9375 15.9375 14.7075 15.9375 11.25V6.75C15.9375 3.2925 14.7075 2.0625 11.25 2.0625H6.75Z" fill="#444444"/>
<path d="M5.33249 10.83V12.8925V10.83Z" fill="#444444"/>
<path d="M13.125 9C13.125 11.28 11.28 13.125 9 13.125C6.72 13.125 5.33249 10.83 5.33249 10.83M5.33249 10.83H7.1925M5.33249 10.83V12.8925M4.875 9C4.875 6.72 6.705 4.875 9 4.875C11.7525 4.875 13.125 7.17 13.125 7.17M13.125 7.17V5.1075M13.125 7.17H11.295" stroke="#444444" strokeLinecap="round" strokeLinejoin="round"/>
</svg>
