<svg width="40" height="40" viewBox="0 0 40 40" fill="none" xmlns="http://www.w3.org/2000/svg">
<path d="M8 7V33H32V7H8ZM9.38462 8.03084H25.5385V27.3877H9.38462V8.03084ZM26.7692 8.94714H30.6154V12.7269H26.7692V8.94714ZM28.1538 9.97797V11.696H29.2308V9.97797H28.1538ZM12.5385 10.3789V11.696H11.3077V12.7269H23.6154V11.696H18.6923V9.9207L17.4615 10.2643L17 11.696H15V10.3789H12.5385ZM27.4615 13.5286H29.9231V14.5595H27.4615V13.5286ZM20.5385 14.1471C20.1231 14.1471 19.7615 14.3189 19.5538 14.5308C19.3308 14.8115 19.2077 15.0806 19.2385 15.3612H11.3077V16.3921H23.6154V15.3612H21.8385C21.8615 15.0692 21.7154 14.7313 21.5231 14.5308C21.3154 14.3189 20.9538 14.1471 20.5385 14.1471ZM27.4615 15.3612H29.9231V16.3921H27.4615V15.3612ZM12.5385 17.7093V19.0264H11.3077V20.0573H23.6154V19.0264H21.7692V17.7093H19.9231V19.0264H17.4615V17.2511H16.2308V19.0264H13.7692V18.1674L12.5385 17.7093ZM13.1538 21.2256C12.6846 21.2256 12.3231 21.4489 12.1308 21.6837C11.8846 22.033 11.8231 22.3423 11.8615 22.6916H11.3077V23.7225H23.6154V22.6916H18.6923V21.3744H16.2308V22.6916H14.4462C14.4923 22.348 14.3923 21.9471 14.1769 21.6837C13.9846 21.4489 13.6231 21.2256 13.1538 21.2256ZM27.4615 25.4405H29.9231V26.4714H27.4615V25.4405ZM9.38462 28.4185H25.5385V31.9692H9.38462V28.4185ZM10.7692 29.4493V30.9383H24.1538V29.4493H10.7692Z" fill="black"/>
<circle cx="6.855" cy="6.855" r="6.855" fill="white"/>
<path d="M6.85714 0C3.08571 0 0 3.08571 0 6.85714C0 10.6286 3.08571 13.7143 6.85714 13.7143C10.6286 13.7143 13.7143 10.6286 13.7143 6.85714C13.7143 3.08571 10.6286 0 6.85714 0ZM6.85714 1.52381C8.0381 1.52381 9.14286 1.94286 10.0571 2.59048L2.59048 10.0571C1.94286 9.14286 1.52381 8.0381 1.52381 6.85714C1.52381 3.92381 3.92381 1.52381 6.85714 1.52381ZM6.85714 12.1905C5.67619 12.1905 4.57143 11.7714 3.65714 11.1238L11.1238 3.65714C11.7714 4.57143 12.1905 5.67619 12.1905 6.85714C12.1905 9.79048 9.79048 12.1905 6.85714 12.1905Z" fill="#D50000"/>
</svg>
