<svg width="18" height="18" viewBox="0 0 18 18" fill="none" xmlns="http://www.w3.org/2000/svg">
<path d="M1.5 7.3125C1.1925 7.3125 0.9375 7.0575 0.9375 6.75V4.875C0.9375 2.7 2.7075 0.9375 4.875 0.9375H6.75C7.0575 0.9375 7.3125 1.1925 7.3125 1.5C7.3125 1.8075 7.0575 2.0625 6.75 2.0625H4.875C3.3225 2.0625 2.0625 3.3225 2.0625 4.875V6.75C2.0625 7.0575 1.8075 7.3125 1.5 7.3125Z" fill="#222222"/>
<path d="M16.5 7.3125C16.1925 7.3125 15.9375 7.0575 15.9375 6.75V4.875C15.9375 3.3225 14.6775 2.0625 13.125 2.0625H11.25C10.9425 2.0625 10.6875 1.8075 10.6875 1.5C10.6875 1.1925 10.9425 0.9375 11.25 0.9375H13.125C15.2925 0.9375 17.0625 2.7 17.0625 4.875V6.75C17.0625 7.0575 16.8075 7.3125 16.5 7.3125Z" fill="#222222"/>
<path d="M13.125 17.0625H12C11.6925 17.0625 11.4375 16.8075 11.4375 16.5C11.4375 16.1925 11.6925 15.9375 12 15.9375H13.125C14.6775 15.9375 15.9375 14.6775 15.9375 13.125V12C15.9375 11.6925 16.1925 11.4375 16.5 11.4375C16.8075 11.4375 17.0625 11.6925 17.0625 12V13.125C17.0625 15.3 15.2925 17.0625 13.125 17.0625Z" fill="#222222"/>
<path d="M6.75 17.0625H4.875C2.7075 17.0625 0.9375 15.3 0.9375 13.125V11.25C0.9375 10.9425 1.1925 10.6875 1.5 10.6875C1.8075 10.6875 2.0625 10.9425 2.0625 11.25V13.125C2.0625 14.6775 3.3225 15.9375 4.875 15.9375H6.75C7.0575 15.9375 7.3125 16.1925 7.3125 16.5C7.3125 16.8075 7.0575 17.0625 6.75 17.0625Z" fill="#222222"/>
<path d="M6.75 8.4375H5.25C4.1925 8.4375 3.5625 7.8075 3.5625 6.75V5.25C3.5625 4.1925 4.1925 3.5625 5.25 3.5625H6.75C7.8075 3.5625 8.4375 4.1925 8.4375 5.25V6.75C8.4375 7.8075 7.8075 8.4375 6.75 8.4375ZM5.25 4.6875C4.8075 4.6875 4.6875 4.8075 4.6875 5.25V6.75C4.6875 7.1925 4.8075 7.3125 5.25 7.3125H6.75C7.1925 7.3125 7.3125 7.1925 7.3125 6.75V5.25C7.3125 4.8075 7.1925 4.6875 6.75 4.6875H5.25Z" fill="#222222"/>
<path d="M12.75 8.4375H11.25C10.1925 8.4375 9.5625 7.8075 9.5625 6.75V5.25C9.5625 4.1925 10.1925 3.5625 11.25 3.5625H12.75C13.8075 3.5625 14.4375 4.1925 14.4375 5.25V6.75C14.4375 7.8075 13.8075 8.4375 12.75 8.4375ZM11.25 4.6875C10.8075 4.6875 10.6875 4.8075 10.6875 5.25V6.75C10.6875 7.1925 10.8075 7.3125 11.25 7.3125H12.75C13.1925 7.3125 13.3125 7.1925 13.3125 6.75V5.25C13.3125 4.8075 13.1925 4.6875 12.75 4.6875H11.25Z" fill="#222222"/>
<path d="M6.75 14.4375H5.25C4.1925 14.4375 3.5625 13.8075 3.5625 12.75V11.25C3.5625 10.1925 4.1925 9.5625 5.25 9.5625H6.75C7.8075 9.5625 8.4375 10.1925 8.4375 11.25V12.75C8.4375 13.8075 7.8075 14.4375 6.75 14.4375ZM5.25 10.6875C4.8075 10.6875 4.6875 10.8075 4.6875 11.25V12.75C4.6875 13.1925 4.8075 13.3125 5.25 13.3125H6.75C7.1925 13.3125 7.3125 13.1925 7.3125 12.75V11.25C7.3125 10.8075 7.1925 10.6875 6.75 10.6875H5.25Z" fill="#222222"/>
<path d="M12.75 14.4375H11.25C10.1925 14.4375 9.5625 13.8075 9.5625 12.75V11.25C9.5625 10.1925 10.1925 9.5625 11.25 9.5625H12.75C13.8075 9.5625 14.4375 10.1925 14.4375 11.25V12.75C14.4375 13.8075 13.8075 14.4375 12.75 14.4375ZM11.25 10.6875C10.8075 10.6875 10.6875 10.8075 10.6875 11.25V12.75C10.6875 13.1925 10.8075 13.3125 11.25 13.3125H12.75C13.1925 13.3125 13.3125 13.1925 13.3125 12.75V11.25C13.3125 10.8075 13.1925 10.6875 12.75 10.6875H11.25Z" fill="#222222"/>
</svg>
