<svg width="40" height="40" viewBox="0 0 40 40" fill="none" xmlns="http://www.w3.org/2000/svg">
<path d="M18.3283 9.99658C20.4543 9.99668 22.5275 10.6589 24.2598 11.8913C25.9921 13.1236 27.2977 14.8649 27.995 16.8732L28.12 17.2616L28.1933 17.5016H32.0767C33.2435 17.5019 34.3663 17.9473 35.2161 18.747C36.0659 19.5466 36.5787 20.6402 36.65 21.8049L36.6583 22.0832V23.7499C36.6579 24.4816 36.3825 25.1864 35.8867 25.7245C35.3908 26.2626 34.7109 26.5947 33.9817 26.6549L33.7433 26.6632H31.0333L31.435 27.6366C31.7127 28.311 31.7276 29.0651 31.4768 29.75C31.226 30.4349 30.7276 31.001 30.08 31.3366L29.8517 31.4432C29.5874 31.5511 29.309 31.6207 29.025 31.6499L28.74 31.6632H25.7617C25.2526 31.663 24.7524 31.5295 24.3109 31.276C23.8694 31.0225 23.5019 30.6578 23.245 30.2182L23.125 29.9899L22.2267 28.0849L22.3167 28.0732C19.9833 28.3832 17.6217 28.4199 15.2817 28.1832L14.4533 28.0882L13.5617 29.9816C13.3261 30.4823 12.953 30.9057 12.4858 31.2023C12.0186 31.4988 11.4767 31.6564 10.9233 31.6566H7.91668C7.43785 31.6564 6.96644 31.5383 6.54405 31.3128C6.12167 31.0872 5.76131 30.7611 5.49479 30.3633C5.22827 29.9655 5.06379 29.5082 5.01587 29.0318C4.96795 28.5554 5.03806 28.0745 5.22002 27.6316L5.94168 25.8816C5.14259 25.4009 4.48158 24.7216 4.02303 23.9096C3.56447 23.0976 3.324 22.1807 3.32502 21.2482C3.32543 20.9465 3.435 20.655 3.63351 20.4277C3.83201 20.2004 4.10604 20.0526 4.40502 20.0116L4.57502 19.9999H7.70835L8.53668 17.2616C9.17353 15.1605 10.4692 13.3198 12.2324 12.0116C13.9956 10.7034 16.1328 9.99695 18.3283 9.99658ZM29.6233 26.1516C28.3367 26.6682 27.0278 27.0932 25.6967 27.4266L24.7817 27.6416L25.385 28.9249C25.4254 29.0114 25.4942 29.0814 25.58 29.1232L25.6683 29.1532L25.7617 29.1649H28.74C28.7989 29.1649 28.8572 29.1523 28.9109 29.1281C28.9646 29.1039 29.0125 29.0686 29.0516 29.0245C29.0907 28.9804 29.1199 28.9285 29.1375 28.8723C29.155 28.8161 29.1604 28.7567 29.1533 28.6982L29.125 28.5899L28.3283 26.6632H28.2567L28.9417 26.4166L29.6233 26.1516ZM7.03668 26.1516L7.68668 26.4049L8.33335 26.6399L7.53002 28.5832C7.50398 28.6466 7.49397 28.7155 7.50089 28.7836C7.5078 28.8518 7.53143 28.9172 7.56967 28.9741C7.60791 29.031 7.65958 29.0775 7.72011 29.1096C7.78064 29.1418 7.84816 29.1585 7.91668 29.1582H10.9233L11.0183 29.1466C11.0798 29.1324 11.1372 29.1045 11.1863 29.065C11.2353 29.0254 11.2748 28.9753 11.3017 28.9182L11.9 27.6466L11.9733 27.6632C10.2875 27.3027 8.63579 26.7975 7.03668 26.1532M18.3283 12.4966C16.7314 12.4971 15.1738 12.9919 13.8695 13.9131C12.5651 14.8343 11.5778 16.1368 11.0433 17.6416L10.93 17.9866L9.03668 24.2366L9.30835 24.3349C14.9248 26.2628 21.0112 26.3405 26.675 24.5566L27.3517 24.3349L27.6217 24.2366L25.7283 17.9866C25.2827 16.5172 24.4098 15.2138 23.2207 14.2423C22.0317 13.2708 20.5804 12.6753 19.0517 12.5316L18.6917 12.5049L18.3283 12.4966ZM6.70002 23.3299L6.95168 22.4966L6.10668 22.4999L6.14835 22.5866C6.29279 22.8644 6.47779 23.1121 6.70002 23.3299ZM28.95 19.9999L30.21 24.1632L33.7433 24.1649C33.837 24.1648 33.9279 24.1332 34.0014 24.0752C34.0748 24.0171 34.1266 23.936 34.1483 23.8449L34.16 23.7482V22.0832C34.1598 21.5678 33.9686 21.0707 33.6232 20.688C33.2778 20.3054 32.8028 20.0644 32.29 20.0116L32.0767 20.0016L28.95 19.9999Z" fill="black"/>
</svg>
