<svg width="13" height="13" viewBox="0 0 13 13" fill="none" xmlns="http://www.w3.org/2000/svg">
<rect width="10.5319" height="10.5319" fill="white"/>
<path d="M6.58272 9.98364H3.94975C1.56691 9.98364 0.548828 8.96556 0.548828 6.58272V3.94975C0.548828 1.56691 1.56691 0.548828 3.94975 0.548828H6.58272C8.96556 0.548828 9.98364 1.56691 9.98364 3.94975V6.58272C9.98364 8.96556 8.96556 9.98364 6.58272 9.98364ZM3.94975 1.20707C1.92675 1.20707 1.20707 1.92675 1.20707 3.94975V6.58272C1.20707 8.60572 1.92675 9.3254 3.94975 9.3254H6.58272C8.60572 9.3254 9.3254 8.60572 9.3254 6.58272V3.94975C9.3254 1.92675 8.60572 1.20707 6.58272 1.20707H3.94975Z" fill="#222222"/>
<path d="M3.94897 4.71727C3.28195 4.71727 2.74219 4.17751 2.74219 3.51049C2.74219 2.84347 3.28195 2.30371 3.94897 2.30371C4.61599 2.30371 5.15575 2.84347 5.15575 3.51049C5.15575 4.17751 4.61599 4.71727 3.94897 4.71727ZM3.94897 2.96195C3.64617 2.96195 3.40043 3.2077 3.40043 3.51049C3.40043 3.81328 3.64617 4.05903 3.94897 4.05903C4.25176 4.05903 4.4975 3.81328 4.4975 3.51049C4.4975 3.2077 4.25176 2.96195 3.94897 2.96195Z" fill="#222222"/>
<path d="M1.17152 8.64474C1.0662 8.64474 0.960882 8.59209 0.899446 8.49993C0.798516 8.35073 0.83801 8.14448 0.9916 8.04355L3.15502 6.59103C3.62896 6.27068 4.28281 6.31018 4.71287 6.6744L4.85768 6.80166C5.07709 6.99036 5.4501 6.99036 5.66512 6.80166L7.49065 5.23505C7.95581 4.83571 8.68865 4.83571 9.1582 5.23505L9.87349 5.84941C10.0095 5.96789 10.0271 6.17414 9.9086 6.31457C9.79011 6.4506 9.58386 6.46816 9.44344 6.34967L8.72815 5.73531C8.50873 5.54662 8.13573 5.54662 7.91631 5.73531L6.09079 7.30193C5.62563 7.70126 4.89279 7.70126 4.42324 7.30193L4.27843 7.17467C4.07656 7.00353 3.74306 6.98597 3.51925 7.13956L1.35583 8.59208C1.29878 8.62719 1.23296 8.64474 1.17152 8.64474Z" fill="#222222"/>
<rect x="2.10547" y="2.10645" width="10.5319" height="10.5319" fill="white"/>
<path d="M8.68819 12.0901H6.05522C3.67238 12.0901 2.6543 11.072 2.6543 8.68917V6.05619C2.6543 3.67336 3.67238 2.65527 6.05522 2.65527H8.68819C11.071 2.65527 12.0891 3.67336 12.0891 6.05619V8.68917C12.0891 11.072 11.071 12.0901 8.68819 12.0901ZM6.05522 3.31352C4.03222 3.31352 3.31254 4.03319 3.31254 6.05619V8.68917C3.31254 10.7122 4.03222 11.4318 6.05522 11.4318H8.68819C10.7112 11.4318 11.4309 10.7122 11.4309 8.68917V6.05619C11.4309 4.03319 10.7112 3.31352 8.68819 3.31352H6.05522Z" fill="#222222"/>
<path d="M6.05444 6.82469C5.38742 6.82469 4.84766 6.28493 4.84766 5.61791C4.84766 4.95089 5.38742 4.41113 6.05444 4.41113C6.72145 4.41113 7.26121 4.95089 7.26121 5.61791C7.26121 6.28493 6.72145 6.82469 6.05444 6.82469ZM6.05444 5.06938C5.75164 5.06938 5.5059 5.31512 5.5059 5.61791C5.5059 5.9207 5.75164 6.16645 6.05444 6.16645C6.35723 6.16645 6.60297 5.9207 6.60297 5.61791C6.60297 5.31512 6.35723 5.06938 6.05444 5.06938Z" fill="#222222"/>
<path d="M3.27699 10.7522C3.17167 10.7522 3.06635 10.6995 3.00491 10.6074C2.90398 10.4582 2.94348 10.2519 3.09707 10.151L5.26049 8.69845C5.73443 8.3781 6.38828 8.4176 6.81833 8.78183L6.96315 8.90909C7.18256 9.09778 7.55557 9.09778 7.77059 8.90909L9.59612 7.34247C10.0613 6.94314 10.7941 6.94314 11.2637 7.34247L11.979 7.95683C12.115 8.07531 12.1325 8.28156 12.0141 8.42199C11.8956 8.55802 11.6893 8.57558 11.5489 8.45709L10.8336 7.84273C10.6142 7.65404 10.2412 7.65404 10.0218 7.84273L8.19626 9.40935C7.7311 9.80868 6.99825 9.80868 6.52871 9.40935L6.38389 9.28209C6.18203 9.11095 5.84852 9.09339 5.62472 9.24698L3.4613 10.6995C3.40425 10.7346 3.33842 10.7522 3.27699 10.7522Z" fill="#222222"/>
</svg>
