<svg width="40" height="40" viewBox="0 0 40 40" fill="none" xmlns="http://www.w3.org/2000/svg">
<path d="M22.6 4.96C20.931 4.29231 19.069 4.29231 17.4 4.96L5.886 9.57C5.32982 9.79243 4.85296 10.1763 4.51683 10.6721C4.1807 11.1679 4.0007 11.753 4 12.352V27.644C3.9999 28.2437 4.17953 28.8297 4.51571 29.3263C4.85189 29.8229 5.32919 30.2073 5.886 30.43L17.4 35.036C18.2737 35.3858 19.209 35.5559 20.15 35.536C19.664 34.8784 19.2527 34.1687 18.924 33.42C18.6579 33.3614 18.397 33.2811 18.144 33.18L6.628 28.574C6.44231 28.4996 6.28321 28.3712 6.17125 28.2054C6.0593 28.0396 5.99965 27.844 6 27.644V12.476L19 17.676V24.41C19.5009 23.3209 20.1765 22.3211 21 21.45V17.676L34 12.476V19.2C34.7173 19.568 35.384 20.006 36 20.514V12.354C36.0001 11.7543 35.8205 11.1683 35.4843 10.6717C35.1481 10.1751 34.6708 9.79068 34.114 9.568L22.6 4.96ZM18.144 6.82C19.3361 6.34315 20.6659 6.34315 21.858 6.82L32.308 11L27.75 12.82L15.442 7.9L18.144 6.82ZM12.75 8.974L25.058 13.896L20 15.922L7.692 10.998L12.75 8.974ZM38 29C38 31.3869 37.0518 33.6761 35.364 35.364C33.6761 37.0518 31.3869 38 29 38C26.6131 38 24.3239 37.0518 22.636 35.364C20.9482 33.6761 20 31.3869 20 29C20 26.6131 20.9482 24.3239 22.636 22.636C24.3239 20.9482 26.6131 20 29 20C31.3869 20 33.6761 20.9482 35.364 22.636C37.0518 24.3239 38 26.6131 38 29ZM32.708 26.708C32.8958 26.5202 33.0013 26.2655 33.0013 26C33.0013 25.7344 32.8958 25.4798 32.708 25.292C32.5202 25.1042 32.2656 24.9987 32 24.9987C31.7344 24.9987 31.4798 25.1042 31.292 25.292L29 27.586L26.708 25.292C26.5202 25.1042 26.2656 24.9987 26 24.9987C25.7344 24.9987 25.4798 25.1042 25.292 25.292C25.1042 25.4798 24.9987 25.7344 24.9987 26C24.9987 26.2655 25.1042 26.5202 25.292 26.708L27.586 29L25.292 31.292C25.199 31.385 25.1253 31.4954 25.075 31.6168C25.0246 31.7383 24.9987 31.8685 24.9987 32C24.9987 32.1315 25.0246 32.2617 25.075 32.3832C25.1253 32.5046 25.199 32.615 25.292 32.708C25.385 32.801 25.4954 32.8747 25.6168 32.925C25.7383 32.9754 25.8685 33.0013 26 33.0013C26.1315 33.0013 26.2617 32.9754 26.3832 32.925C26.5046 32.8747 26.615 32.801 26.708 32.708L29 30.414L31.292 32.708C31.385 32.801 31.4954 32.8747 31.6168 32.925C31.7383 32.9754 31.8685 33.0013 32 33.0013C32.1315 33.0013 32.2617 32.9754 32.3832 32.925C32.5046 32.8747 32.615 32.801 32.708 32.708C32.801 32.615 32.8747 32.5046 32.925 32.3832C32.9754 32.2617 33.0013 32.1315 33.0013 32C33.0013 31.8685 32.9754 31.7383 32.925 31.6168C32.8747 31.4954 32.801 31.385 32.708 31.292L30.414 29L32.708 26.708Z" fill="black"/>
</svg>
