<svg width="24" height="24" viewBox="0 0 24 24" fill="none" xmlns="http://www.w3.org/2000/svg">
<path d="M14.0593 2.95509C14.1605 2.85032 14.2165 2.70999 14.2152 2.56433C14.2139 2.41866 14.1555 2.27933 14.0525 2.17633C13.9495 2.07332 13.8102 2.0149 13.6645 2.01363C13.5188 2.01237 13.3785 2.06836 13.2737 2.16956L11.9999 3.44342L10.726 2.16956C10.6748 2.1165 10.6135 2.07418 10.5457 2.04506C10.4779 2.01595 10.405 2.00062 10.3312 1.99998C10.2575 1.99934 10.1843 2.01339 10.1161 2.04133C10.0478 2.06926 9.98575 2.11051 9.93359 2.16267C9.88143 2.21483 9.84018 2.27686 9.81224 2.34514C9.78431 2.41341 9.77025 2.48656 9.77089 2.56033C9.77154 2.63409 9.78686 2.70699 9.81598 2.77477C9.84509 2.84255 9.88741 2.90385 9.94047 2.95509L11.2143 4.22895L9.94047 5.50281C9.83928 5.60758 9.78328 5.74792 9.78455 5.89358C9.78581 6.03924 9.84424 6.17858 9.94724 6.28158C10.0502 6.38458 10.1896 6.443 10.3352 6.44427C10.4809 6.44554 10.6212 6.38954 10.726 6.28834L11.9999 5.01449L13.2737 6.28834C13.378 6.39251 13.5193 6.451 13.6667 6.45095C13.8141 6.4509 13.9554 6.39231 14.0595 6.28807C14.1637 6.18382 14.2222 6.04247 14.2221 5.8951C14.2221 5.74773 14.1635 5.60642 14.0593 5.50225L12.7854 4.22895L14.0593 2.95509Z" fill="#149CBE"/>
<path fill-rule="evenodd" clip-rule="evenodd" d="M2.38003 13.367L4.2222 13.9809V18.673C4.2222 18.7885 4.25822 18.9011 4.32523 18.9952C4.39224 19.0893 4.48692 19.1602 4.59608 19.198L11.8137 21.6962C11.9277 21.7372 12.0521 21.7394 12.1676 21.7023L12.1753 21.7001L12.1837 21.6973L19.4035 19.198C19.5127 19.1602 19.6073 19.0893 19.6743 18.9952C19.7414 18.9011 19.7774 18.7885 19.7774 18.673V13.9809L21.6195 13.367C21.7045 13.3387 21.7814 13.2904 21.8437 13.226C21.9059 13.1616 21.9517 13.0831 21.977 12.9972C22.0024 12.9114 22.0066 12.8206 21.9894 12.7327C21.9721 12.6449 21.9339 12.5625 21.8779 12.4926L19.6557 9.71487C19.5898 9.63281 19.502 9.57116 19.4024 9.53709L12.1814 7.03716C12.0638 6.99643 11.9358 6.99643 11.8181 7.03716L4.59719 9.53709C4.4976 9.57113 4.40974 9.63279 4.34387 9.71487L2.1217 12.4926C2.06572 12.5625 2.02747 12.6449 2.01021 12.7327C1.99294 12.8206 1.99718 12.9114 2.02255 12.9972C2.04792 13.0831 2.09368 13.1616 2.15592 13.226C2.21817 13.2904 2.29505 13.3387 2.38003 13.367ZM10.5104 15.6581L11.4442 14.3248V20.3929L5.33329 18.2774V14.3509L9.87984 15.8664C9.99342 15.9041 10.1161 15.9042 10.2298 15.8666C10.3434 15.8289 10.4418 15.7561 10.5104 15.6581ZM6.47604 10.0621L11.9998 11.9743L17.5235 10.0621L11.9998 8.14991L6.47604 10.0621ZM13.4892 15.6586L12.5553 14.3242V20.3929L18.6663 18.2774V14.3509L14.1197 15.8664C14.0062 15.9041 13.8834 15.9042 13.7698 15.8666C13.6562 15.8289 13.5578 15.7556 13.4892 15.6575M4.96663 10.7154L3.48722 12.5648L6.54881 13.5853L9.83762 14.6814L11.1226 12.8465L11.0476 12.8203L4.96663 10.7154ZM20.5124 12.5648L19.0329 10.7148L12.877 12.8465L14.162 14.6814L20.5124 12.5648Z" fill="#149CBE"/>
</svg>
