<svg width="16" height="16" viewBox="0 0 16 16" fill="none" xmlns="http://www.w3.org/2000/svg">
<path d="M13.3333 5.49999V12C13.3333 14 12.14 14.6667 10.6667 14.6667H5.33333C3.86 14.6667 2.66667 14 2.66667 12V5.49999C2.66667 3.33333 3.86 2.83333 5.33333 2.83333C5.33333 3.24666 5.49998 3.61999 5.77332 3.89333C6.04665 4.16666 6.42 4.33333 6.83333 4.33333H9.16667C9.99333 4.33333 10.6667 3.65999 10.6667 2.83333C12.14 2.83333 13.3333 3.33333 13.3333 5.49999Z" stroke="#149CBE" strokeLinecap="round" strokeLinejoin="round"/>
<path d="M10.6667 2.83333C10.6667 3.65999 9.99333 4.33333 9.16667 4.33333H6.83333C6.42 4.33333 6.04665 4.16666 5.77331 3.89333C5.49998 3.61999 5.33333 3.24666 5.33333 2.83333C5.33333 2.00666 6.00667 1.33333 6.83333 1.33333H9.16667C9.58 1.33333 9.95335 1.5 10.2267 1.77333C10.5 2.04666 10.6667 2.41999 10.6667 2.83333Z" stroke="#149CBE" strokeLinecap="round" strokeLinejoin="round"/>
<path d="M5.33333 8.66667H8" stroke="#149CBE" strokeLinecap="round" strokeLinejoin="round"/>
<path d="M5.33333 11.3333H10.6667" stroke="#149CBE" strokeLinecap="round" strokeLinejoin="round"/>
</svg>
