<svg width="15" height="15" viewBox="0 0 15 15" fill="none" xmlns="http://www.w3.org/2000/svg">
<path d="M2.1875 3.75C2.06389 3.75 1.94305 3.78666 1.84027 3.85533C1.73749 3.92401 1.65738 4.02162 1.61008 4.13582C1.56277 4.25003 1.55039 4.37569 1.57451 4.49693C1.59863 4.61817 1.65815 4.72953 1.74556 4.81694C1.83297 4.90435 1.94433 4.96388 2.06557 4.98799C2.18681 5.01211 2.31247 4.99973 2.42668 4.95242C2.54088 4.90512 2.63849 4.82501 2.70717 4.72223C2.77584 4.61945 2.8125 4.49861 2.8125 4.375C2.8125 4.20924 2.74665 4.05027 2.62944 3.93306C2.51223 3.81585 2.35326 3.75 2.1875 3.75ZM4.6875 5H13.4375C13.6033 5 13.7622 4.93415 13.8794 4.81694C13.9967 4.69973 14.0625 4.54076 14.0625 4.375C14.0625 4.20924 13.9967 4.05027 13.8794 3.93306C13.7622 3.81585 13.6033 3.75 13.4375 3.75H4.6875C4.52174 3.75 4.36277 3.81585 4.24556 3.93306C4.12835 4.05027 4.0625 4.20924 4.0625 4.375C4.0625 4.54076 4.12835 4.69973 4.24556 4.81694C4.36277 4.93415 4.52174 5 4.6875 5ZM4.6875 6.875C4.56389 6.875 4.44305 6.91166 4.34027 6.98033C4.23749 7.04901 4.15738 7.14662 4.11008 7.26082C4.06277 7.37503 4.05039 7.50069 4.07451 7.62193C4.09863 7.74317 4.15815 7.85453 4.24556 7.94194C4.33297 8.02935 4.44433 8.08888 4.56557 8.11299C4.68681 8.13711 4.81247 8.12473 4.92668 8.07743C5.04088 8.03012 5.13849 7.95001 5.20717 7.84723C5.27584 7.74445 5.3125 7.62361 5.3125 7.5C5.3125 7.33424 5.24665 7.17527 5.12944 7.05806C5.01223 6.94085 4.85326 6.875 4.6875 6.875ZM7.1875 10C7.06389 10 6.94305 10.0367 6.84027 10.1053C6.73749 10.174 6.65738 10.2716 6.61008 10.3858C6.56277 10.5 6.55039 10.6257 6.57451 10.7469C6.59863 10.8682 6.65815 10.9795 6.74556 11.0669C6.83297 11.1543 6.94433 11.2139 7.06557 11.238C7.18681 11.2621 7.31247 11.2497 7.42668 11.2024C7.54088 11.1551 7.63849 11.075 7.70717 10.9722C7.77585 10.8695 7.8125 10.7486 7.8125 10.625C7.8125 10.4592 7.74665 10.3003 7.62944 10.1831C7.51223 10.0658 7.35326 10 7.1875 10ZM13.4375 6.875H7.1875C7.02174 6.875 6.86277 6.94085 6.74556 7.05806C6.62835 7.17527 6.5625 7.33424 6.5625 7.5C6.5625 7.66576 6.62835 7.82473 6.74556 7.94194C6.86277 8.05915 7.02174 8.125 7.1875 8.125H13.4375C13.6033 8.125 13.7622 8.05915 13.8794 7.94194C13.9967 7.82473 14.0625 7.66576 14.0625 7.5C14.0625 7.33424 13.9967 7.17527 13.8794 7.05806C13.7622 6.94085 13.6033 6.875 13.4375 6.875ZM13.4375 10H9.6875C9.52174 10 9.36277 10.0658 9.24556 10.1831C9.12835 10.3003 9.0625 10.4592 9.0625 10.625C9.0625 10.7908 9.12835 10.9497 9.24556 11.0669C9.36277 11.1842 9.52174 11.25 9.6875 11.25H13.4375C13.6033 11.25 13.7622 11.1842 13.8794 11.0669C13.9967 10.9497 14.0625 10.7908 14.0625 10.625C14.0625 10.4592 13.9967 10.3003 13.8794 10.1831C13.7622 10.0658 13.6033 10 13.4375 10Z" fill="#149CBE"/>
</svg>
