<svg width="30" height="31" viewBox="0 0 30 31" fill="none" xmlns="http://www.w3.org/2000/svg">
<g filter="url(#filter0_d_48_3146)">
<path d="M5.06999 4.6C5.86999 1.14 11.08 1.14 11.87 4.6C12.34 6.63 11.05 8.35 9.92999 9.42C9.10999 10.2 7.81999 10.19 6.99999 9.42C5.88999 8.35 4.59999 6.63 5.06999 4.6Z" stroke="#149CBE" strokeWidth="1.5"/>
<path d="M18.07 16.6C18.87 13.14 24.11 13.14 24.91 16.6C25.38 18.63 24.09 20.35 22.96 21.42C22.14 22.2 20.84 22.19 20.02 21.42C18.89 20.35 17.6 18.63 18.07 16.6Z" stroke="#149CBE" strokeWidth="1.5"/>
<path d="M15 5H17.68C19.53 5 20.39 7.29 19 8.51L11.01 15.5C9.62001 16.71 10.48 19 12.32 19H15" stroke="#149CBE" strokeWidth="1.5" strokeLinecap="round" strokeLinejoin="round"/>
<path d="M8.48622 5.5H8.49777" stroke="#149CBE" strokeWidth="2" strokeLinecap="round" strokeLinejoin="round"/>
<path d="M21.4862 17.5H21.4978" stroke="#149CBE" strokeWidth="2" strokeLinecap="round" strokeLinejoin="round"/>
</g>
<defs>
<filter id="filter0_d_48_3146" x="-1" y="0" width="32" height="32" filterUnits="userSpaceOnUse" color-interpolation-filters="sRGB">
<feFlood flood-opacity="0" result="BackgroundImageFix"/>
<feColorMatrix in="SourceAlpha" type="matrix" values="0 0 0 0 0 0 0 0 0 0 0 0 0 0 0 0 0 0 127 0" result="hardAlpha"/>
<feOffset dy="4"/>
<feGaussianBlur stdDeviation="2"/>
<feComposite in2="hardAlpha" operator="out"/>
<feColorMatrix type="matrix" values="0 0 0 0 0 0 0 0 0 0 0 0 0 0 0 0 0 0 0.25 0"/>
<feBlend mode="normal" in2="BackgroundImageFix" result="effect1_dropShadow_48_3146"/>
<feBlend mode="normal" in="SourceGraphic" in2="effect1_dropShadow_48_3146" result="shape"/>
</filter>
</defs>
</svg>
