<svg width="40" height="40" viewBox="0 0 40 40" fill="none" xmlns="http://www.w3.org/2000/svg">
<path fill-rule="evenodd" clip-rule="evenodd" d="M20 29.3885L26.7581 32.8876C27.0248 33.0255 27.3203 33.0985 27.6205 33.1004C27.9208 33.1024 28.2172 33.0334 28.4857 32.899L34.1848 30.0495C34.5011 29.8914 34.7672 29.6484 34.9532 29.3476C35.1393 29.0469 35.2379 28.7003 35.2381 28.3466V23.0819C35.2379 22.7282 35.1393 22.3816 34.9532 22.0809C34.7672 21.7801 34.5011 21.5371 34.1848 21.379L27.619 18.0952L21.0286 21.5085C20.7186 21.6691 20.4587 21.9118 20.2773 22.2101C20.0959 22.5084 20 22.8509 20 23.2V29.3885Z" stroke="black" strokeWidth="1.5" strokeLinecap="round" strokeLinejoin="round"/>
<path fill-rule="evenodd" clip-rule="evenodd" d="M5.79047 29.9199L11.52 32.8875C11.7867 33.0255 12.0822 33.0984 12.3824 33.1004C12.6827 33.1024 12.9791 33.0334 13.2476 32.899L20 29.5237V23.0818C19.9998 22.7282 19.9012 22.3816 19.7151 22.0808C19.5291 21.7801 19.263 21.537 18.9467 21.379L12.3809 18.0952L5.79047 21.5085C5.48048 21.6691 5.22059 21.9118 5.03919 22.2101C4.8578 22.5084 4.76187 22.8508 4.7619 23.1999V28.2285C4.76187 28.5776 4.8578 28.92 5.03919 29.2183C5.22059 29.5166 5.48048 29.7593 5.79047 29.9199ZM12.3809 17.9599L19.139 21.459C19.4057 21.5969 19.7012 21.6698 20.0015 21.6718C20.3017 21.6738 20.5982 21.6048 20.8667 21.4704L27.619 18.0952V11.6533C27.6189 11.2996 27.5202 10.953 27.3342 10.6523C27.1481 10.3515 26.8821 10.1085 26.5657 9.9504L20.8667 7.10088C20.5982 6.96649 20.3017 6.89747 20.0015 6.89946C19.7012 6.90144 19.4057 6.97438 19.139 7.11231L13.4095 10.0799C13.0995 10.2405 12.8396 10.4832 12.6582 10.7815C12.4768 11.0798 12.3809 11.4222 12.3809 11.7714V17.9599Z" stroke="black" strokeWidth="1.5" strokeLinecap="round" strokeLinejoin="round"/>
<path d="M13.04 10.8057L19.1486 13.859C19.413 13.9911 19.7045 14.0599 20 14.0599C20.2956 14.0599 20.5871 13.9911 20.8514 13.859L26.8952 10.8381M16.76 8.85522L23.8095 12.3809M24.3791 20.2838L31.4286 23.8095M9.14096 20.2838L16.1905 23.8095M20.6591 22.2343L26.7676 25.2876C27.032 25.4197 27.3235 25.4885 27.6191 25.4885C27.9146 25.4885 28.2061 25.4197 28.4705 25.2876L34.5124 22.2667M5.42096 22.2343L11.5295 25.2876C11.7939 25.4197 12.0854 25.4885 12.381 25.4885C12.6765 25.4885 12.968 25.4197 13.2324 25.2876L19.2743 22.2667M20 14.2857V21.9047M27.6191 25.7143V32.3809M12.381 25.7143V32.3809" stroke="black" strokeWidth="1.5" strokeLinecap="round" strokeLinejoin="round"/>
</svg>
