<svg width="50" height="30" viewBox="0 0 50 30" fill="none" xmlns="http://www.w3.org/2000/svg">
<g clipPath="url(#clip0_35_667)">
<path d="M9.13693 7.64063C8.55099 8.33594 7.61349 8.88281 6.67599 8.80469C6.5588 7.86719 7.01974 6.86719 7.5588 6.25781C8.14474 5.54688 9.16817 5.03906 10.0041 5C10.0979 5.96875 9.71505 6.92969 9.13693 7.64063ZM9.98849 8.98438C8.62911 8.90625 7.46505 9.75781 6.82443 9.75781C6.16818 9.75781 5.1838 9.02344 4.10568 9.04688C2.70724 9.07031 1.41036 9.85938 0.699425 11.1172C-0.769326 13.6406 0.316612 17.3672 1.73849 19.4219C2.4338 20.4375 3.26193 21.5547 4.35568 21.5156C5.39474 21.4766 5.80099 20.8438 7.05099 20.8438C8.3088 20.8438 8.67599 21.5156 9.76974 21.5C10.9026 21.4766 11.6135 20.4844 12.3088 19.4688C13.0979 18.3125 13.426 17.1953 13.4416 17.1328C13.4182 17.1094 11.2541 16.2813 11.2307 13.7813C11.2072 11.6875 12.9416 10.6953 13.0197 10.6328C12.0432 9.17969 10.5197 9.02344 9.98849 8.98438ZM17.8322 6.15625V21.3828H20.1994V16.1797H23.4729C26.4651 16.1797 28.5588 14.125 28.5588 11.1563C28.5588 8.1875 26.4963 6.15625 23.551 6.15625H17.8322ZM20.1994 8.14844H22.926C24.9807 8.14844 26.1526 9.24219 26.1526 11.1641C26.1526 13.0859 24.9807 14.1953 22.9182 14.1953H20.1994V8.14844ZM32.8713 21.5C34.3557 21.5 35.7307 20.75 36.3557 19.5547H36.4026V21.3828H38.5901V13.8047C38.5901 11.6094 36.8322 10.1875 34.1291 10.1875C31.6213 10.1875 29.7619 11.625 29.6916 13.5938H31.8244C32.0041 12.6563 32.8713 12.0391 34.0588 12.0391C35.5041 12.0391 36.3166 12.7109 36.3166 13.9531V14.7969L33.3635 14.9766C30.6213 15.1406 29.1369 16.2656 29.1369 18.2188C29.1447 20.1875 30.676 21.5 32.8713 21.5ZM33.5119 19.6953C32.2541 19.6953 31.4494 19.0859 31.4494 18.1641C31.4494 17.2031 32.2229 16.6484 33.6994 16.5625L36.3244 16.3984V17.2578C36.3244 18.6797 35.1135 19.6953 33.5119 19.6953ZM41.5197 25.5234C43.8244 25.5234 44.9104 24.6406 45.8557 21.9766L50.0041 10.3359H47.5979L44.8166 19.3281H44.7697L41.9885 10.3359H39.5197L43.5197 21.4219L43.301 22.0938C42.9416 23.2344 42.3557 23.6797 41.3088 23.6797C41.1213 23.6797 40.7619 23.6563 40.6135 23.6406V25.4688C40.7541 25.5 41.3401 25.5234 41.5197 25.5234Z" fill="black"/>
</g>
<defs>
<clipPath id="clip0_35_667">
<rect width="50" height="30" fill="white"/>
</clipPath>
</defs>
</svg>
