<svg width="40" height="40" viewBox="0 0 40 40" fill="none" xmlns="http://www.w3.org/2000/svg">
<path d="M30 35.5449C30.2222 35.5449 30.4056 35.4727 30.55 35.3282C30.6945 35.1838 30.7678 34.9999 30.77 34.7766C30.7722 34.5532 30.6995 34.3694 30.5517 34.2249C30.4039 34.0805 30.22 34.0077 30 34.0066C29.78 34.0055 29.5967 34.0777 29.45 34.2232C29.3033 34.3699 29.23 34.5544 29.23 34.7766C29.23 34.9988 29.3028 35.1821 29.4483 35.3266C29.5939 35.471 29.7778 35.5438 30 35.5449ZM29.3583 32.3399H30.6417V26.9549H29.3583V32.3399ZM30 37.9166C28.1433 37.9166 26.5683 37.2699 25.275 35.9766C23.9806 34.681 23.3333 33.1055 23.3333 31.2499C23.3333 29.3944 23.9806 27.8194 25.275 26.5249C26.5695 25.2305 28.1445 24.5833 30 24.5833C31.8556 24.5833 33.4311 25.2305 34.7267 26.5249C36.0222 27.8194 36.6689 29.3944 36.6667 31.2499C36.6645 33.1055 36.0178 34.681 34.7267 35.9766C33.4356 37.2721 31.86 37.9188 30 37.9166Z" fill="#D50000"/>
<path d="M19.4867 6.95495L9.29166 12.8549L20 19.0466L30.7083 12.8583L20.5133 6.95661C20.3422 6.84995 20.1711 6.79661 20 6.79661C19.8289 6.79661 19.6578 6.84828 19.4867 6.95495ZM6.66666 26.0166V13.9833C6.66666 13.5011 6.78443 13.0549 7.01999 12.6449C7.25555 12.2349 7.58666 11.9044 8.01332 11.6533L18.6533 5.52328C18.8889 5.38439 19.1111 5.28884 19.32 5.23661C19.5289 5.18439 19.7555 5.15884 20 5.15995C20.2444 5.16106 20.4778 5.18661 20.7 5.23661C20.9244 5.28884 21.1405 5.38439 21.3483 5.52328L31.9883 11.6533C32.415 11.9044 32.7461 12.2349 32.9817 12.6449C33.2172 13.0549 33.3344 13.5011 33.3333 13.9833V19.7416H31.6667V14.2049L19.9583 20.9549L8.33332 14.2049V26.0049C8.33332 26.1772 8.3761 26.3383 8.46166 26.4883C8.54721 26.6383 8.67499 26.7661 8.84499 26.8716L19.3583 32.9849V34.8616L8.01332 28.3449C7.58666 28.0949 7.25555 27.7649 7.01999 27.3549C6.78443 26.9449 6.66666 26.4988 6.66666 26.0166Z" fill="black"/>
</svg>
