<svg width="18" height="18" viewBox="0 0 18 18" fill="none" xmlns="http://www.w3.org/2000/svg">
<path d="M6 1.5V3.75" stroke="#444444" stroke-miterlimit="10" strokeLinecap="round" strokeLinejoin="round"/>
<path d="M12 1.5V3.75" stroke="#444444" stroke-miterlimit="10" strokeLinecap="round" strokeLinejoin="round"/>
<path d="M13.65 16.05C14.9755 16.05 16.05 14.9755 16.05 13.65C16.05 12.3245 14.9755 11.25 13.65 11.25C12.3245 11.25 11.25 12.3245 11.25 13.65C11.25 14.9755 12.3245 16.05 13.65 16.05Z" stroke="#444444" strokeLinecap="round" strokeLinejoin="round"/>
<path d="M16.5 16.5L15.75 15.75" stroke="#444444" strokeLinecap="round" strokeLinejoin="round"/>
<path d="M2.625 6.8175H15.375" stroke="#444444" stroke-miterlimit="10" strokeLinecap="round" strokeLinejoin="round"/>
<path d="M10.0275 16.5H6C3.375 16.5 2.25 15 2.25 12.75V6.375C2.25 4.125 3.375 2.625 6 2.625H12C14.625 2.625 15.75 4.125 15.75 6.375V9.75" stroke="#444444" stroke-miterlimit="10" strokeLinecap="round" strokeLinejoin="round"/>
<path d="M8.99661 10.275H9.00335" stroke="#444444" strokeLinecap="round" strokeLinejoin="round"/>
<path d="M6.22073 10.275H6.22747" stroke="#444444" strokeLinecap="round" strokeLinejoin="round"/>
<path d="M6.22073 12.525H6.22747" stroke="#444444" strokeLinecap="round" strokeLinejoin="round"/>
</svg>
