<svg width="40" height="40" viewBox="0 0 40 40" fill="none" xmlns="http://www.w3.org/2000/svg">
<path d="M35 16.6667V26.6667H38.3333V16.6667M35 30.0001V33.3334H38.3333V30.0001" fill="#D50000"/>
<path d="M20 5C13 5 6.16666 7.33333 0.666664 11.6667C7.33333 20.1667 13.1667 27.3333 20 35.8333C24 30.8333 27.8333 26.1667 31.6667 21.3333V16L26 23C24.1667 22.1667 22 21.6667 20 21.6667C18 21.6667 15.8333 22.1667 14 23L5.5 12.3333C9.83333 9.66667 14.8333 8.33333 20 8.33333C25.1667 8.33333 30.1667 9.83333 34.5 12.3333L33.8333 13.3333H38.1667C38.5 12.8333 39.1667 12.1667 39.5 11.6667C33.8333 7.33333 27 5 20 5Z" fill="black"/>
</svg>
