<svg width="15" height="15" viewBox="0 0 15 15" fill="none" xmlns="http://www.w3.org/2000/svg">
<path d="M9.375 14.2188H5.625C2.23125 14.2188 0.78125 12.7688 0.78125 9.375V5.625C0.78125 2.23125 2.23125 0.78125 5.625 0.78125H6.875C7.13125 0.78125 7.34375 0.99375 7.34375 1.25C7.34375 1.50625 7.13125 1.71875 6.875 1.71875H5.625C2.74375 1.71875 1.71875 2.74375 1.71875 5.625V9.375C1.71875 12.2563 2.74375 13.2812 5.625 13.2812H9.375C12.2563 13.2812 13.2812 12.2563 13.2812 9.375V8.125C13.2812 7.86875 13.4937 7.65625 13.75 7.65625C14.0063 7.65625 14.2188 7.86875 14.2188 8.125V9.375C14.2188 12.7688 12.7688 14.2188 9.375 14.2188Z" fill="#149CBE"/>
<path d="M5.3116 11.0559C4.93035 11.0559 4.58035 10.9184 4.3241 10.6684C4.01785 10.3621 3.8866 9.91836 3.95535 9.44961L4.2241 7.56836C4.2741 7.20586 4.5116 6.73711 4.76785 6.48086L9.69285 1.55586C10.9366 0.312109 12.1991 0.312109 13.4429 1.55586C14.1241 2.23711 14.4304 2.93086 14.3679 3.62461C14.3116 4.18711 14.0116 4.73711 13.4429 5.29961L8.51785 10.2246C8.2616 10.4809 7.79285 10.7184 7.43035 10.7684L5.5491 11.0371C5.46785 11.0559 5.3866 11.0559 5.3116 11.0559ZM10.3554 2.21836L5.43035 7.14336C5.3116 7.26211 5.1741 7.53711 5.1491 7.69961L4.88035 9.58086C4.85535 9.76211 4.89285 9.91211 4.9866 10.0059C5.08035 10.0996 5.23035 10.1371 5.4116 10.1121L7.29285 9.84336C7.45535 9.81836 7.7366 9.68086 7.8491 9.56211L12.7741 4.63711C13.1804 4.23086 13.3929 3.86836 13.4241 3.53086C13.4616 3.12461 13.2491 2.69336 12.7741 2.21211C11.7741 1.21211 11.0866 1.49336 10.3554 2.21836Z" fill="#149CBE"/>
<path d="M12.4062 6.14392C12.3625 6.14392 12.3187 6.13767 12.2812 6.12517C10.6375 5.66267 9.33122 4.35642 8.86872 2.71267C8.79997 2.46267 8.94372 2.20642 9.19372 2.13142C9.44372 2.06267 9.69997 2.20642 9.76872 2.45642C10.1437 3.78767 11.2 4.84392 12.5312 5.21892C12.7812 5.28767 12.925 5.55017 12.8562 5.80017C12.8 6.01267 12.6125 6.14392 12.4062 6.14392Z" fill="#149CBE"/>
</svg>
