<svg width="15" height="15" viewBox="0 0 15 15" fill="none" xmlns="http://www.w3.org/2000/svg">
<g opacity="0.5">
<path d="M7.5 14.2188C3.79375 14.2188 0.78125 11.2063 0.78125 7.5C0.78125 3.79375 3.79375 0.78125 7.5 0.78125C7.75625 0.78125 7.96875 0.99375 7.96875 1.25C7.96875 1.50625 7.75625 1.71875 7.5 1.71875C4.3125 1.71875 1.71875 4.3125 1.71875 7.5C1.71875 10.6875 4.3125 13.2812 7.5 13.2812C10.6875 13.2812 13.2812 10.6875 13.2812 7.5C13.2812 7.24375 13.4937 7.03125 13.75 7.03125C14.0063 7.03125 14.2188 7.24375 14.2188 7.5C14.2188 11.2063 11.2063 14.2188 7.5 14.2188Z" fill="#444444"/>
<path d="M8.12539 7.34414C8.00664 7.34414 7.88789 7.30039 7.79414 7.20664C7.61289 7.02539 7.61289 6.72539 7.79414 6.54414L12.9191 1.41914C13.1004 1.23789 13.4004 1.23789 13.5816 1.41914C13.7629 1.60039 13.7629 1.90039 13.5816 2.08164L8.45664 7.20664C8.36289 7.30039 8.24414 7.34414 8.12539 7.34414Z" fill="#444444"/>
<path d="M13.7492 4.7375C13.493 4.7375 13.2805 4.525 13.2805 4.26875V1.71875H10.7305C10.4742 1.71875 10.2617 1.50625 10.2617 1.25C10.2617 0.99375 10.4742 0.78125 10.7305 0.78125H13.7492C14.0055 0.78125 14.218 0.99375 14.218 1.25V4.26875C14.218 4.525 14.0055 4.7375 13.7492 4.7375Z" fill="#444444"/>
</g>
</svg>
