<svg width="18" height="18" viewBox="0 0 18 18" fill="none" xmlns="http://www.w3.org/2000/svg">
<path d="M8.99945 12.245C7.20695 12.245 5.75195 10.79 5.75195 8.9975C5.75195 7.205 7.20695 5.75 8.99945 5.75C10.792 5.75 12.247 7.205 12.247 8.9975C12.247 10.79 10.792 12.245 8.99945 12.245ZM8.99945 6.875C7.82945 6.875 6.87695 7.8275 6.87695 8.9975C6.87695 10.1675 7.82945 11.12 8.99945 11.12C10.1695 11.12 11.122 10.1675 11.122 8.9975C11.122 7.8275 10.1695 6.875 8.99945 6.875Z" fill="#149CBE"/>
<path d="M9.00055 15.7624C6.18055 15.7624 3.51805 14.1124 1.68805 11.2474C0.893047 10.0099 0.893047 7.99242 1.68805 6.74742C3.52555 3.88242 6.18805 2.23242 9.00055 2.23242C11.813 2.23242 14.4755 3.88242 16.3055 6.74742C17.1005 7.98492 17.1005 10.0024 16.3055 11.2474C14.4755 14.1124 11.813 15.7624 9.00055 15.7624ZM9.00055 3.35742C6.57805 3.35742 4.26055 4.81242 2.64055 7.35492C2.07805 8.23242 2.07805 9.76242 2.64055 10.6399C4.26055 13.1824 6.57805 14.6374 9.00055 14.6374C11.423 14.6374 13.7405 13.1824 15.3605 10.6399C15.923 9.76242 15.923 8.23242 15.3605 7.35492C13.7405 4.81242 11.423 3.35742 9.00055 3.35742Z" fill="#149CBE"/>
</svg>
