<svg width="18" height="19" viewBox="0 0 18 19" fill="none" xmlns="http://www.w3.org/2000/svg">
<path d="M3.5325 3.17545C3.46257 3.10552 3.37956 3.05005 3.28819 3.0122C3.19682 2.97436 3.0989 2.95488 3 2.95488C2.90111 2.95488 2.80318 2.97436 2.71181 3.0122C2.62045 3.05005 2.53743 3.10552 2.4675 3.17545C2.32627 3.31668 2.24693 3.50822 2.24693 3.70795C2.24693 3.90767 2.32627 4.09922 2.4675 4.24045L6.69 8.46295C6.42285 8.95991 6.32294 9.52973 6.40507 10.0879C6.4872 10.6461 6.74699 11.163 7.14596 11.562C7.54492 11.961 8.06181 12.2208 8.62002 12.3029C9.17822 12.385 9.74804 12.2851 10.245 12.0179L14.4675 16.2404C14.5372 16.3107 14.6202 16.3665 14.7116 16.4046C14.803 16.4427 14.901 16.4623 15 16.4623C15.099 16.4623 15.197 16.4427 15.2884 16.4046C15.3798 16.3665 15.4628 16.3107 15.5325 16.2404C15.6028 16.1707 15.6586 16.0878 15.6967 15.9964C15.7347 15.905 15.7544 15.807 15.7544 15.7079C15.7544 15.6089 15.7347 15.5109 15.6967 15.4195C15.6586 15.3281 15.6028 15.2452 15.5325 15.1754L3.5325 3.17545ZM9 10.8329C8.70163 10.8329 8.41548 10.7144 8.20451 10.5034C7.99353 10.2925 7.875 10.0063 7.875 9.70795C7.875 9.70795 7.875 9.67045 7.875 9.65545L9.045 10.8254L9 10.8329Z" fill="#777777"/>
<path d="M9.165 13.4579C5.94 13.5329 3.825 10.7654 3.165 9.70795C3.63485 8.95847 4.19952 8.2728 4.845 7.66795L3.75 6.61045C2.90349 7.40805 2.1783 8.32528 1.5975 9.33295C1.53167 9.44696 1.49702 9.5763 1.49702 9.70795C1.49702 9.8396 1.53167 9.96894 1.5975 10.0829C2.07 10.9004 4.5975 14.9579 9.015 14.9579H9.2025C10.0332 14.9333 10.8531 14.7632 11.625 14.4554L10.44 13.2704C10.0233 13.3801 9.59564 13.443 9.165 13.4579ZM16.4025 9.33295C15.9225 8.50045 13.275 4.32295 8.7975 4.45795C7.96684 4.48259 7.14693 4.65266 6.375 4.96045L7.56 6.14545C7.97672 6.03582 8.40436 5.97293 8.835 5.95795C12.0525 5.87545 14.1675 8.65045 14.835 9.70795C14.3535 10.4597 13.7762 11.1454 13.1175 11.7479L14.25 12.8054C15.1071 12.0099 15.8425 11.0926 16.4325 10.0829C16.4938 9.96632 16.5233 9.83559 16.5181 9.70393C16.5128 9.57226 16.4729 9.44431 16.4025 9.33295Z" fill="#777777"/>
</svg>
