<svg width="40" height="40" viewBox="0 0 40 40" fill="none" xmlns="http://www.w3.org/2000/svg">
<path d="M15.625 8.5L17.5 10.375L22.5 5.375" stroke="black" strokeWidth="2" strokeLinecap="round" strokeLinejoin="round"/>
<path fill-rule="evenodd" clip-rule="evenodd" d="M5.57001 22.0408L8.33334 22.9616V30C8.33334 30.1733 8.38736 30.3422 8.48788 30.4834C8.5884 30.6245 8.73042 30.7308 8.89417 30.7875L19.7208 34.535C19.8921 34.5958 20.0785 34.599 20.2517 34.5441L20.2633 34.5408L20.2758 34.5366L31.1058 30.7875C31.2696 30.7308 31.4116 30.6245 31.5121 30.4834C31.6127 30.3422 31.6667 30.1733 31.6667 30V22.9616L34.43 22.0408C34.5575 21.9984 34.6728 21.9259 34.7662 21.8293C34.8595 21.7327 34.9282 21.615 34.9662 21.4862C35.0043 21.3573 35.0106 21.2212 34.9848 21.0894C34.9589 20.9576 34.9015 20.834 34.8175 20.7291L31.4842 16.5625C31.3853 16.4394 31.2535 16.3469 31.1042 16.2958L20.2725 12.5458C20.096 12.4847 19.904 12.4847 19.7275 12.5458L8.89584 16.2958C8.74647 16.3469 8.61469 16.4394 8.51584 16.5625L5.18251 20.7291C5.09854 20.834 5.04116 20.9576 5.01527 21.0894C4.98937 21.2212 4.99572 21.3573 5.03378 21.4862C5.07184 21.615 5.14047 21.7327 5.23384 21.8293C5.32721 21.9259 5.44254 21.9984 5.57001 22.0408ZM17.7658 25.4775L19.1667 23.4775V32.58L10 29.4066V23.5166L16.82 25.79C16.9904 25.8466 17.1745 25.8467 17.3449 25.7902C17.5153 25.7338 17.663 25.6246 17.7658 25.4775ZM11.7142 17.0833L20 19.9516L28.2858 17.0833L20 14.215L11.7142 17.0833ZM22.2342 25.4783L20.8333 23.4766V32.58L30 29.4066V23.5166L23.18 25.79C23.0096 25.8466 22.8255 25.8467 22.6551 25.7902C22.4847 25.7338 22.337 25.6238 22.2342 25.4766M9.45001 18.0633L7.23084 20.8375L11.8233 22.3683L16.7567 24.0125L18.6842 21.26L18.5717 21.2208L9.45001 18.0633ZM32.7692 20.8375L30.55 18.0625L21.3158 21.26L23.2433 24.0125L32.7692 20.8375Z" fill="black"/>
</svg>
