<svg width="50" height="22" viewBox="0 0 50 22" fill="none" xmlns="http://www.w3.org/2000/svg">
<g clipPath="url(#clip0_35_918)">
<path d="M34.7206 6.4686C36.1581 6.4686 37.2689 6.8562 38.1183 7.6314C38.9677 8.4066 39.3597 9.4402 39.3597 10.7322V16.9338H37.5302V15.5126H37.4649C36.6808 16.6754 35.57 17.2568 34.2633 17.2568C33.1525 17.2568 32.1724 16.9338 31.3883 16.2878C30.6696 15.6418 30.2122 14.7374 30.2122 13.7684C30.2122 12.7348 30.6043 11.895 31.3883 11.249C32.1724 10.603 33.2832 10.3446 34.59 10.3446C35.7661 10.3446 36.6808 10.5384 37.3995 10.9906V10.5384C37.3995 9.93546 37.1719 9.33253 36.7165 8.93969L36.6155 8.8588C36.0927 8.4066 35.4394 8.1482 34.7206 8.1482C33.6099 8.1482 32.7605 8.6004 32.1724 9.5048L30.4736 8.4712C31.519 7.1146 32.8911 6.4686 34.7206 6.4686ZM25.5078 2.07581C26.6803 2.07581 27.7945 2.47916 28.6853 3.23144L28.8401 3.3678C29.7549 4.143 30.2122 5.3058 30.2122 6.5332C30.2122 7.7606 29.7549 8.8588 28.8401 9.6986C27.9254 10.5384 26.8146 10.9906 25.5078 10.9906L22.3715 10.926V16.9338H20.4114V2.07581H25.5078ZM34.982 11.895C34.1979 11.895 33.5445 12.0888 33.0218 12.4764C32.4991 12.7994 32.2377 13.2516 32.2377 13.833C32.2377 14.3498 32.4991 14.802 32.8911 15.0604C33.3485 15.3834 33.8712 15.5772 34.3939 15.5772C35.1257 15.5772 35.8575 15.2958 36.43 14.7856L36.5501 14.6728C37.2035 14.0914 37.5302 13.3808 37.5302 12.6056C36.9422 12.1534 36.0927 11.895 34.982 11.895ZM25.6385 3.8846H22.3715V9.0526H25.6385C26.3572 9.0526 27.076 8.7942 27.5333 8.2774C28.5788 7.3084 28.5788 5.6934 27.5987 4.7244L27.5333 4.6598C27.0106 4.143 26.3572 3.82 25.6385 3.8846ZM49.9446 6.7916L43.4761 21.4558H41.5159L43.9334 16.3524L39.6864 6.8562H41.7772L44.8482 14.156H44.9135L47.9191 6.8562H49.9446V6.7916Z" fill="#5F6368"/>
<path d="M16.9391 9.63397C16.9391 9.05257 16.8738 8.47117 16.8085 7.88977H8.64108V11.1844H13.2802C13.0841 12.218 12.4961 13.187 11.5813 13.7684V15.9002H14.3909C16.0244 14.4144 16.9391 12.218 16.9391 9.63397Z" fill="#4285F4"/>
<path d="M8.6411 17.9674C10.9933 17.9674 12.9535 17.1922 14.3909 15.9002L11.5814 13.7684C10.7973 14.2852 9.8172 14.6082 8.6411 14.6082C6.41957 14.6082 4.4594 13.1224 3.80601 11.0552H0.931091V13.2516C2.43389 16.1586 5.37415 17.9674 8.6411 17.9674Z" fill="#34A853"/>
<path d="M3.806 11.0552C3.41397 10.0216 3.41397 8.8588 3.806 7.76061V5.56421H0.931082C-0.310361 7.95441 -0.310361 10.7968 0.931082 13.2516L3.806 11.0552Z" fill="#FBBC04"/>
<path d="M8.6411 4.27222C9.88254 4.27222 11.0586 4.72442 11.9734 5.56422L14.4563 3.10942C12.8881 1.68822 10.7973 0.848422 8.70644 0.913021C5.43949 0.913021 2.43389 2.72182 0.996429 5.62882L3.87135 7.82521C4.4594 5.75802 6.41957 4.27222 8.6411 4.27222Z" fill="#EA4335"/>
</g>
<defs>
<clipPath id="clip0_35_918">
<rect width="50" height="20.5977" fill="white" transform="translate(0 0.909546)"/>
</clipPath>
</defs>
</svg>
