<svg width="116" height="110" viewBox="0 0 116 110" fill="none" xmlns="http://www.w3.org/2000/svg">
<rect x="1" y="1" width="113.532" height="108" rx="11" fill="white" stroke="#E2E2E2" stroke-width="2"/>
<path d="M63.0456 70.3403H53.8271C45.4844 70.3403 41.9199 66.9403 41.9199 58.9826V50.1897C41.9199 42.232 45.4844 38.832 53.8271 38.832H63.0456C71.3883 38.832 74.9528 42.232 74.9528 50.1897V58.9826C74.9528 66.9403 71.3883 70.3403 63.0456 70.3403ZM53.8271 41.0303C46.7443 41.0303 44.2245 43.4337 44.2245 50.1897V58.9826C44.2245 65.7386 46.7443 68.142 53.8271 68.142H63.0456C70.1284 68.142 72.6481 65.7386 72.6481 58.9826V50.1897C72.6481 43.4337 70.1284 41.0303 63.0456 41.0303H53.8271Z" fill="#444444"/>
<path d="M53.8286 52.7575C51.4933 52.7575 49.6035 50.9549 49.6035 48.7274C49.6035 46.4998 51.4933 44.6973 53.8286 44.6973C56.164 44.6973 58.0538 46.4998 58.0538 48.7274C58.0538 50.9549 56.164 52.7575 53.8286 52.7575ZM53.8286 46.8955C52.7685 46.8955 51.9081 47.7162 51.9081 48.7274C51.9081 49.7386 52.7685 50.5593 53.8286 50.5593C54.8888 50.5593 55.7492 49.7386 55.7492 48.7274C55.7492 47.7162 54.8888 46.8955 53.8286 46.8955Z" fill="#444444"/>
<path d="M44.1027 65.8696C43.7339 65.8696 43.3652 65.6937 43.1501 65.3859C42.7967 64.8877 42.935 64.1989 43.4727 63.8618L51.0472 59.011C52.7066 57.9412 54.9958 58.0731 56.5015 59.2895L57.0085 59.7145C57.7767 60.3446 59.0827 60.3446 59.8355 59.7145L66.227 54.4826C67.8556 53.149 70.4214 53.149 72.0653 54.4826L74.5697 56.5343C75.046 56.93 75.1074 57.6188 74.6926 58.0878C74.2777 58.5421 73.5556 58.6007 73.064 58.205L70.5596 56.1533C69.7914 55.5231 68.4855 55.5231 67.7173 56.1533L61.3258 61.3851C59.6972 62.7187 57.1314 62.7187 55.4875 61.3851L54.9804 60.9601C54.2737 60.3886 53.106 60.33 52.3224 60.8429L44.7479 65.6937C44.5482 65.8109 44.3178 65.8696 44.1027 65.8696Z" fill="#444444"/>
</svg>
