<svg width="40" height="40" viewBox="0 0 40 40" fill="none" xmlns="http://www.w3.org/2000/svg">
<path d="M37.1429 6.66675H29.5238M26.6667 18.0953L13.3334 10.4763M21.8895 7.74675L31.4134 13.1887C31.9967 13.5219 32.4816 14.0034 32.8187 14.5845C33.1559 15.1655 33.3335 15.8254 33.3334 16.4972V25.4077C33.3335 26.0795 33.1559 26.7394 32.8187 27.3204C32.4816 27.9015 31.9967 28.3831 31.4134 28.7163L21.8895 34.1582C21.3141 34.4869 20.6628 34.6598 20 34.6598C19.3373 34.6598 18.686 34.4869 18.1105 34.1582L8.58669 28.7163C8.00334 28.3831 7.51849 27.9015 7.1813 27.3204C6.84411 26.7394 6.66657 26.0795 6.66669 25.4077V16.4972C6.66657 15.8254 6.84411 15.1655 7.1813 14.5845C7.51849 14.0034 8.00334 13.5219 8.58669 13.1887L18.1105 7.74675C18.686 7.41802 19.3373 7.24512 20 7.24512C20.6628 7.24512 21.3141 7.41802 21.8895 7.74675Z" stroke="black" strokeWidth="1.5" strokeLinecap="round" strokeLinejoin="round"/>
<path d="M7.61908 15.2383L18.1943 20.9335C18.7493 21.2323 19.3697 21.3887 20 21.3887C20.6303 21.3887 21.2508 21.2323 21.8057 20.9335L32.381 15.2383M20 21.9049V34.2859" stroke="black" strokeWidth="1.5" strokeLinecap="round" strokeLinejoin="round"/>
</svg>
