<svg width="24" height="24" viewBox="0 0 24 24" fill="none" xmlns="http://www.w3.org/2000/svg">
<path d="M4.6875 2V22.3718H18.6875V2H4.6875ZM5.49519 2.80769H14.9183V17.9744H5.49519V2.80769ZM15.6362 3.52564H17.8798V6.48718H15.6362V3.52564ZM16.4439 4.33333V5.67949H17.0721V4.33333H16.4439ZM7.33494 4.64744V5.67949H6.61699V6.48718H13.7965V5.67949H10.9247V4.28846L10.2067 4.55769L9.9375 5.67949H8.77083V4.64744H7.33494ZM16.0401 7.11538H17.476V7.92308H16.0401V7.11538ZM12.0016 7.6C11.7593 7.6 11.5484 7.73462 11.4272 7.90064C11.2971 8.12051 11.2253 8.33141 11.2433 8.55128H6.61699V9.35897H13.7965V8.55128H12.7599C12.7734 8.32244 12.6881 8.05769 12.576 7.90064C12.4548 7.73462 12.2439 7.6 12.0016 7.6ZM16.0401 8.55128H17.476V9.35897H16.0401V8.55128ZM7.33494 10.391V11.4231H6.61699V12.2308H13.7965V11.4231H12.7196V10.391H11.6426V11.4231H10.2067V10.0321H9.48878V11.4231H8.05288V10.75L7.33494 10.391ZM7.69391 13.1462C7.42019 13.1462 7.20929 13.3212 7.09712 13.5051C6.95353 13.7788 6.91763 14.0212 6.94006 14.2949H6.61699V15.1026H13.7965V14.2949H10.9247V13.2628H9.48878V14.2949H8.44776C8.47468 14.0256 8.41635 13.7115 8.29071 13.5051C8.17853 13.3212 7.96763 13.1462 7.69391 13.1462ZM16.0401 16.4487H17.476V17.2564H16.0401V16.4487ZM5.49519 18.7821H14.9183V21.5641H5.49519V18.7821ZM6.30288 19.5897V20.7564H14.1106V19.5897H6.30288Z" fill="#149CBE"/>
</svg>
