<svg width="150" height="150" viewBox="0 0 150 150" fill="none" xmlns="http://www.w3.org/2000/svg">
<circle cx="75" cy="75" r="74.5" fill="white" stroke="#E2E2E2"/>
<path d="M62.5542 68V51.9H65.1417L72.5362 63.676V51.9H74.9282V68H72.3407L64.9462 56.224V68H62.5542ZM83.3957 68.299C82.3377 68.299 81.3717 68.0268 80.4977 67.4825C79.6313 66.9382 78.9375 66.2098 78.4162 65.2975C77.9025 64.3775 77.6457 63.3617 77.6457 62.25C77.6457 61.4067 77.7952 60.6208 78.0942 59.8925C78.3932 59.1565 78.8033 58.5125 79.3247 57.9605C79.8537 57.4008 80.467 56.9638 81.1647 56.6495C81.8623 56.3352 82.606 56.178 83.3957 56.178C84.4537 56.178 85.4158 56.4502 86.2822 56.9945C87.1562 57.5388 87.85 58.271 88.3637 59.191C88.885 60.111 89.1457 61.1307 89.1457 62.25C89.1457 63.0857 88.9962 63.8677 88.6972 64.596C88.3982 65.3243 87.9842 65.9683 87.4552 66.528C86.9338 67.08 86.3243 67.5132 85.6267 67.8275C84.9367 68.1418 84.193 68.299 83.3957 68.299ZM83.3957 65.907C84.032 65.907 84.6032 65.7383 85.1092 65.401C85.6152 65.0637 86.0138 64.619 86.3052 64.067C86.6042 63.5073 86.7537 62.9017 86.7537 62.25C86.7537 61.583 86.6003 60.9697 86.2937 60.41C85.9947 59.8503 85.5922 59.4057 85.0862 59.076C84.5802 58.7387 84.0167 58.57 83.3957 58.57C82.767 58.57 82.1958 58.7387 81.6822 59.076C81.1762 59.4133 80.7737 59.8618 80.4747 60.4215C80.1833 60.9812 80.0377 61.5907 80.0377 62.25C80.0377 62.9323 80.191 63.5495 80.4977 64.1015C80.8043 64.6535 81.2107 65.0943 81.7167 65.424C82.2303 65.746 82.79 65.907 83.3957 65.907ZM33.0388 98.299C31.9502 98.299 30.9267 98.0843 29.9683 97.655C29.01 97.218 28.1667 96.62 27.4383 95.861C26.7177 95.0943 26.1503 94.205 25.7363 93.193C25.33 92.181 25.1268 91.1 25.1268 89.95C25.1268 88.8 25.33 87.719 25.7363 86.707C26.1503 85.695 26.7177 84.8095 27.4383 84.0505C28.1667 83.2838 29.01 82.6858 29.9683 82.2565C30.9267 81.8195 31.9502 81.601 33.0388 81.601C34.3422 81.601 35.542 81.9038 36.6383 82.5095C37.7347 83.1152 38.6432 83.9202 39.3638 84.9245L37.2363 86.063C36.738 85.4343 36.1208 84.9322 35.3848 84.5565C34.6488 84.1808 33.8668 83.993 33.0388 83.993C32.2722 83.993 31.5553 84.1502 30.8883 84.4645C30.2213 84.7788 29.6348 85.2082 29.1288 85.7525C28.6228 86.2968 28.228 86.9293 27.9443 87.65C27.6607 88.3707 27.5188 89.1373 27.5188 89.95C27.5188 90.7703 27.6607 91.5408 27.9443 92.2615C28.228 92.9745 28.6228 93.607 29.1288 94.159C29.6425 94.7033 30.2328 95.1327 30.8998 95.447C31.5668 95.7537 32.2798 95.907 33.0388 95.907C33.8822 95.907 34.668 95.7192 35.3963 95.3435C36.1323 94.9602 36.7457 94.4542 37.2363 93.8255L39.3638 94.987C38.6432 95.9913 37.7347 96.7963 36.6383 97.402C35.542 98 34.3422 98.299 33.0388 98.299ZM50.742 86.5H53.134V98H50.7305L50.6385 96.3325C50.3012 96.9228 49.845 97.3982 49.27 97.7585C48.695 98.1188 48.0165 98.299 47.2345 98.299C46.3912 98.299 45.5977 98.1418 44.854 97.8275C44.1104 97.5055 43.4549 97.0608 42.8875 96.4935C42.3279 95.9262 41.8909 95.2745 41.5765 94.5385C41.2622 93.7948 41.105 92.9975 41.105 92.1465C41.105 91.3262 41.2584 90.5557 41.565 89.835C41.8717 89.1067 42.2972 88.4703 42.8415 87.926C43.3859 87.3817 44.0145 86.9562 44.7275 86.6495C45.4482 86.3352 46.2187 86.178 47.039 86.178C47.8747 86.178 48.6107 86.3697 49.247 86.753C49.891 87.1287 50.4239 87.6117 50.8455 88.202L50.742 86.5ZM47.177 95.9875C47.8517 95.9875 48.442 95.8227 48.948 95.493C49.454 95.1557 49.845 94.7033 50.121 94.136C50.4047 93.5687 50.5465 92.94 50.5465 92.25C50.5465 91.5523 50.4047 90.9198 50.121 90.3525C49.8374 89.7852 49.4425 89.3367 48.9365 89.007C48.4382 88.6697 47.8517 88.501 47.177 88.501C46.51 88.501 45.9005 88.6697 45.3485 89.007C44.7965 89.3443 44.3595 89.7967 44.0375 90.364C43.7155 90.9313 43.5545 91.56 43.5545 92.25C43.5545 92.9477 43.7194 93.5802 44.049 94.1475C44.3864 94.7072 44.8272 95.1557 45.3715 95.493C45.9235 95.8227 46.5254 95.9875 47.177 95.9875ZM62.3008 88.892H59.8858L59.8743 98H57.4823L57.4938 88.892H55.6653V86.5H57.4938L57.4823 82.889H59.8743L59.8858 86.5H62.3008V88.892ZM69.9502 98.299C68.8922 98.299 67.9262 98.0268 67.0522 97.4825C66.1858 96.9382 65.492 96.2098 64.9707 95.2975C64.457 94.3775 64.2002 93.3617 64.2002 92.25C64.2002 91.4067 64.3497 90.6208 64.6487 89.8925C64.9477 89.1565 65.3578 88.5125 65.8792 87.9605C66.4082 87.4008 67.0215 86.9638 67.7192 86.6495C68.4168 86.3352 69.1605 86.178 69.9502 86.178C70.8318 86.178 71.6407 86.362 72.3767 86.73C73.1127 87.0903 73.7413 87.5925 74.2627 88.2365C74.784 88.8728 75.1673 89.6088 75.4127 90.4445C75.658 91.2725 75.7308 92.1542 75.6312 93.0895H66.7647C66.8643 93.6185 67.056 94.0977 67.3397 94.527C67.631 94.9487 67.999 95.2822 68.4437 95.5275C68.896 95.7728 69.3982 95.8993 69.9502 95.907C70.5328 95.907 71.0618 95.7613 71.5372 95.47C72.0202 95.1787 72.415 94.7762 72.7217 94.2625L75.1482 94.826C74.6882 95.8457 73.9943 96.6813 73.0667 97.333C72.139 97.977 71.1002 98.299 69.9502 98.299ZM66.6842 91.261H73.2162C73.1395 90.709 72.944 90.2107 72.6297 89.766C72.323 89.3137 71.9358 88.9572 71.4682 88.6965C71.0082 88.4282 70.5022 88.294 69.9502 88.294C69.4058 88.294 68.8998 88.4243 68.4322 88.685C67.9722 88.9457 67.5888 89.3022 67.2822 89.7545C66.9832 90.1992 66.7838 90.7013 66.6842 91.261ZM87.0647 86.5H89.4567V98.299C89.4567 99.0887 89.288 99.817 88.9507 100.484C88.621 101.151 88.1725 101.726 87.6052 102.209C87.0379 102.7 86.3862 103.079 85.6502 103.348C84.9219 103.616 84.159 103.75 83.3617 103.75C82.5567 103.75 81.7824 103.578 81.0387 103.233C80.295 102.895 79.6395 102.435 79.0722 101.853C78.5125 101.27 78.0947 100.611 77.8187 99.8745L80.0152 98.8855C80.1685 99.3608 80.4139 99.7825 80.7512 100.151C81.0962 100.519 81.4949 100.81 81.9472 101.025C82.4072 101.239 82.8787 101.347 83.3617 101.347C83.837 101.347 84.2932 101.27 84.7302 101.117C85.1749 100.971 85.5697 100.764 85.9147 100.496C86.2674 100.227 86.5472 99.9052 86.7542 99.5295C86.9612 99.1538 87.0647 98.7437 87.0647 98.299V96.3555C86.689 96.9382 86.206 97.4097 85.6157 97.77C85.0254 98.1227 84.3392 98.299 83.5572 98.299C82.7445 98.299 81.9779 98.1418 81.2572 97.8275C80.5365 97.5132 79.904 97.08 79.3597 96.528C78.8154 95.9683 78.3899 95.3243 78.0832 94.596C77.7765 93.8677 77.6232 93.0857 77.6232 92.25C77.6232 91.4143 77.7765 90.6323 78.0832 89.904C78.3899 89.168 78.8154 88.524 79.3597 87.972C79.904 87.4123 80.5365 86.9753 81.2572 86.661C81.9779 86.3467 82.7445 86.1895 83.5572 86.1895C84.3392 86.1895 85.0254 86.3697 85.6157 86.73C86.206 87.0827 86.689 87.5542 87.0647 88.1445V86.5ZM83.5802 95.9875C84.2472 95.9875 84.8299 95.8188 85.3282 95.4815C85.8265 95.1365 86.2137 94.6803 86.4897 94.113C86.7657 93.5457 86.9037 92.9247 86.9037 92.25C86.9037 91.56 86.7619 90.9352 86.4782 90.3755C86.2022 89.8082 85.815 89.3558 85.3167 89.0185C84.8184 88.6735 84.2395 88.501 83.5802 88.501C82.9362 88.501 82.3459 88.6697 81.8092 89.007C81.2802 89.3443 80.8585 89.7967 80.5442 90.364C80.2299 90.9313 80.0727 91.56 80.0727 92.25C80.0727 92.94 80.2299 93.5687 80.5442 94.136C80.8662 94.7033 81.2917 95.1557 81.8207 95.493C82.3574 95.8227 82.9439 95.9875 83.5802 95.9875ZM97.8744 98.299C96.8164 98.299 95.8504 98.0268 94.9764 97.4825C94.11 96.9382 93.4162 96.2098 92.8949 95.2975C92.3812 94.3775 92.1244 93.3617 92.1244 92.25C92.1244 91.4067 92.2739 90.6208 92.5729 89.8925C92.8719 89.1565 93.282 88.5125 93.8034 87.9605C94.3324 87.4008 94.9457 86.9638 95.6434 86.6495C96.341 86.3352 97.0847 86.178 97.8744 86.178C98.9324 86.178 99.8945 86.4502 100.761 86.9945C101.635 87.5388 102.329 88.271 102.842 89.191C103.364 90.111 103.624 91.1307 103.624 92.25C103.624 93.0857 103.475 93.8677 103.176 94.596C102.877 95.3243 102.463 95.9683 101.934 96.528C101.413 97.08 100.803 97.5132 100.105 97.8275C99.4154 98.1418 98.6717 98.299 97.8744 98.299ZM97.8744 95.907C98.5107 95.907 99.0819 95.7383 99.5879 95.401C100.094 95.0637 100.493 94.619 100.784 94.067C101.083 93.5073 101.232 92.9017 101.232 92.25C101.232 91.583 101.079 90.9697 100.772 90.41C100.473 89.8503 100.071 89.4057 99.5649 89.076C99.0589 88.7387 98.4954 88.57 97.8744 88.57C97.2457 88.57 96.6745 88.7387 96.1609 89.076C95.6549 89.4133 95.2524 89.8618 94.9534 90.4215C94.662 90.9812 94.5164 91.5907 94.5164 92.25C94.5164 92.9323 94.6697 93.5495 94.9764 94.1015C95.283 94.6535 95.6894 95.0943 96.1954 95.424C96.709 95.746 97.2687 95.907 97.8744 95.907ZM106.282 98V86.5H108.674V87.719C109.073 87.2437 109.564 86.868 110.146 86.592C110.729 86.316 111.358 86.178 112.032 86.178C112.462 86.178 112.887 86.2355 113.309 86.3505L112.354 88.7655C112.055 88.6505 111.756 88.593 111.457 88.593C110.951 88.593 110.488 88.7195 110.066 88.9725C109.644 89.2178 109.307 89.5513 109.054 89.973C108.801 90.3947 108.674 90.8623 108.674 91.376V98H106.282ZM123.315 86.5H125.868L119.566 103.75H117.025L119.106 98L114.978 86.5H117.588L120.302 94.7225L123.315 86.5Z" fill="#777777"/>
</svg>
