<svg width="141" height="141" viewBox="0 0 141 141" fill="none" xmlns="http://www.w3.org/2000/svg">
<g clipPath="url(#clip0_457_1077)">
<path d="M106.824 29.3842V36.0211H41.6668C41.6668 36.0211 37.3431 36.6821 37.3431 31.6975V19.4151C37.3431 19.4151 36.6822 15.9176 40.8406 15.9176H61.6051L66.9201 24.7301H102.831C102.831 24.7301 106.824 25.391 106.824 29.3842Z" fill="#EDEDED"/>
<path d="M35.195 81.2678C34.479 81.2678 33.2398 81.1301 32.2208 80.2489C31.2019 79.3676 30.7062 78.0457 30.7062 76.2557V24.1242C30.6511 23.7938 30.5134 22.3617 31.4497 21.2326C32.1657 20.3514 33.3224 19.9108 34.8646 19.9108H55.629C55.8493 19.9108 56.0697 20.0209 56.2073 20.2412L61.3296 28.7233H96.855C96.8825 28.7233 96.9376 28.7233 96.9652 28.7233C98.5349 28.9987 101.509 30.4307 101.509 34.0383V80.5793C101.509 80.9373 101.206 81.2403 100.848 81.2403H35.7183C35.6357 81.2678 35.4429 81.2678 35.195 81.2678ZM34.8646 21.2602C33.7355 21.2602 32.9368 21.5356 32.4687 22.0864C31.8353 22.8574 32.0281 23.959 32.0281 23.959C32.0281 23.9865 32.0281 24.0416 32.0281 24.0692V76.2557C32.0281 77.6326 32.3861 78.6516 33.1021 79.2574C34.121 80.1387 35.5806 79.9184 35.5806 79.9184C35.6081 79.9184 35.6357 79.9184 35.6907 79.9184H100.187V34.0383C100.187 30.8438 97.2405 30.1278 96.7999 30.0451H60.9441C60.7238 30.0451 60.5034 29.935 60.3657 29.7147L55.2435 21.2326H34.8646V21.2602Z" fill="#51597D"/>
<path d="M88.3728 127.561C113.636 127.561 134.115 123.603 134.115 118.721C134.115 113.839 113.636 109.881 88.3728 109.881C63.1099 109.881 42.6304 113.839 42.6304 118.721C42.6304 123.603 63.1099 127.561 88.3728 127.561Z" fill="#F5F5F5"/>
<path d="M110.79 101.839C110.624 101.839 110.459 101.784 110.322 101.647L108.339 99.6638C108.091 99.416 108.091 98.9754 108.339 98.7275C108.587 98.4797 109.027 98.4797 109.275 98.7275L111.258 100.71C111.506 100.958 111.506 101.399 111.258 101.647C111.148 101.784 110.982 101.839 110.79 101.839Z" fill="#51597D"/>
<path d="M114.122 99.1958C113.956 99.1958 113.791 99.1407 113.654 99.003L111.671 97.0202C111.423 96.7723 111.423 96.3317 111.671 96.0838C111.919 95.836 112.359 95.836 112.607 96.0838L114.59 98.0667C114.838 98.3145 114.838 98.7551 114.59 99.003C114.48 99.1407 114.287 99.1958 114.122 99.1958Z" fill="#51597D"/>
<path d="M92.2009 105.172C108.718 105.172 122.108 91.7817 122.108 75.2643C122.108 58.7469 108.718 45.3569 92.2009 45.3569C75.6835 45.3569 62.2935 58.7469 62.2935 75.2643C62.2935 91.7817 75.6835 105.172 92.2009 105.172Z" fill="#EDEDED"/>
<path d="M87.5471 105.172C104.064 105.172 117.454 91.7817 117.454 75.2643C117.454 58.7469 104.064 45.3569 87.5471 45.3569C71.0297 45.3569 57.6396 58.7469 57.6396 75.2643C57.6396 91.7817 71.0297 105.172 87.5471 105.172Z" fill="white"/>
<path d="M87.5469 105.833C70.693 105.833 56.9785 92.1182 56.9785 75.2643C56.9785 58.4104 70.693 44.6959 87.5469 44.6959C104.401 44.6959 118.115 58.4104 118.115 75.2643C118.115 92.1182 104.401 105.833 87.5469 105.833ZM87.5469 46.0178C71.409 46.0178 58.3004 59.1264 58.3004 75.2643C58.3004 91.4022 71.409 104.511 87.5469 104.511C103.685 104.511 116.793 91.4022 116.793 75.2643C116.793 59.1264 103.657 46.0178 87.5469 46.0178Z" fill="#51597D"/>
<path d="M87.5466 101.179C73.2538 101.179 61.6323 89.5571 61.6323 75.2643C61.6323 60.9715 73.2538 49.35 87.5466 49.35C101.839 49.35 113.461 60.9715 113.461 75.2643C113.461 89.5571 101.839 101.179 87.5466 101.179ZM87.5466 50.6719C73.9974 50.6719 62.9542 61.7151 62.9542 75.2643C62.9542 88.841 73.9974 99.8567 87.5466 99.8567C101.123 99.8567 112.139 88.8135 112.139 75.2643C112.139 61.6875 101.096 50.6719 87.5466 50.6719Z" fill="#51597D"/>
<path d="M137.943 69.5086C136.263 69.5086 134.886 68.1316 134.886 66.4517C134.886 64.7719 136.263 63.3949 137.943 63.3949C139.623 63.3949 141 64.7719 141 66.4517C141 68.1316 139.623 69.5086 137.943 69.5086ZM137.943 64.1935C136.704 64.1935 135.685 65.2125 135.685 66.4517C135.685 67.691 136.704 68.7099 137.943 68.7099C139.182 68.7099 140.201 67.691 140.201 66.4517C140.201 65.2125 139.182 64.1935 137.943 64.1935Z" fill="#51597D"/>
<path d="M137.943 67.7736C138.674 67.7736 139.265 67.1818 139.265 66.4518C139.265 65.7217 138.674 65.1299 137.943 65.1299C137.213 65.1299 136.622 65.7217 136.622 66.4518C136.622 67.1818 137.213 67.7736 137.943 67.7736Z" fill="#EDEDED"/>
<path d="M100.82 40.8129H31.7524C31.3944 40.8129 31.0639 40.5651 31.0364 40.207C31.0089 39.8215 31.3118 39.491 31.6973 39.491H100.82C101.123 39.491 101.426 39.6838 101.481 39.9867C101.591 40.3998 101.261 40.8129 100.82 40.8129Z" fill="#51597D"/>
<path d="M6.44414 28.0624C6.08613 28.0624 5.7832 27.7594 5.7832 27.4014V19.4151C5.7832 19.0571 6.08613 18.7542 6.44414 18.7542C6.80215 18.7542 7.10508 19.0571 7.10508 19.4151V27.4014C7.10508 27.7594 6.80215 28.0624 6.44414 28.0624Z" fill="#51597D"/>
<path d="M10.41 24.0692H2.42363C2.06563 24.0692 1.7627 23.7663 1.7627 23.4083C1.7627 23.0502 2.06563 22.7473 2.42363 22.7473H10.41C10.768 22.7473 11.0709 23.0502 11.0709 23.4083C11.0709 23.7663 10.7955 24.0692 10.41 24.0692Z" fill="#51597D"/>
<path d="M74.0803 72.7582C73.9151 72.7582 73.7499 72.7031 73.6122 72.5655C73.3643 72.3176 73.3643 71.877 73.6122 71.6291L79.2577 65.9836C79.5055 65.7358 79.9461 65.7358 80.194 65.9836C80.4419 66.2315 80.4419 66.6721 80.194 66.9199L74.5485 72.5655C74.4108 72.7031 74.2456 72.7582 74.0803 72.7582Z" fill="#51597D"/>
<path d="M79.7258 72.7582C79.5606 72.7582 79.3954 72.7031 79.2577 72.5655L73.6122 66.9199C73.3643 66.6721 73.3643 66.2315 73.6122 65.9836C73.86 65.7358 74.3006 65.7358 74.5485 65.9836L80.194 71.6291C80.4419 71.877 80.4419 72.3176 80.194 72.5655C80.0563 72.7031 79.8911 72.7582 79.7258 72.7582Z" fill="#51597D"/>
<path d="M96.0286 72.7582C95.8633 72.7582 95.6981 72.7031 95.5604 72.5655C95.3125 72.3176 95.3125 71.877 95.5604 71.6291L101.206 65.9836C101.454 65.7358 101.894 65.7358 102.142 65.9836C102.39 66.2315 102.39 66.6721 102.142 66.9199L96.4967 72.5655C96.359 72.7031 96.1938 72.7582 96.0286 72.7582Z" fill="#51597D"/>
<path d="M101.647 72.7582C101.481 72.7582 101.316 72.7031 101.178 72.5655L95.5604 66.9199C95.3125 66.6721 95.3125 66.2315 95.5604 65.9836C95.8083 65.7358 96.2489 65.7358 96.4967 65.9836L102.142 71.6291C102.39 71.877 102.39 72.3176 102.142 72.5655C102.005 72.7031 101.839 72.7582 101.647 72.7582Z" fill="#51597D"/>
<path d="M128.745 26.7405C128.387 26.7405 128.084 26.4375 128.084 26.0795V14.1C128.084 13.742 128.387 13.4391 128.745 13.4391C129.103 13.4391 129.406 13.742 129.406 14.1V26.0795C129.406 26.4375 129.131 26.7405 128.745 26.7405Z" fill="#51597D"/>
<path d="M134.749 20.7369H122.769C122.411 20.7369 122.108 20.434 122.108 20.076C122.108 19.718 122.411 19.415 122.769 19.415H134.749C135.107 19.415 135.41 19.718 135.41 20.076C135.41 20.434 135.107 20.7369 134.749 20.7369Z" fill="#51597D"/>
<path d="M82.8926 85.2334C82.8926 85.2334 83.5535 81.2402 88.2076 81.2402C88.2076 81.2402 93.5227 81.2402 93.5227 85.2334" stroke="white" strokeWidth="0.78125" stroke-miterlimit="10"/>
<path d="M83.6086 85.0958H83.5811C83.168 85.1233 82.8375 84.7102 82.9477 84.2971C83.3057 82.9752 84.5174 80.5793 88.483 80.5793C90.4108 80.5793 93.1647 81.1852 93.7981 84.4899C93.8807 84.8754 93.5778 85.2334 93.1922 85.2334H93.1647C92.8617 85.2334 92.5864 85.0131 92.5588 84.7102C92.1733 81.9563 88.6758 81.9288 88.483 81.9288C85.316 81.9288 84.4348 83.7739 84.1869 84.6551C84.1043 84.8754 83.884 85.0682 83.6086 85.0958Z" fill="#51597D"/>
<path d="M131.61 118.721C129.489 120.841 126.074 120.841 123.954 118.721L112.58 107.347C110.46 105.227 110.46 101.812 112.58 99.6915C114.701 97.5709 118.115 97.5709 120.236 99.6915L131.61 111.065C133.73 113.186 133.73 116.6 131.61 118.721Z" fill="white"/>
<path d="M127.782 120.952C126.239 120.952 124.67 120.373 123.485 119.189L112.112 107.815C110.955 106.659 110.322 105.144 110.322 103.519C110.322 101.895 110.955 100.38 112.112 99.2233C114.48 96.8549 118.336 96.8549 120.704 99.2233L132.078 110.597C133.234 111.754 133.868 113.268 133.868 114.893C133.868 116.518 133.234 118.032 132.078 119.189C130.893 120.373 129.351 120.952 127.782 120.952ZM116.408 98.7827C115.196 98.7827 113.984 99.2508 113.048 100.16C112.139 101.068 111.671 102.253 111.671 103.519C111.671 104.786 112.167 105.97 113.048 106.879L124.422 118.253C126.267 120.098 129.269 120.098 131.114 118.253C132.023 117.344 132.491 116.16 132.491 114.893C132.491 113.626 131.995 112.442 131.114 111.533L119.74 100.16C118.859 99.2508 117.62 98.7827 116.408 98.7827Z" fill="#51597D"/>
<path d="M0.165308 82.1491L9.08796 99.0581C9.47351 99.8016 10.3823 100.105 11.0983 99.6915L23.6286 92.972C24.3446 92.5864 24.62 91.6776 24.2069 90.9341L14.2378 72.951L0.771168 80.1387C0.0551519 80.5243 -0.220239 81.4331 0.165308 82.1491Z" fill="#EDEDED"/>
<path d="M14.0452 97.7637C13.8524 97.7637 13.6597 97.7362 13.4669 97.6811C12.9712 97.5159 12.5306 97.1854 12.3102 96.7173L4.04853 80.7997C3.55282 79.8358 3.91083 78.6516 4.8747 78.1559L15.0642 72.7032C15.1743 72.6481 15.312 72.6206 15.4222 72.6757L20.4343 74.0801C20.572 74.1077 20.6821 74.1903 20.7372 74.328L28.338 88.1801C28.5858 88.6483 28.6409 89.1716 28.5032 89.6948C28.3655 90.218 28.0075 90.6311 27.5393 90.879L15.0091 97.5985C14.6786 97.6811 14.3757 97.7637 14.0452 97.7637ZM4.90224 80.304L13.164 96.2215C13.2741 96.4419 13.4944 96.6346 13.7423 96.7173C13.9901 96.7999 14.2655 96.7723 14.4858 96.6346L27.0161 89.9151C27.2364 89.7774 27.4292 89.5846 27.4843 89.3368C27.5669 89.0889 27.5393 88.8135 27.4017 88.5932L19.911 74.9339L15.2845 73.6395L5.28779 78.9821C4.84716 79.2575 4.68193 79.8358 4.90224 80.304Z" fill="#51597D"/>
<path d="M17.1845 77.2196C17.1294 77.2196 17.0744 77.2195 17.0468 77.192C16.9091 77.1645 16.8265 77.0543 16.7439 76.9442L14.8161 73.3365C14.7335 73.1438 14.7335 72.9235 14.8712 72.7858C15.0089 72.6205 15.2292 72.5654 15.422 72.6481L20.682 74.4381C20.8747 74.4932 21.0124 74.6584 21.0124 74.8787C21.04 75.0715 20.9298 75.2643 20.7646 75.3469L17.4324 77.1369C17.3497 77.192 17.2671 77.2196 17.1845 77.2196ZM16.3033 73.9975L17.4048 76.0354L19.305 75.0164L16.3033 73.9975Z" fill="#51597D"/>
<path d="M8.56457 83.3057C8.3718 83.3057 8.20657 83.1955 8.12395 83.0303C7.98625 82.7824 8.09641 82.4795 8.34426 82.3693L15.0363 78.9545C15.2841 78.8443 15.587 78.9269 15.6972 79.1748C15.8349 79.4227 15.7247 79.7256 15.4769 79.8357L8.81243 83.2506C8.72981 83.2781 8.64719 83.3057 8.56457 83.3057Z" fill="#51597D"/>
<path d="M11.8971 89.5295C11.7043 89.5295 11.5391 89.4194 11.4565 89.2542C11.3188 89.0063 11.4289 88.7034 11.6768 88.5932L19.8834 84.4073C20.1313 84.2696 20.4342 84.3797 20.5444 84.6276C20.6821 84.8754 20.5719 85.1784 20.324 85.2885L12.1174 89.4745C12.0623 89.502 11.9797 89.5295 11.8971 89.5295Z" fill="#51597D"/>
<path d="M13.4943 92.5038C13.3015 92.5038 13.1363 92.3936 13.0536 92.2284C12.9159 91.9805 13.0261 91.6776 13.2739 91.5675L21.8661 87.1887C22.114 87.0786 22.4169 87.1612 22.5271 87.4091C22.6648 87.6569 22.5546 87.9598 22.3068 88.07L13.7146 92.4487C13.632 92.4762 13.5769 92.5038 13.4943 92.5038Z" fill="#51597D"/>
<path d="M10.0245 86.4176C9.83176 86.4176 9.66653 86.3074 9.58391 86.1422C9.44621 85.8944 9.55637 85.5914 9.80422 85.4813L18.0109 81.2953C18.2587 81.1576 18.5616 81.2678 18.6718 81.5156C18.8095 81.7635 18.6993 82.0664 18.4515 82.1766L10.2448 86.3625C10.1898 86.4176 10.1072 86.4176 10.0245 86.4176Z" fill="#51597D"/>
</g>
<defs>
<clipPath id="clip0_457_1077">
<rect width="141" height="141" fill="white"/>
</clipPath>
</defs>
</svg>
