<svg width="24" height="24" viewBox="0 0 24 24" fill="none" xmlns="http://www.w3.org/2000/svg">
<path d="M13.3202 11.0385H17.1663M13.3202 16.3754H17.1663M20.9232 20.4616C20.9232 20.8696 20.7611 21.2609 20.4726 21.5494C20.1841 21.8379 19.7928 22 19.3848 22H5.53861C5.13059 22 4.73928 21.8379 4.45076 21.5494C4.16224 21.2609 4.00015 20.8696 4.00015 20.4616V3.53849C4.00015 3.13046 4.16224 2.73915 4.45076 2.45063C4.73928 2.16211 5.13059 2.00003 5.53861 2.00003H14.1325C14.5405 2.00011 14.9317 2.16226 15.2202 2.4508L20.4725 7.7031C20.761 7.99155 20.9231 8.3828 20.9232 8.7908V20.4616Z" stroke="#149CBE" strokeWidth="1.5" strokeLinecap="round" strokeLinejoin="round"/>
<path d="M7.37079 16.2877L8.66002 17.577L10.8092 14.5693M7.37079 10.8554L8.66002 12.1446L10.8092 9.13696" stroke="#149CBE" strokeWidth="1.5" strokeLinecap="round" strokeLinejoin="round"/>
</svg>
