<svg width="38" height="36" viewBox="0 0 38 36" fill="none" xmlns="http://www.w3.org/2000/svg">
<g filter="url(#filter0_d_780_1646)">
<path d="M22.0892 2.42249C22.241 2.26532 22.325 2.05482 22.3231 1.83632C22.3212 1.61782 22.2335 1.40881 22.079 1.2543C21.9245 1.0998 21.7155 1.01216 21.497 1.01026C21.2785 1.00836 21.068 1.09235 20.9108 1.24415L19 3.15499L17.0892 1.24415C17.0123 1.16456 16.9203 1.10108 16.8187 1.0574C16.717 1.01373 16.6077 0.990739 16.497 0.989778C16.3864 0.988816 16.2766 1.0099 16.1742 1.0518C16.0718 1.0937 15.9788 1.15558 15.9005 1.23382C15.8223 1.31207 15.7604 1.40511 15.7185 1.50752C15.6766 1.60994 15.6555 1.71967 15.6565 1.83032C15.6574 1.94097 15.6804 2.05032 15.7241 2.15199C15.7678 2.25366 15.8312 2.34561 15.9108 2.42249L17.8217 4.33332L15.9108 6.24415C15.759 6.40132 15.675 6.61182 15.6769 6.83032C15.6788 7.04882 15.7665 7.25783 15.921 7.41233C16.0755 7.56684 16.2845 7.65448 16.503 7.65638C16.7215 7.65828 16.932 7.57428 17.0892 7.42249L19 5.51165L20.9108 7.42249C21.0672 7.57874 21.2792 7.66648 21.5003 7.6664C21.7214 7.66633 21.9333 7.57844 22.0896 7.42207C22.2458 7.2657 22.3336 7.05367 22.3335 6.83261C22.3334 6.61155 22.2455 6.39958 22.0892 6.24332L20.1783 4.33332L22.0892 2.42249Z" fill="black"/>
<path fill-rule="evenodd" clip-rule="evenodd" d="M4.57001 18.0408L7.33334 18.9616V26C7.33335 26.1733 7.38736 26.3422 7.48788 26.4834C7.5884 26.6245 7.73042 26.7308 7.89417 26.7875L18.7208 30.535C18.8921 30.5958 19.0785 30.599 19.2517 30.5441L19.2633 30.5408L19.2758 30.5366L30.1058 26.7875C30.2696 26.7308 30.4116 26.6245 30.5121 26.4834C30.6127 26.3422 30.6667 26.1733 30.6667 26V18.9616L33.43 18.0408C33.5575 17.9984 33.6728 17.9259 33.7662 17.8293C33.8595 17.7327 33.9282 17.615 33.9662 17.4862C34.0043 17.3573 34.0106 17.2212 33.9848 17.0894C33.9589 16.9576 33.9015 16.834 33.8175 16.7291L30.4842 12.5625C30.3853 12.4394 30.2535 12.3469 30.1042 12.2958L19.2725 8.54581C19.096 8.48473 18.904 8.48473 18.7275 8.54581L7.89584 12.2958C7.74647 12.3469 7.61469 12.4394 7.51584 12.5625L4.18251 16.7291C4.09854 16.834 4.04116 16.9576 4.01527 17.0894C3.98937 17.2212 3.99572 17.3573 4.03378 17.4862C4.07184 17.615 4.14047 17.7327 4.23384 17.8293C4.32721 17.9259 4.44254 17.9984 4.57001 18.0408ZM16.7658 21.4775L18.1667 19.4775V28.58L9.00001 25.4066V19.5166L15.82 21.79C15.9904 21.8466 16.1745 21.8467 16.3449 21.7902C16.5153 21.7338 16.663 21.6246 16.7658 21.4775ZM10.7142 13.0833L19 15.9516L27.2858 13.0833L19 10.215L10.7142 13.0833ZM21.2342 21.4783L19.8333 19.4766V28.58L29 25.4066V19.5166L22.18 21.79C22.0096 21.8466 21.8255 21.8467 21.6551 21.7902C21.4847 21.7338 21.337 21.6238 21.2342 21.4766M8.45001 14.0633L6.23084 16.8375L10.8233 18.3683L15.7567 20.0125L17.6842 17.26L17.5717 17.2208L8.45001 14.0633ZM31.7692 16.8375L29.55 14.0625L20.3158 17.26L22.2433 20.0125L31.7692 16.8375Z" fill="black"/>
</g>
<defs>
<filter id="filter0_d_780_1646" x="-0.000366211" y="0.989746" width="38.0007" height="37.5933" filterUnits="userSpaceOnUse" color-interpolation-filters="sRGB">
<feFlood flood-opacity="0" result="BackgroundImageFix"/>
<feColorMatrix in="SourceAlpha" type="matrix" values="0 0 0 0 0 0 0 0 0 0 0 0 0 0 0 0 0 0 127 0" result="hardAlpha"/>
<feOffset dy="4"/>
<feGaussianBlur stdDeviation="2"/>
<feComposite in2="hardAlpha" operator="out"/>
<feColorMatrix type="matrix" values="0 0 0 0 0 0 0 0 0 0 0 0 0 0 0 0 0 0 0.25 0"/>
<feBlend mode="normal" in2="BackgroundImageFix" result="effect1_dropShadow_780_1646"/>
<feBlend mode="normal" in="SourceGraphic" in2="effect1_dropShadow_780_1646" result="shape"/>
</filter>
</defs>
</svg>
