<svg width="19" height="18" viewBox="0 0 19 18" fill="none" xmlns="http://www.w3.org/2000/svg">
<path d="M5.375 7.5V10.5M8.375 7.5V10.5M17 9.75V8.25M5.6 13.5H11.15C12.4101 13.5 13.0402 13.5 13.5215 13.2548C13.9448 13.039 14.289 12.6948 14.5048 12.2715C14.75 11.7902 14.75 11.1601 14.75 9.9V8.1C14.75 6.83988 14.75 6.20982 14.5048 5.72852C14.289 5.30516 13.9448 4.96095 13.5215 4.74524C13.0402 4.5 12.4101 4.5 11.15 4.5H5.6C4.33988 4.5 3.70982 4.5 3.22852 4.74524C2.80516 4.96095 2.46095 5.30516 2.24524 5.72852C2 6.20982 2 6.83988 2 8.1V9.9C2 11.1601 2 11.7902 2.24524 12.2715C2.46095 12.6948 2.80516 13.039 3.22852 13.2548C3.70982 13.5 4.33988 13.5 5.6 13.5Z" stroke="#444444" strokeLinecap="round" strokeLinejoin="round"/>
</svg>
