<svg width="24" height="24" viewBox="0 0 24 24" fill="none" xmlns="http://www.w3.org/2000/svg">
<g clipPath="url(#clip0_48_3117)">
<path d="M14.316 9.09771C14.1783 8.7076 13.923 8.36981 13.5853 8.13093C13.2475 7.89204 12.844 7.76384 12.4303 7.764H10.8823C10.4407 7.76169 10.0138 7.92322 9.68441 8.21735C9.35497 8.51148 9.1463 8.91732 9.09874 9.35639C9.05119 9.79546 9.16813 10.2366 9.42696 10.5944C9.68579 10.9523 10.0681 11.2014 10.5 11.2937L12.8571 11.808C13.3391 11.9135 13.7651 12.1934 14.0532 12.5939C14.3414 12.9944 14.4714 13.4873 14.4182 13.9778C14.3651 14.4683 14.1325 14.9219 13.7653 15.2514C13.398 15.5809 12.922 15.763 12.4286 15.7629H11.0966C10.2257 15.7629 9.48514 15.2074 9.21085 14.4309M11.7634 7.764V5.76343M11.7634 17.7634V15.7646M3.42514 23.1394V18.8537H7.71085" stroke="#149CBE" strokeWidth="1.5" strokeLinecap="round" strokeLinejoin="round"/>
<path d="M22.9508 9.94971C23.4059 12.3758 23.0426 14.8843 21.9178 17.0816C20.7931 19.2788 18.9706 21.0404 16.7364 22.0898C14.5022 23.1392 11.9827 23.4171 9.57353 22.8798C7.16432 22.3425 5.00171 21.0205 3.42513 19.1211M1.04913 14.0503C0.594032 11.6242 0.957378 9.11569 2.08214 6.91844C3.20691 4.7212 5.02941 2.95962 7.26362 1.91019C9.49782 0.860762 12.0172 0.582892 14.4265 1.12019C16.8357 1.65749 18.9983 2.97955 20.5748 4.87886" stroke="#149CBE" strokeWidth="1.5" strokeLinecap="round" strokeLinejoin="round"/>
<path d="M20.5748 0.860571V5.14629H16.2891" stroke="#149CBE" strokeWidth="1.5" strokeLinecap="round" strokeLinejoin="round"/>
</g>
<defs>
<clipPath id="clip0_48_3117">
<rect width="24" height="24" fill="white"/>
</clipPath>
</defs>
</svg>
