<svg width="14" height="14" viewBox="0 0 14 14" fill="none" xmlns="http://www.w3.org/2000/svg">
<path d="M2.56055 6L3.39055 12.62C3.42002 12.8639 3.53826 13.0884 3.7227 13.2507C3.90713 13.413 4.14487 13.5018 4.39055 13.5H9.62055C9.86622 13.5018 10.104 13.413 10.2884 13.2507C10.4728 13.0884 10.5911 12.8639 10.6205 12.62L11.4405 6" stroke="#777777" strokeLinecap="round" strokeLinejoin="round"/>
<path d="M11 3.07011C10.8784 3.07203 10.7575 3.08882 10.64 3.12011C10.7314 2.90149 10.7789 2.66706 10.78 2.43011C10.7618 1.90843 10.5403 1.41455 10.1629 1.05394C9.78543 0.693331 9.28197 0.494574 8.76 0.500113C8.39819 0.501078 8.04342 0.600173 7.73348 0.78684C7.42355 0.973507 7.17005 1.24075 7 1.56011C6.82995 1.24075 6.57645 0.973507 6.26652 0.78684C5.95658 0.600173 5.60181 0.501078 5.24 0.500113C4.72148 0.499795 4.22309 0.700873 3.84997 1.06094C3.47685 1.421 3.25815 1.91191 3.24 2.43011C3.24105 2.66706 3.28862 2.90149 3.38 3.12011C3.25601 3.08716 3.12829 3.07035 3 3.07011C2.60218 3.07011 2.22064 3.22815 1.93934 3.50945C1.65804 3.79076 1.5 4.17229 1.5 4.57011C1.5 4.96794 1.65804 5.34947 1.93934 5.63077C2.22064 5.91208 2.60218 6.07011 3 6.07011C3.22885 6.0705 3.45499 6.02054 3.66237 5.92376C3.86975 5.82698 4.0533 5.68576 4.2 5.51011C4.30862 5.80427 4.50501 6.05795 4.76257 6.23682C5.02013 6.41568 5.32643 6.51108 5.64 6.51011C5.91263 6.51578 6.18193 6.44942 6.42071 6.31774C6.6595 6.18606 6.85932 5.99371 7 5.76011C7.13844 5.98598 7.33247 6.1726 7.56356 6.30215C7.79464 6.4317 8.05508 6.49985 8.32 6.50011C8.63357 6.50108 8.93987 6.40568 9.19743 6.22682C9.45499 6.04795 9.65138 5.79427 9.76 5.50011C9.9067 5.67576 10.0902 5.81698 10.2976 5.91376C10.505 6.01054 10.7311 6.0605 10.96 6.06011C11.3578 6.06011 11.7394 5.90208 12.0207 5.62077C12.302 5.33947 12.46 4.95794 12.46 4.56011C12.46 4.16229 12.302 3.78076 12.0207 3.49945C11.7394 3.21815 11.3578 3.06011 10.96 3.06011L11 3.07011Z" stroke="#777777" strokeLinecap="round" strokeLinejoin="round"/>
</svg>
