<svg width="15" height="18" viewBox="0 0 15 18" fill="none" xmlns="http://www.w3.org/2000/svg">
<path fill-rule="evenodd" clip-rule="evenodd" d="M7.32557 0C6.27087 0 5.25937 0.418977 4.51358 1.16476C3.7678 1.91055 3.34882 2.92205 3.34882 3.97674C3.34882 5.03144 3.7678 6.04294 4.51358 6.78873C5.25937 7.53451 6.27087 7.95349 7.32557 7.95349C8.38027 7.95349 9.39177 7.53451 10.1375 6.78873C10.8833 6.04294 11.3023 5.03144 11.3023 3.97674C11.3023 2.92205 10.8833 1.91055 10.1375 1.16476C9.39177 0.418977 8.38027 0 7.32557 0ZM4.60464 3.97674C4.60464 3.25511 4.89131 2.56303 5.40158 2.05276C5.91185 1.54248 6.60393 1.25581 7.32557 1.25581C8.0472 1.25581 8.73928 1.54248 9.24956 2.05276C9.75983 2.56303 10.0465 3.25511 10.0465 3.97674C10.0465 4.69838 9.75983 5.39046 9.24956 5.90073C8.73928 6.41101 8.0472 6.69767 7.32557 6.69767C6.60393 6.69767 5.91185 6.41101 5.40158 5.90073C4.89131 5.39046 4.60464 4.69838 4.60464 3.97674ZM7.32557 9.2093C5.3891 9.2093 3.60417 9.64967 2.28222 10.3931C0.97952 11.1265 -1.42336e-05 12.2367 -1.42336e-05 13.6047V13.69C-0.000851443 14.6629 -0.00168872 15.8835 1.0691 16.7559C1.59571 17.1846 2.33329 17.4901 3.32957 17.6911C4.32752 17.8937 5.62938 18 7.32557 18C9.02175 18 10.3228 17.8937 11.3224 17.6911C12.3187 17.4901 13.0554 17.1846 13.5829 16.7559C14.6537 15.8835 14.652 14.6629 14.6511 13.69V13.6047C14.6511 12.2367 13.6716 11.1265 12.3698 10.3931C11.047 9.64967 9.26287 9.2093 7.32557 9.2093ZM1.2558 13.6047C1.2558 12.8922 1.77654 12.1186 2.89757 11.4882C3.99933 10.8687 5.56324 10.4651 7.32641 10.4651C9.08789 10.4651 10.6518 10.8687 11.7536 11.4882C12.8754 12.1186 13.3953 12.8922 13.3953 13.6047C13.3953 14.6997 13.3618 15.3159 12.7892 15.7814C12.4794 16.0342 11.9604 16.2812 11.0729 16.4604C10.188 16.6395 8.97822 16.7442 7.32557 16.7442C5.67292 16.7442 4.46231 16.6395 3.57822 16.4604C2.69078 16.2812 2.17171 16.0342 1.86194 15.7822C1.28929 15.3159 1.2558 14.6997 1.2558 13.6047Z" fill="black"/>
</svg>
