<svg width="40" height="36" viewBox="0 0 40 36" fill="none" xmlns="http://www.w3.org/2000/svg">
<g filter="url(#filter0_d_780_1672)">
<path d="M22.6 0.959998C20.931 0.292305 19.069 0.292305 17.4 0.959998L5.886 5.57C5.32982 5.79243 4.85296 6.17627 4.51683 6.67208C4.1807 7.1679 4.0007 7.75299 4 8.352V23.644C3.9999 24.2437 4.17953 24.8297 4.51571 25.3263C4.85189 25.8229 5.32919 26.2073 5.886 26.43L17.4 31.036C17.6 31.116 17.802 31.186 18.006 31.246L18 31V29.12L6.628 24.574C6.44231 24.4996 6.28321 24.3712 6.17125 24.2054C6.0593 24.0396 5.99965 23.844 6 23.644V8.476L19 13.676V19.998C19.5185 19.3059 20.2076 18.7602 21 18.414V13.674L34 8.478V15C35.0025 15.7516 35.6863 16.8522 35.916 18.084L36 18.1V8.354C35.9997 7.75465 35.8199 7.16912 35.4837 6.67291C35.1476 6.1767 34.6705 5.79256 34.114 5.57L22.6 0.959998ZM18.144 2.82C19.3361 2.34315 20.6659 2.34315 21.858 2.82L32.308 7L27.75 8.82L15.442 3.9L18.144 2.82ZM12.75 4.974L25.058 9.896L20 11.922L7.692 6.998L12.75 4.974ZM24 19.998V18.998C24 18.2023 24.3161 17.4393 24.8787 16.8767C25.4413 16.3141 26.2044 15.998 27 15.998H31C31.7956 15.998 32.5587 16.3141 33.1213 16.8767C33.6839 17.4393 34 18.2023 34 18.998V19.998H35C35.7956 19.998 36.5587 20.3141 37.1213 20.8767C37.6839 21.4393 38 22.2023 38 22.998V26H34V25C34 24.7348 33.8946 24.4804 33.7071 24.2929C33.5196 24.1054 33.2652 24 33 24C32.7348 24 32.4804 24.1054 32.2929 24.2929C32.1054 24.4804 32 24.7348 32 25V26H26V25C26 24.7348 25.8946 24.4804 25.7071 24.2929C25.5196 24.1054 25.2652 24 25 24C24.7348 24 24.4804 24.1054 24.2929 24.2929C24.1054 24.4804 24 24.7348 24 25V26H20V23C20 22.2043 20.3161 21.4413 20.8787 20.8787C21.4413 20.3161 22.2044 20 23 20L24 19.998ZM31 17.998H27C26.7348 17.998 26.4804 18.1034 26.2929 18.2909C26.1054 18.4784 26 18.7328 26 18.998V19.998H32V18.998C32 18.7328 31.8946 18.4784 31.7071 18.2909C31.5196 18.1034 31.2652 17.998 31 17.998ZM34 28.998V28H38V31C38 31.7956 37.6839 32.5587 37.1213 33.1213C36.5587 33.6839 35.7956 34 35 34H23C22.2044 34 21.4413 33.6839 20.8787 33.1213C20.3161 32.5587 20 31.7956 20 31V28H24V29C24 29.2652 24.1054 29.5196 24.2929 29.7071C24.4804 29.8946 24.7348 30 25 30C25.2652 30 25.5196 29.8946 25.7071 29.7071C25.8946 29.5196 26 29.2652 26 29V28H32V29C32 29.2652 32.1054 29.5196 32.2929 29.7071C32.4804 29.8946 32.7348 30 33 30C33.2652 30 33.5196 29.8946 33.7071 29.7071C33.8946 29.5196 34 29.2632 34 28.998Z" fill="black"/>
</g>
<defs>
<filter id="filter0_d_780_1672" x="0" y="0.459229" width="42" height="41.5408" filterUnits="userSpaceOnUse" color-interpolation-filters="sRGB">
<feFlood flood-opacity="0" result="BackgroundImageFix"/>
<feColorMatrix in="SourceAlpha" type="matrix" values="0 0 0 0 0 0 0 0 0 0 0 0 0 0 0 0 0 0 127 0" result="hardAlpha"/>
<feOffset dy="4"/>
<feGaussianBlur stdDeviation="2"/>
<feComposite in2="hardAlpha" operator="out"/>
<feColorMatrix type="matrix" values="0 0 0 0 0 0 0 0 0 0 0 0 0 0 0 0 0 0 0.25 0"/>
<feBlend mode="normal" in2="BackgroundImageFix" result="effect1_dropShadow_780_1672"/>
<feBlend mode="normal" in="SourceGraphic" in2="effect1_dropShadow_780_1672" result="shape"/>
</filter>
</defs>
</svg>
