<svg width="40" height="40" viewBox="0 0 40 40" fill="none" xmlns="http://www.w3.org/2000/svg">
<g clipPath="url(#clip0_780_1251)">
<path d="M8.8889 9.38878H9.3889V8.88878V4.94434H10.6111V10.611H4.94446V9.38878H8.8889Z" stroke="black"/>
<path d="M8.8889 21.6112H9.3889V21.1112V17.1667H10.6111V22.8334H4.94446V21.6112H8.8889Z" stroke="black"/>
<path d="M21.1111 21.6112H21.6111V21.1112V17.1667H22.8333V22.8334H17.1667V21.6112H21.1111Z" stroke="black"/>
<path d="M33.3333 21.6112H33.8333V21.1112V17.1667H35.0556V22.8334H29.3889V21.6112H33.3333Z" stroke="black"/>
<path d="M8.8889 33.8334H9.3889V33.3334V29.3889H10.6111V35.0556H4.94446V33.8334H8.8889Z" stroke="black"/>
<path d="M21.1111 33.8334H21.6111V33.3334V29.3889H22.8333V35.0556H17.1667V33.8334H21.1111Z" stroke="black"/>
<path d="M33.3333 33.8334H33.8333V33.3334V29.3889H35.0556V35.0556H29.3889V33.8334H33.3333Z" stroke="black"/>
<path d="M21.1111 9.38878H21.4745L20.7534 10.611H17.1667V9.38878H21.1111ZM22.8333 7.08561L21.6111 9.15728V8.88878V4.94434H22.8333V7.08561Z" stroke="black"/>
<path d="M29.8333 1.26665L23.4778 12.2222C23.3299 12.4392 23.245 12.693 23.2325 12.9553C23.22 13.2176 23.2804 13.4783 23.407 13.7084C23.5335 13.9385 23.7213 14.1291 23.9496 14.259C24.1778 14.3889 24.4375 14.4531 24.7 14.4444H37.4222C37.6847 14.4531 37.9444 14.3889 38.1727 14.259C38.4009 14.1291 38.5887 13.9385 38.7153 13.7084C38.8418 13.4783 38.9022 13.2176 38.8897 12.9553C38.8772 12.693 38.7923 12.4392 38.6445 12.2222L32.2889 1.26665C32.1636 1.05227 31.9843 0.87444 31.7689 0.75086C31.5535 0.62728 31.3095 0.562256 31.0611 0.562256C30.8128 0.562256 30.5688 0.62728 30.3534 0.75086C30.138 0.87444 29.9587 1.05227 29.8333 1.26665Z" fill="#D50000"/>
</g>
<defs>
<clipPath id="clip0_780_1251">
<rect width="40" height="40" fill="white"/>
</clipPath>
</defs>
</svg>
