<svg width="20" height="20" viewBox="0 0 20 20" fill="none" xmlns="http://www.w3.org/2000/svg">
<path d="M10 12C11.1046 12 12 11.1046 12 10C12 8.89543 11.1046 8 10 8C8.89543 8 8 8.89543 8 10C8 11.1046 8.89543 12 10 12Z" stroke="#444444"/>
<path d="M3.39899 3.87999L3.64899 3.44599C3.55083 3.38924 3.43631 3.36754 3.3242 3.38443C3.21209 3.40133 3.10905 3.45583 3.03199 3.53899L3.39899 3.87999ZM1.39999 7.34399L0.921985 7.19599C0.888715 7.3042 0.893152 7.4205 0.934569 7.52586C0.975987 7.63122 1.05193 7.7194 1.14999 7.77599L1.39999 7.34399ZM1.39799 12.655L1.14799 12.222C1.04972 12.2786 0.973631 12.367 0.9322 12.4725C0.89077 12.5781 0.886463 12.6946 0.919985 12.803L1.39799 12.655ZM3.39798 16.119L3.03099 16.459C3.10805 16.5421 3.21109 16.5966 3.3232 16.6135C3.43531 16.6304 3.54983 16.6087 3.64798 16.552L3.39798 16.119ZM7.99799 18.774H7.49799C7.49793 18.8875 7.53651 18.9977 7.60739 19.0864C7.67828 19.1751 7.77723 19.237 7.88798 19.262L7.99799 18.774ZM11.999 18.776L12.11 19.264C12.2206 19.2388 12.3193 19.1768 12.39 19.0881C12.4607 18.9995 12.4991 18.8894 12.499 18.776H11.999ZM16.6 16.12L16.35 16.553C16.4481 16.6097 16.5627 16.6314 16.6748 16.6145C16.7869 16.5976 16.8899 16.5431 16.967 16.46L16.6 16.12ZM18.598 12.654L19.076 12.802C19.1093 12.6938 19.1048 12.5775 19.0634 12.4721C19.022 12.3668 18.946 12.2786 18.848 12.222L18.598 12.654ZM18.6 7.34299L18.85 7.77599C18.9482 7.71936 19.0243 7.63101 19.0658 7.52543C19.1072 7.41986 19.1115 7.30334 19.078 7.19499L18.6 7.34299ZM16.6 3.87799L16.967 3.53799C16.8899 3.45483 16.7869 3.40033 16.6748 3.38343C16.5627 3.36654 16.4481 3.38824 16.35 3.44499L16.6 3.87799ZM12 1.22499H12.5C12.4999 1.11176 12.4613 1.00193 12.3907 0.913459C12.32 0.824991 12.2214 0.763126 12.111 0.73799L12 1.22499ZM7.99999 1.22299L7.88899 0.73499C7.77823 0.759968 7.67928 0.821896 7.6084 0.910588C7.53751 0.99928 7.49893 1.10945 7.49898 1.22299H7.99999ZM1.87799 7.49199C2.25318 6.27311 2.89814 5.15442 3.76499 4.21899L3.03199 3.53899C2.06284 4.58437 1.34166 5.83366 0.921985 7.19599L1.87799 7.49199ZM2.63799 14.25C2.32018 13.6995 2.06493 13.1152 1.87699 12.508L0.920985 12.804C1.13165 13.4824 1.41742 14.1351 1.77299 14.75L2.63799 14.25ZM3.76599 15.78C3.33451 15.3136 2.95549 14.8004 2.63799 14.25L1.77299 14.75C2.12763 15.3651 2.54991 15.9387 3.03199 16.46L3.76599 15.78ZM11.889 18.29C10.6455 18.5731 9.35418 18.5724 8.11099 18.288L7.88899 19.262C9.27824 19.58 10.7213 19.581 12.111 19.265L11.889 18.29ZM18.122 12.508C17.7468 13.7269 17.1018 14.8456 16.235 15.781L16.968 16.461C17.9371 15.4156 18.6583 14.1653 19.078 12.803L18.122 12.508ZM17.362 5.74999C17.686 6.31299 17.939 6.89699 18.124 7.49199L19.079 7.19599C18.8684 6.5176 18.5826 5.86487 18.227 5.24999L17.362 5.74999ZM16.234 4.21999C16.6658 4.68615 17.0448 5.19938 17.362 5.74999L18.227 5.24999C17.8724 4.63484 17.4501 4.06128 16.968 3.53999L16.234 4.21999ZM8.11099 1.70999C9.35448 1.42689 10.6458 1.42758 11.889 1.71199L12.111 0.73799C10.7217 0.419977 9.27869 0.418952 7.88899 0.73499L8.11099 1.70999ZM8.49999 3.07199V1.22199H7.49999V3.07199H8.49999ZM5.24999 4.36999L3.64899 3.44599L3.14899 4.31099L4.74899 5.23599L5.24999 4.36999ZM2.74999 11.298L1.14799 12.222L1.64899 13.088L3.24899 12.164L2.74999 11.298ZM3.24999 7.83399L1.64999 6.91099L1.14999 7.77699L2.74999 8.69999L3.24999 7.83399ZM8.49999 18.774V16.927H7.49999V18.774H8.49999ZM4.74999 14.762L3.14899 15.686L3.64899 16.552L5.24899 15.628L4.74999 14.762ZM16.851 15.687L15.25 14.762L14.75 15.629L16.35 16.553L16.851 15.687ZM12.5 18.777V16.927H11.5V18.777H12.5ZM18.351 6.90999L16.75 7.83399L17.25 8.69999L18.85 7.77599L18.351 6.90999ZM18.849 12.221L17.25 11.3L16.75 12.166L18.35 13.089L18.849 12.221ZM12.5 3.07199V1.22499H11.5V3.07199H12.5ZM16.351 3.44599L14.75 4.37099L15.25 5.23699L16.851 4.31199L16.351 3.44599ZM11.5 3.07199C11.5 4.99599 13.583 6.19899 15.25 5.23699L14.75 4.37099C14.5219 4.50268 14.2631 4.57199 13.9997 4.57195C13.7364 4.57191 13.4776 4.50252 13.2496 4.37075C13.0215 4.23898 12.8322 4.04949 12.7006 3.82133C12.569 3.59316 12.4998 3.33538 12.5 3.07199H11.5ZM16.75 7.83499C15.083 8.79699 15.083 11.203 16.75 12.165L17.25 11.299C17.022 11.1673 16.8326 10.978 16.701 10.75C16.5694 10.5219 16.5001 10.2633 16.5001 9.99999C16.5001 9.7367 16.5694 9.47804 16.701 9.25002C16.8326 9.022 17.022 8.83265 17.25 8.70099L16.75 7.83499ZM15.25 14.763C13.583 13.801 11.5 15.002 11.5 16.927H12.5C12.5 16.6637 12.5693 16.406 12.701 16.178C12.8326 15.95 13.022 15.7606 13.25 15.629C13.478 15.4973 13.7367 15.428 14 15.428C14.2633 15.428 14.522 15.4973 14.75 15.629L15.25 14.763ZM8.49999 16.927C8.49999 15.003 6.41699 13.801 4.74999 14.763L5.24999 15.629C5.47808 15.4973 5.73684 15.428 6.00023 15.428C6.26361 15.4281 6.52234 15.4975 6.7504 15.6292C6.97846 15.761 7.1678 15.9505 7.29938 16.1787C7.43097 16.4068 7.50015 16.6656 7.49999 16.929L8.49999 16.927ZM3.24999 12.165C4.91699 11.203 4.91699 8.79699 3.24999 7.83499L2.74999 8.70099C3.74999 9.27799 3.74999 10.72 2.74999 11.298L3.24999 12.165ZM7.49999 3.07199C7.4998 3.33521 7.43036 3.59374 7.29863 3.82163C7.16691 4.04951 6.97753 4.23872 6.74954 4.37025C6.52154 4.50178 6.26294 4.571 5.99973 4.57095C5.73651 4.57091 5.47794 4.5016 5.24999 4.36999L4.74999 5.23699C6.41699 6.19899 8.49999 4.99699 8.49999 3.07199H7.49999Z" fill="#444444"/>
</svg>
