<svg width="24" height="24" viewBox="0 0 24 24" fill="none" xmlns="http://www.w3.org/2000/svg">
<path d="M14.692 16.5C14.924 16.5 15.1167 16.4233 15.27 16.27C15.4233 16.1167 15.5 15.924 15.5 15.692V8.308C15.5 8.076 15.4233 7.88333 15.27 7.73C15.1167 7.57667 14.924 7.5 14.692 7.5H9.308C9.076 7.5 8.88333 7.57667 8.73 7.73C8.57667 7.88333 8.5 8.076 8.5 8.308V15.692C8.5 15.924 8.57667 16.1167 8.73 16.27C8.88333 16.4233 9.076 16.5 9.308 16.5H14.692ZM9.5 15.5V8.5H14.5V15.5H9.5ZM5.615 20C5.155 20 4.771 19.846 4.463 19.538C4.15433 19.2293 4 18.845 4 18.385V5.615C4 5.155 4.15433 4.771 4.463 4.463C4.771 4.15433 5.155 4 5.615 4H18.385C18.845 4 19.229 4.15433 19.537 4.463C19.8457 4.771 20 5.155 20 5.615V18.385C20 18.845 19.846 19.229 19.538 19.537C19.2293 19.8457 18.845 20 18.385 20H5.615ZM5.615 19H18.385C18.5383 19 18.6793 18.936 18.808 18.808C18.936 18.6793 19 18.5383 19 18.385V5.615C19 5.46167 18.936 5.32067 18.808 5.192C18.6793 5.064 18.5383 5 18.385 5H5.615C5.46167 5 5.32067 5.064 5.192 5.192C5.064 5.32067 5 5.46167 5 5.615V18.385C5 18.5383 5.064 18.6793 5.192 18.808C5.32067 18.936 5.46167 19 5.615 19ZM12 11.808C12.232 11.808 12.4247 11.7313 12.578 11.578C12.7313 11.4247 12.808 11.232 12.808 11C12.808 10.768 12.7313 10.5753 12.578 10.422C12.4247 10.2687 12.232 10.192 12 10.192C11.768 10.192 11.5753 10.2687 11.422 10.422C11.2687 10.5753 11.192 10.768 11.192 11C11.192 11.232 11.2687 11.4247 11.422 11.578C11.5753 11.7313 11.768 11.808 12 11.808Z" fill="#444444"/>
</svg>
