<svg width="40" height="40" viewBox="0 0 40 40" fill="none" xmlns="http://www.w3.org/2000/svg">
<path d="M19.7917 19.4532C19.923 19.4532 20.0488 19.5053 20.1416 19.5981C20.2344 19.6909 20.2865 19.8168 20.2865 19.948V24.9583C20.753 25.0788 21.1595 25.3652 21.4298 25.7639C21.7002 26.1626 21.8159 26.6462 21.7552 27.1241C21.6945 27.602 21.4616 28.0413 21.1001 28.3597C20.7387 28.6782 20.2735 28.8539 19.7917 28.8539C19.31 28.8539 18.8448 28.6782 18.4834 28.3597C18.1219 28.0413 17.889 27.602 17.8283 27.1241C17.7676 26.6462 17.8833 26.1626 18.1537 25.7639C18.424 25.3652 18.8305 25.0788 19.2969 24.9583V19.948C19.2969 19.8168 19.3491 19.6909 19.4419 19.5981C19.5347 19.5053 19.6605 19.4532 19.7917 19.4532ZM19.7917 15C19.0044 15 18.2492 15.3128 17.6925 15.8695C17.1357 16.4263 16.8229 17.1814 16.8229 17.9688V24.2567C16.3191 24.828 15.9908 25.5326 15.8774 26.2859C15.7641 27.0392 15.8705 27.8093 16.1839 28.5036C16.4973 29.1979 17.0045 29.787 17.6444 30.2003C18.2844 30.6135 19.03 30.8333 19.7917 30.8333C20.5535 30.8333 21.2991 30.6135 21.9391 30.2003C22.579 29.787 23.0861 29.1979 23.3996 28.5036C23.713 27.8093 23.8194 27.0392 23.7061 26.2859C23.5927 25.5326 23.2644 24.828 22.7605 24.2567V17.9688C22.7605 17.1814 22.4478 16.4263 21.891 15.8695C21.3342 15.3128 20.5791 15 19.7917 15ZM19.7917 15.9896C20.3167 15.9896 20.8201 16.1981 21.1912 16.5693C21.5624 16.9405 21.7709 17.4439 21.7709 17.9688V24.6535L21.9125 24.797C22.3215 25.2146 22.5982 25.7437 22.7079 26.3179C22.8175 26.8921 22.7552 27.4859 22.5287 28.0248C22.3022 28.5637 21.9217 29.0238 21.4348 29.3473C20.9479 29.6708 20.3763 29.8434 19.7917 29.8434C19.2072 29.8434 18.6356 29.6708 18.1487 29.3473C17.6618 29.0238 17.2813 28.5637 17.0548 28.0248C16.8283 27.4859 16.766 26.8921 16.8756 26.3179C16.9852 25.7437 17.2619 25.2146 17.671 24.797L17.8125 24.6535V17.9688C17.8125 17.4439 18.0211 16.9405 18.3922 16.5693C18.7634 16.1981 19.2668 15.9896 19.7917 15.9896Z" fill="#D50000"/>
<path d="M16.3933 5.40669C17.9983 2.63169 22.0017 2.63169 23.6067 5.40669L38.5517 31.2467C40.1567 34.025 38.1517 37.5 34.9433 37.5H5.05667C1.84667 37.5 -0.156661 34.025 1.44834 31.2467L16.3933 5.40669ZM21.4433 6.65836C21.2964 6.40585 21.0857 6.19632 20.8325 6.05069C20.5792 5.90505 20.2922 5.82841 20 5.82841C19.7078 5.82841 19.4208 5.90505 19.1675 6.05069C18.9143 6.19632 18.7036 6.40585 18.5567 6.65836L3.61334 32.4984C3.46772 32.7519 3.39122 33.0393 3.39152 33.3317C3.39181 33.6241 3.46887 33.9113 3.615 34.1646C3.76113 34.4179 3.9712 34.6283 4.2242 34.7749C4.4772 34.9216 4.76426 34.9992 5.05667 35H34.9433C35.2355 34.999 35.5223 34.9214 35.7751 34.7748C36.0278 34.6283 36.2377 34.418 36.3838 34.165C36.5299 33.912 36.607 33.6251 36.6075 33.3329C36.608 33.0407 36.5319 32.7535 36.3867 32.5L21.4433 6.65836Z" fill="black"/>
</svg>
