<svg width="16" height="16" viewBox="0 0 16 16" fill="none" xmlns="http://www.w3.org/2000/svg">
<path d="M7.65499 13.9959L7.7448 14.0815C6.5232 12.925 5.54241 11.8403 4.79635 10.8277C5.52747 11.8193 6.48123 12.8769 7.65499 13.9959ZM11.2037 10.8277C10.4576 11.8403 9.47681 12.925 8.25522 14.0815L8.34501 13.9959C9.51877 12.8769 10.4725 11.8193 11.2037 10.8277Z" fill="#149CBE" stroke="#149CBE"/>
<mask id="path-2-inside-1_1_543" fill="white">
<path d="M8 7C8.26522 7 8.51957 6.89464 8.70711 6.70711C8.89464 6.51957 9 6.26522 9 6C9 5.73478 8.89464 5.48043 8.70711 5.29289C8.51957 5.10536 8.26522 5 8 5C7.73478 5 7.48043 5.10536 7.29289 5.29289C7.10536 5.48043 7 5.73478 7 6C7 6.26522 7.10536 6.51957 7.29289 6.70711C7.48043 6.89464 7.73478 7 8 7ZM8 8C7.46957 8 6.96086 7.78929 6.58579 7.41421C6.21071 7.03914 6 6.53043 6 6C6 5.46957 6.21071 4.96086 6.58579 4.58579C6.96086 4.21071 7.46957 4 8 4C8.53043 4 9.03914 4.21071 9.41421 4.58579C9.78929 4.96086 10 5.46957 10 6C10 6.53043 9.78929 7.03914 9.41421 7.41421C9.03914 7.78929 8.53043 8 8 8ZM13.4 11L15 15H10.5V14H5.5V15H1L2.6 11H13.4ZM12.323 11H3.677L2.477 14H13.523L12.323 11Z"/>
</mask>
<path d="M8 7C8.26522 7 8.51957 6.89464 8.70711 6.70711C8.89464 6.51957 9 6.26522 9 6C9 5.73478 8.89464 5.48043 8.70711 5.29289C8.51957 5.10536 8.26522 5 8 5C7.73478 5 7.48043 5.10536 7.29289 5.29289C7.10536 5.48043 7 5.73478 7 6C7 6.26522 7.10536 6.51957 7.29289 6.70711C7.48043 6.89464 7.73478 7 8 7ZM8 8C7.46957 8 6.96086 7.78929 6.58579 7.41421C6.21071 7.03914 6 6.53043 6 6C6 5.46957 6.21071 4.96086 6.58579 4.58579C6.96086 4.21071 7.46957 4 8 4C8.53043 4 9.03914 4.21071 9.41421 4.58579C9.78929 4.96086 10 5.46957 10 6C10 6.53043 9.78929 7.03914 9.41421 7.41421C9.03914 7.78929 8.53043 8 8 8ZM13.4 11L15 15H10.5V14H5.5V15H1L2.6 11H13.4ZM12.323 11H3.677L2.477 14H13.523L12.323 11Z" fill="#149CBE"/>
<path d="M8 8V9V8ZM6 6H5H6ZM8 4V3V4ZM13.4 11L14.3285 10.6286L14.077 10H13.4V11ZM15 15V16H16.477L15.9285 14.6286L15 15ZM10.5 15H9.5V16H10.5V15ZM10.5 14H11.5V13H10.5V14ZM5.5 14V13H4.5V14H5.5ZM5.5 15V16H6.5V15H5.5ZM1 15L0.0715233 14.6286L-0.477033 16H1V15ZM2.6 11V10H1.92297L1.67152 10.6286L2.6 11ZM12.323 11L13.2515 10.6286L13 10H12.323V11ZM3.677 11V10H2.99997L2.74852 10.6286L3.677 11ZM2.477 14L1.54852 13.6286L0.999967 15H2.477V14ZM13.523 14V15H15L14.4515 13.6286L13.523 14ZM8 8C8.53043 8 9.03914 7.78929 9.41421 7.41421L8 6V6V8ZM9.41421 7.41421C9.78929 7.03914 10 6.53043 10 6H8V6L9.41421 7.41421ZM10 6C10 5.46957 9.78929 4.96086 9.41421 4.58579L8 6V6H10ZM9.41421 4.58579C9.03914 4.21071 8.53043 4 8 4V6V6L9.41421 4.58579ZM8 4C7.46957 4 6.96086 4.21071 6.58579 4.58579L8 6V6V4ZM6.58579 4.58579C6.21071 4.96086 6 5.46957 6 6H8V6L6.58579 4.58579ZM6 6C6 6.53043 6.21071 7.03914 6.58579 7.41421L8 6V6H6ZM6.58579 7.41421C6.96086 7.78929 7.46957 8 8 8V6V6L6.58579 7.41421ZM8 7C7.73478 7 7.48043 6.89464 7.29289 6.70711L5.87868 8.12132C6.44129 8.68393 7.20435 9 8 9V7ZM7.29289 6.70711C7.10536 6.51957 7 6.26522 7 6H5C5 6.79565 5.31607 7.55871 5.87868 8.12132L7.29289 6.70711ZM7 6C7 5.73478 7.10536 5.48043 7.29289 5.29289L5.87868 3.87868C5.31607 4.44129 5 5.20435 5 6H7ZM7.29289 5.29289C7.48043 5.10536 7.73478 5 8 5V3C7.20435 3 6.44129 3.31607 5.87868 3.87868L7.29289 5.29289ZM8 5C8.26522 5 8.51957 5.10536 8.70711 5.29289L10.1213 3.87868C9.55871 3.31607 8.79565 3 8 3V5ZM8.70711 5.29289C8.89464 5.48043 9 5.73478 9 6H11C11 5.20435 10.6839 4.44129 10.1213 3.87868L8.70711 5.29289ZM9 6C9 6.26522 8.89464 6.51957 8.70711 6.70711L10.1213 8.12132C10.6839 7.55871 11 6.79565 11 6H9ZM8.70711 6.70711C8.51957 6.89464 8.26522 7 8 7V9C8.79565 9 9.55871 8.68393 10.1213 8.12132L8.70711 6.70711ZM12.4715 11.3714L14.0715 15.3714L15.9285 14.6286L14.3285 10.6286L12.4715 11.3714ZM15 14H10.5V16H15V14ZM11.5 15V14H9.5V15H11.5ZM10.5 13H5.5V15H10.5V13ZM4.5 14V15H6.5V14H4.5ZM5.5 14H1V16H5.5V14ZM1.92848 15.3714L3.52848 11.3714L1.67152 10.6286L0.0715233 14.6286L1.92848 15.3714ZM2.6 12H13.4V10H2.6V12ZM12.323 10H3.677V12H12.323V10ZM2.74852 10.6286L1.54852 13.6286L3.40548 14.3714L4.60548 11.3714L2.74852 10.6286ZM2.477 15H13.523V13H2.477V15ZM14.4515 13.6286L13.2515 10.6286L11.3945 11.3714L12.5945 14.3714L14.4515 13.6286Z" fill="#149CBE" mask="url(#path-2-inside-1_1_543)"/>
</svg>
