<svg width="44" height="48" viewBox="0 0 44 48" fill="none" xmlns="http://www.w3.org/2000/svg">
<g filter="url(#filter0_d_780_1231)">
<path d="M8 7V33H32V7H8ZM9.38462 8.03084H25.5385V27.3877H9.38462V8.03084ZM26.7692 8.94714H30.6154V12.7269H26.7692V8.94714ZM28.1538 9.97797V11.696H29.2308V9.97797H28.1538ZM12.5385 10.3789V11.696H11.3077V12.7269H23.6154V11.696H18.6923V9.9207L17.4615 10.2643L17 11.696H15V10.3789H12.5385ZM27.4615 13.5286H29.9231V14.5595H27.4615V13.5286ZM20.5385 14.1471C20.1231 14.1471 19.7615 14.3189 19.5538 14.5308C19.3308 14.8115 19.2077 15.0806 19.2385 15.3612H11.3077V16.3921H23.6154V15.3612H21.8385C21.8615 15.0692 21.7154 14.7313 21.5231 14.5308C21.3154 14.3189 20.9538 14.1471 20.5385 14.1471ZM27.4615 15.3612H29.9231V16.3921H27.4615V15.3612ZM12.5385 17.7093V19.0264H11.3077V20.0573H23.6154V19.0264H21.7692V17.7093H19.9231V19.0264H17.4615V17.2511H16.2308V19.0264H13.7692V18.1674L12.5385 17.7093ZM13.1538 21.2256C12.6846 21.2256 12.3231 21.4489 12.1308 21.6837C11.8846 22.033 11.8231 22.3423 11.8615 22.6916H11.3077V23.7225H23.6154V22.6916H18.6923V21.3744H16.2308V22.6916H14.4462C14.4923 22.348 14.3923 21.9471 14.1769 21.6837C13.9846 21.4489 13.6231 21.2256 13.1538 21.2256ZM27.4615 25.4405H29.9231V26.4714H27.4615V25.4405ZM9.38462 28.4185H25.5385V31.9692H9.38462V28.4185ZM10.7692 29.4493V30.9383H24.1538V29.4493H10.7692Z" fill="black"/>
<circle cx="32.855" cy="32.855" r="6.855" fill="white"/>
<path d="M32.8571 26C29.0857 26 26 29.0857 26 32.8571C26 36.6286 29.0857 39.7143 32.8571 39.7143C36.6286 39.7143 39.7143 36.6286 39.7143 32.8571C39.7143 29.0857 36.6286 26 32.8571 26ZM32.8571 27.5238C34.0381 27.5238 35.1429 27.9429 36.0571 28.5905L28.5905 36.0571C27.9429 35.1429 27.5238 34.0381 27.5238 32.8571C27.5238 29.9238 29.9238 27.5238 32.8571 27.5238ZM32.8571 38.1905C31.6762 38.1905 30.5714 37.7714 29.6571 37.1238L37.1238 29.6571C37.7714 30.5714 38.1905 31.6762 38.1905 32.8571C38.1905 35.7905 35.7905 38.1905 32.8571 38.1905Z" fill="#D50000"/>
</g>
<defs>
<filter id="filter0_d_780_1231" x="-4" y="0" width="48" height="48" filterUnits="userSpaceOnUse" color-interpolation-filters="sRGB">
<feFlood flood-opacity="0" result="BackgroundImageFix"/>
<feColorMatrix in="SourceAlpha" type="matrix" values="0 0 0 0 0 0 0 0 0 0 0 0 0 0 0 0 0 0 127 0" result="hardAlpha"/>
<feOffset dy="4"/>
<feGaussianBlur stdDeviation="2"/>
<feComposite in2="hardAlpha" operator="out"/>
<feColorMatrix type="matrix" values="0 0 0 0 0 0 0 0 0 0 0 0 0 0 0 0 0 0 0.25 0"/>
<feBlend mode="normal" in2="BackgroundImageFix" result="effect1_dropShadow_780_1231"/>
<feBlend mode="normal" in="SourceGraphic" in2="effect1_dropShadow_780_1231" result="shape"/>
</filter>
</defs>
</svg>
